<svg width="590" height="400" viewBox="0 0 590 400" fill="none" xmlns="http://www.w3.org/2000/svg">
<path d="M68.3154 283.98V296H66.4727V285.807H66.4062L63.5342 287.683V285.939L66.5225 283.98H68.3154ZM83.2568 282.553V293.543H81.6797V288.479H77.5957V287.218H81.6797V285.657H77.5957V284.396H81.6797V282.553H83.2568ZM83.6387 295.817V297.096H73.5615V292.58H75.1553V295.817H83.6387ZM73.2959 283.582V290.09C75.2715 290.09 77.1475 289.965 79.2725 289.575L79.4385 290.87C77.0811 291.318 75.0723 291.401 72.8809 291.418H71.7354V283.582H73.2959Z" fill="white"/>
<path d="M50.7676 194V192.672L54.9346 188.472C56.2461 187.094 56.9102 186.33 56.9102 185.284C56.9102 184.105 55.9473 183.342 54.6855 183.342C53.3574 183.342 52.4941 184.188 52.4941 185.467H50.7676C50.751 183.275 52.4277 181.814 54.7188 181.814C57.043 181.814 58.6367 183.275 58.6533 185.234C58.6367 186.579 58.0059 187.642 55.748 189.866L53.3076 192.34V192.439H58.8525V194H50.7676ZM65.0615 194.166C62.2725 194.166 60.6455 191.925 60.6455 187.99C60.6455 184.089 62.3057 181.814 65.0615 181.814C67.8174 181.814 69.4775 184.089 69.4775 187.99C69.4775 191.925 67.834 194.166 65.0615 194.166ZM65.0615 192.589C66.6885 192.589 67.6514 190.995 67.6514 187.99C67.6514 185.002 66.6719 183.358 65.0615 183.358C63.4512 183.358 62.4717 185.002 62.4717 187.99C62.4717 190.995 63.4346 192.589 65.0615 192.589ZM83.2568 180.553V191.543H81.6797V186.479H77.5957V185.218H81.6797V183.657H77.5957V182.396H81.6797V180.553H83.2568ZM83.6387 193.817V195.096H73.5615V190.58H75.1553V193.817H83.6387ZM73.2959 181.582V188.09C75.2715 188.09 77.1475 187.965 79.2725 187.575L79.4385 188.87C77.0811 189.318 75.0723 189.401 72.8809 189.418H71.7354V181.582H73.2959Z" fill="white"/>
<path d="M57.8232 232.98V245H55.9805V234.807H55.9141L53.042 236.683V234.939L56.0303 232.98H57.8232ZM65.0615 245.166C62.2725 245.166 60.6455 242.925 60.6455 238.99C60.6455 235.089 62.3057 232.814 65.0615 232.814C67.8174 232.814 69.4775 235.089 69.4775 238.99C69.4775 242.925 67.834 245.166 65.0615 245.166ZM65.0615 243.589C66.6885 243.589 67.6514 241.995 67.6514 238.99C67.6514 236.002 66.6719 234.358 65.0615 234.358C63.4512 234.358 62.4717 236.002 62.4717 238.99C62.4717 241.995 63.4346 243.589 65.0615 243.589ZM83.2568 231.553V242.543H81.6797V237.479H77.5957V236.218H81.6797V234.657H77.5957V233.396H81.6797V231.553H83.2568ZM83.6387 244.817V246.096H73.5615V241.58H75.1553V244.817H83.6387ZM73.2959 232.582V239.09C75.2715 239.09 77.1475 238.965 79.2725 238.575L79.4385 239.87C77.0811 240.318 75.0723 240.401 72.8809 240.418H71.7354V232.582H73.2959Z" fill="white"/>
<path d="M54.5361 143.166C52.0459 143.166 50.2695 141.821 50.2031 139.862H52.0625C52.1289 140.925 53.1748 141.589 54.5195 141.589C55.9639 141.589 57.0264 140.792 57.0264 139.63C57.0264 138.451 56.0303 137.588 54.3203 137.588H53.291V136.094H54.3203C55.6816 136.094 56.6445 135.33 56.6445 134.185C56.6445 133.089 55.8311 132.342 54.5527 132.342C53.3408 132.342 52.2783 133.006 52.2285 134.102H50.4688C50.5186 132.143 52.3281 130.814 54.5693 130.814C56.9268 130.814 58.4209 132.309 58.4043 134.085C58.4209 135.446 57.5742 136.442 56.2793 136.758V136.841C57.9229 137.073 58.8691 138.169 58.8691 139.696C58.8691 141.705 57.0264 143.166 54.5361 143.166ZM65.0615 143.166C62.2725 143.166 60.6455 140.925 60.6455 136.99C60.6455 133.089 62.3057 130.814 65.0615 130.814C67.8174 130.814 69.4775 133.089 69.4775 136.99C69.4775 140.925 67.834 143.166 65.0615 143.166ZM65.0615 141.589C66.6885 141.589 67.6514 139.995 67.6514 136.99C67.6514 134.002 66.6719 132.358 65.0615 132.358C63.4512 132.358 62.4717 134.002 62.4717 136.99C62.4717 139.995 63.4346 141.589 65.0615 141.589ZM83.2568 129.553V140.543H81.6797V135.479H77.5957V134.218H81.6797V132.657H77.5957V131.396H81.6797V129.553H83.2568ZM83.6387 142.817V144.096H73.5615V139.58H75.1553V142.817H83.6387ZM73.2959 130.582V137.09C75.2715 137.09 77.1475 136.965 79.2725 136.575L79.4385 137.87C77.0811 138.318 75.0723 138.401 72.8809 138.418H71.7354V130.582H73.2959Z" fill="white"/>
<path d="M49.8213 89.6592V88.1816L55.1338 79.9805H57.3916V88.1152H59.0352V89.6592H57.3916V92H55.665V89.6592H49.8213ZM51.7471 88.1152H55.665V82.1553H55.5322L51.7471 88.0156V88.1152ZM65.0615 92.166C62.2725 92.166 60.6455 89.9248 60.6455 85.9902C60.6455 82.0889 62.3057 79.8145 65.0615 79.8145C67.8174 79.8145 69.4775 82.0889 69.4775 85.9902C69.4775 89.9248 67.834 92.166 65.0615 92.166ZM65.0615 90.5889C66.6885 90.5889 67.6514 88.9951 67.6514 85.9902C67.6514 83.002 66.6719 81.3584 65.0615 81.3584C63.4512 81.3584 62.4717 83.002 62.4717 85.9902C62.4717 88.9951 63.4346 90.5889 65.0615 90.5889ZM83.2568 78.5527V89.543H81.6797V84.4795H77.5957V83.2178H81.6797V81.6572H77.5957V80.3955H81.6797V78.5527H83.2568ZM83.6387 91.8174V93.0957H73.5615V88.5801H75.1553V91.8174H83.6387ZM73.2959 79.582V86.0898C75.2715 86.0898 77.1475 85.9653 79.2725 85.5752L79.4385 86.8701C77.0811 87.3184 75.0723 87.4014 72.8809 87.418H71.7354V79.582H73.2959Z" fill="white"/>
<path d="M95 341H540" stroke="white" stroke-linecap="square"/>
<path d="M95 239H540" stroke="#AEAEAE" stroke-dasharray="4 4"/>
<path d="M95 137H540" stroke="#AEAEAE" stroke-dasharray="4 4"/>
<path d="M95 86H540" stroke="#AEAEAE" stroke-dasharray="4 4"/>
<path d="M95 290H540" stroke="#AEAEAE" stroke-dasharray="4 4"/>
<path d="M95 188H540" stroke="#AEAEAE" stroke-dasharray="4 4"/>
<path d="M290.637 363.38V364.675H288.33V372.395H286.752V357.536H288.33V363.38H290.637ZM278.867 358.98V367.348C280.942 367.348 283.108 367.173 285.474 366.684L285.657 368.012C283.117 368.526 280.759 368.659 278.535 368.659H277.306V358.98H278.867ZM295.651 358.034C297.892 358.051 299.536 359.429 299.552 361.371C299.536 363.33 297.892 364.691 295.651 364.691C293.393 364.691 291.733 363.33 291.733 361.371C291.733 359.429 293.393 358.051 295.651 358.034ZM295.651 359.362C294.273 359.346 293.26 360.159 293.277 361.371C293.26 362.6 294.273 363.413 295.651 363.413C297.012 363.413 298.025 362.6 298.025 361.371C298.025 360.159 297.012 359.346 295.651 359.362ZM303.769 357.536V365.106H302.192V357.536H303.769ZM303.769 365.787V369.539H295.568V370.967H304.267V372.229H294.041V368.36H302.208V367.049H293.991V365.787H303.769ZM319.723 365.937V367.231H306.11V365.937H312.136V364.459H307.853V360.657H316.436V359.213H307.82V357.968H318.013V361.803H309.414V363.247H318.312V364.459H313.697V365.937H319.723ZM318.329 371.05V372.328H307.886V368.145H309.463V371.05H318.329ZM329.817 358.599C332.174 358.582 333.851 360.043 333.868 362.135C333.851 364.227 332.174 365.688 329.817 365.688C327.476 365.688 325.75 364.227 325.766 362.135C325.75 360.043 327.476 358.582 329.817 358.599ZM329.817 359.96C328.373 359.96 327.31 360.823 327.327 362.135C327.31 363.446 328.373 364.31 329.817 364.31C331.261 364.31 332.324 363.446 332.324 362.135C332.324 360.823 331.261 359.96 329.817 359.96ZM337.271 357.536V372.444H335.694V357.536H337.271ZM325.052 367.929C327.758 367.929 331.51 367.896 334.764 367.431L334.88 368.576C331.51 369.224 327.908 369.24 325.251 369.24L325.052 367.929ZM353.258 366.368V367.613H349.838V372.411H348.245V367.613H344.659V372.411H343.082V367.613H339.645V366.368H353.258ZM351.648 358.067V362.052H342.882V363.695H351.963V364.974H341.305V360.873H350.038V359.362H341.255V358.067H351.648Z" fill="white"/>
<rect x="277" y="86" width="78" height="255" fill="#5B5B5B"/>
<rect x="277" y="137" width="78" height="205" fill="#FF6633"/>
<path d="M279.689 71.24C278.716 71.24 277.749 71.1133 276.789 70.86C275.829 70.5933 275.016 70.22 274.349 69.74L275.609 67.26C276.142 67.6467 276.762 67.9533 277.469 68.18C278.176 68.4067 278.889 68.52 279.609 68.52C280.422 68.52 281.062 68.36 281.529 68.04C281.996 67.72 282.229 67.28 282.229 66.72C282.229 66.1867 282.022 65.7667 281.609 65.46C281.196 65.1533 280.529 65 279.609 65H278.129V62.86L282.029 58.44L282.389 59.6H275.049V57H284.849V59.1L280.969 63.52L279.329 62.58H280.269C281.989 62.58 283.289 62.9667 284.169 63.74C285.049 64.5133 285.489 65.5067 285.489 66.72C285.489 67.5067 285.282 68.2467 284.869 68.94C284.456 69.62 283.822 70.1733 282.969 70.6C282.116 71.0267 281.022 71.24 279.689 71.24ZM292.985 71.24C291.838 71.24 290.812 70.96 289.905 70.4C288.998 69.8267 288.285 69 287.765 67.92C287.245 66.84 286.985 65.5333 286.985 64C286.985 62.4667 287.245 61.16 287.765 60.08C288.285 59 288.998 58.18 289.905 57.62C290.812 57.0467 291.838 56.76 292.985 56.76C294.145 56.76 295.172 57.0467 296.065 57.62C296.972 58.18 297.685 59 298.205 60.08C298.725 61.16 298.985 62.4667 298.985 64C298.985 65.5333 298.725 66.84 298.205 67.92C297.685 69 296.972 69.8267 296.065 70.4C295.172 70.96 294.145 71.24 292.985 71.24ZM292.985 68.5C293.532 68.5 294.005 68.3467 294.405 68.04C294.818 67.7333 295.138 67.2467 295.365 66.58C295.605 65.9133 295.725 65.0533 295.725 64C295.725 62.9467 295.605 62.0867 295.365 61.42C295.138 60.7533 294.818 60.2667 294.405 59.96C294.005 59.6533 293.532 59.5 292.985 59.5C292.452 59.5 291.978 59.6533 291.565 59.96C291.165 60.2667 290.845 60.7533 290.605 61.42C290.378 62.0867 290.265 62.9467 290.265 64C290.265 65.0533 290.378 65.9133 290.605 66.58C290.845 67.2467 291.165 67.7333 291.565 68.04C291.978 68.3467 292.452 68.5 292.985 68.5ZM307.838 65.98C307.371 65.98 306.958 65.8933 306.598 65.72C306.238 65.5467 305.911 65.3467 305.618 65.12C305.325 64.8933 305.051 64.6933 304.798 64.52C304.545 64.3333 304.285 64.24 304.018 64.24C303.658 64.24 303.365 64.38 303.138 64.66C302.925 64.94 302.805 65.32 302.778 65.8H300.838C300.865 64.5333 301.151 63.58 301.698 62.94C302.258 62.3 302.971 61.98 303.838 61.98C304.305 61.98 304.718 62.0733 305.078 62.26C305.438 62.4333 305.758 62.6333 306.038 62.86C306.331 63.0733 306.605 63.2733 306.858 63.46C307.111 63.6333 307.371 63.72 307.638 63.72C308.011 63.72 308.305 63.58 308.518 63.3C308.745 63.02 308.865 62.64 308.878 62.16H310.838C310.811 63.4133 310.518 64.3667 309.958 65.02C309.411 65.66 308.705 65.98 307.838 65.98ZM312.489 68.06V65.88L319.089 57H322.489L316.029 65.88L314.449 65.42H325.469V68.06H312.489ZM320.029 71V68.06L320.129 65.42V62.8H323.189V71H320.029ZM332.438 71.24C331.292 71.24 330.265 70.96 329.358 70.4C328.452 69.8267 327.738 69 327.218 67.92C326.698 66.84 326.438 65.5333 326.438 64C326.438 62.4667 326.698 61.16 327.218 60.08C327.738 59 328.452 58.18 329.358 57.62C330.265 57.0467 331.292 56.76 332.438 56.76C333.598 56.76 334.625 57.0467 335.518 57.62C336.425 58.18 337.138 59 337.658 60.08C338.178 61.16 338.438 62.4667 338.438 64C338.438 65.5333 338.178 66.84 337.658 67.92C337.138 69 336.425 69.8267 335.518 70.4C334.625 70.96 333.598 71.24 332.438 71.24ZM332.438 68.5C332.985 68.5 333.458 68.3467 333.858 68.04C334.272 67.7333 334.592 67.2467 334.818 66.58C335.058 65.9133 335.178 65.0533 335.178 64C335.178 62.9467 335.058 62.0867 334.818 61.42C334.592 60.7533 334.272 60.2667 333.858 59.96C333.458 59.6533 332.985 59.5 332.438 59.5C331.905 59.5 331.432 59.6533 331.018 59.96C330.618 60.2667 330.298 60.7533 330.058 61.42C329.832 62.0867 329.718 62.9467 329.718 64C329.718 65.0533 329.832 65.9133 330.058 66.58C330.298 67.2467 330.618 67.7333 331.018 68.04C331.432 68.3467 331.905 68.5 332.438 68.5ZM352.872 54.24H355.552V67.86H352.872V54.24ZM348.392 56.32H353.772V58.4H348.392V56.32ZM343.312 70.32H355.952V72.46H343.312V70.32ZM343.312 66.66H345.972V71.42H343.312V66.66ZM341.052 55.42H343.692V64.12H341.052V55.42ZM341.052 63.32H342.532C343.879 63.32 345.166 63.28 346.392 63.2C347.632 63.12 348.912 62.9667 350.232 62.74L350.492 64.9C349.132 65.14 347.812 65.3 346.532 65.38C345.252 65.46 343.919 65.5 342.532 65.5H341.052V63.32ZM348.392 59.76H353.772V61.86H348.392V59.76Z" fill="#FF6633"/>
<path d="M461.176 357.536V363.463H463.483V364.774H461.176V372.395H459.599V357.536H461.176ZM457.291 359.097C457.274 363.396 455.382 367.231 450.484 369.655L449.604 368.427C453.332 366.567 455.357 363.878 455.681 360.408H450.352V359.097H457.291ZM476.632 358.117V359.396H472.116C472.274 360.873 474.407 362.11 477.146 362.4L476.565 363.646C474 363.347 471.875 362.259 471.07 360.674C470.24 362.259 468.124 363.347 465.559 363.646L464.994 362.4C467.708 362.11 469.833 360.865 470.008 359.396H465.525V358.117H476.632ZM477.877 364.492V365.771H471.834V367.547H476.184V372.411H474.59V368.825H465.791V367.547H470.273V365.771H464.28V364.492H477.877ZM495.458 357.553V368.443H493.881V357.553H495.458ZM495.906 370.817V372.096H485.729V367.414H487.323V370.817H495.906ZM488.535 359.844C488.519 362.019 489.913 364.011 492.204 364.808L491.391 366.069C489.672 365.43 488.402 364.168 487.738 362.55C487.083 364.276 485.796 365.663 484.053 366.335L483.206 365.09C485.547 364.227 486.925 362.085 486.925 359.844V358.366H488.535V359.844ZM499.94 358.167V360.192H503.842V358.167H505.402V364.658H498.396V358.167H499.94ZM499.94 363.396H503.842V361.404H499.94V363.396ZM509.503 357.536V360.657H511.661V361.936H509.503V365.189H507.926V357.536H509.503ZM509.503 365.837V369.589H501.468V371H510.018V372.262H499.924V368.427H507.942V367.082H499.891V365.837H509.503Z" fill="white"/>
<rect x="443" y="86" width="78" height="255" fill="#5B5B5B"/>
<rect x="442" y="162" width="78" height="180" fill="#FF6633"/>
<path d="M440.918 71V68.9L446.318 63.8C446.744 63.4133 447.058 63.0667 447.258 62.76C447.458 62.4533 447.591 62.1733 447.658 61.92C447.738 61.6667 447.778 61.4333 447.778 61.22C447.778 60.66 447.584 60.2333 447.198 59.94C446.824 59.6333 446.271 59.48 445.538 59.48C444.951 59.48 444.404 59.5933 443.898 59.82C443.404 60.0467 442.984 60.4 442.638 60.88L440.278 59.36C440.811 58.56 441.558 57.9267 442.518 57.46C443.478 56.9933 444.584 56.76 445.838 56.76C446.878 56.76 447.784 56.9333 448.558 57.28C449.344 57.6133 449.951 58.0867 450.378 58.7C450.818 59.3133 451.038 60.0467 451.038 60.9C451.038 61.3533 450.978 61.8067 450.858 62.26C450.751 62.7 450.524 63.1667 450.178 63.66C449.844 64.1533 449.351 64.7067 448.698 65.32L444.218 69.54L443.598 68.36H451.498V71H440.918ZM457.595 71.24C456.621 71.24 455.655 71.1133 454.695 70.86C453.748 70.5933 452.935 70.22 452.255 69.74L453.535 67.26C454.068 67.6467 454.681 67.9533 455.375 68.18C456.081 68.4067 456.795 68.52 457.515 68.52C458.328 68.52 458.968 68.36 459.435 68.04C459.901 67.72 460.135 67.2733 460.135 66.7C460.135 66.34 460.041 66.02 459.855 65.74C459.668 65.46 459.335 65.2467 458.855 65.1C458.388 64.9533 457.728 64.88 456.875 64.88H453.295L454.015 57H462.555V59.6H455.175L456.855 58.12L456.355 63.74L454.675 62.26H457.635C459.021 62.26 460.135 62.4533 460.975 62.84C461.828 63.2133 462.448 63.7267 462.835 64.38C463.221 65.0333 463.415 65.7733 463.415 66.6C463.415 67.4267 463.208 68.1933 462.795 68.9C462.381 69.5933 461.741 70.16 460.875 70.6C460.021 71.0267 458.928 71.24 457.595 71.24ZM471.949 65.98C471.483 65.98 471.069 65.8933 470.709 65.72C470.349 65.5467 470.023 65.3467 469.729 65.12C469.436 64.8933 469.163 64.6933 468.909 64.52C468.656 64.3333 468.396 64.24 468.129 64.24C467.769 64.24 467.476 64.38 467.249 64.66C467.036 64.94 466.916 65.32 466.889 65.8H464.949C464.976 64.5333 465.263 63.58 465.809 62.94C466.369 62.3 467.083 61.98 467.949 61.98C468.416 61.98 468.829 62.0733 469.189 62.26C469.549 62.4333 469.869 62.6333 470.149 62.86C470.443 63.0733 470.716 63.2733 470.969 63.46C471.223 63.6333 471.483 63.72 471.749 63.72C472.123 63.72 472.416 63.58 472.629 63.3C472.856 63.02 472.976 62.64 472.989 62.16H474.949C474.923 63.4133 474.629 64.3667 474.069 65.02C473.523 65.66 472.816 65.98 471.949 65.98ZM476.6 68.06V65.88L483.2 57H486.6L480.14 65.88L478.56 65.42H489.58V68.06H476.6ZM484.14 71V68.06L484.24 65.42V62.8H487.3V71H484.14ZM496.55 71.24C495.403 71.24 494.376 70.96 493.47 70.4C492.563 69.8267 491.85 69 491.33 67.92C490.81 66.84 490.55 65.5333 490.55 64C490.55 62.4667 490.81 61.16 491.33 60.08C491.85 59 492.563 58.18 493.47 57.62C494.376 57.0467 495.403 56.76 496.55 56.76C497.71 56.76 498.736 57.0467 499.63 57.62C500.536 58.18 501.25 59 501.77 60.08C502.29 61.16 502.55 62.4667 502.55 64C502.55 65.5333 502.29 66.84 501.77 67.92C501.25 69 500.536 69.8267 499.63 70.4C498.736 70.96 497.71 71.24 496.55 71.24ZM496.55 68.5C497.096 68.5 497.57 68.3467 497.97 68.04C498.383 67.7333 498.703 67.2467 498.93 66.58C499.17 65.9133 499.29 65.0533 499.29 64C499.29 62.9467 499.17 62.0867 498.93 61.42C498.703 60.7533 498.383 60.2667 497.97 59.96C497.57 59.6533 497.096 59.5 496.55 59.5C496.016 59.5 495.543 59.6533 495.13 59.96C494.73 60.2667 494.41 60.7533 494.17 61.42C493.943 62.0867 493.83 62.9467 493.83 64C493.83 65.0533 493.943 65.9133 494.17 66.58C494.41 67.2467 494.73 67.7333 495.13 68.04C495.543 68.3467 496.016 68.5 496.55 68.5ZM516.984 54.24H519.664V67.86H516.984V54.24ZM512.504 56.32H517.884V58.4H512.504V56.32ZM507.424 70.32H520.064V72.46H507.424V70.32ZM507.424 66.66H510.084V71.42H507.424V66.66ZM505.164 55.42H507.804V64.12H505.164V55.42ZM505.164 63.32H506.644C507.99 63.32 509.277 63.28 510.504 63.2C511.744 63.12 513.024 62.9667 514.344 62.74L514.604 64.9C513.244 65.14 511.924 65.3 510.644 65.38C509.364 65.46 508.03 65.5 506.644 65.5H505.164V63.32ZM512.504 59.76H517.884V61.86H512.504V59.76Z" fill="#FF6633"/>
<path d="M132.25 358.798V360.06H135.487V357.553H137.064V368.394H135.487V364.542H132.25V365.837H125.344V358.798H132.25ZM126.904 360.076V364.592H130.706V360.076H126.904ZM137.396 370.817V372.096H127.353V367.397H128.946V370.817H137.396ZM132.25 363.247H135.487V361.354H132.25V363.247ZM147.623 358.848V360.143H141.829V363.015H147.059V364.276H141.829V367.613C144.436 367.605 146.312 367.497 148.52 367.148L148.686 368.427C146.328 368.809 144.286 368.892 141.48 368.892H140.269V358.848H147.623ZM151.724 357.536V372.411H150.13V357.536H151.724ZM166.449 357.536V372.444H164.872V365.671H161.751V364.343H164.872V362.002H161.751V360.707H164.872V357.536H166.449ZM159.41 361.321C159.41 364.061 160.938 366.8 163.212 367.846L162.249 369.107C160.556 368.269 159.277 366.551 158.63 364.476C157.966 366.617 156.654 368.41 154.961 369.29L153.965 368.045C156.272 366.949 157.816 364.077 157.816 361.321V358.781H159.41V361.321ZM182.354 369.257V370.552H168.74V369.257H182.354ZM181.092 359.827V361.105H176.327C176.394 363.338 178.577 365.181 181.623 365.671L180.992 366.933C178.527 366.493 176.485 365.231 175.53 363.413C174.559 365.231 172.517 366.493 170.068 366.933L169.454 365.671C172.467 365.181 174.65 363.338 174.733 361.105H169.969V359.827H174.75V357.852H176.311V359.827H181.092Z" fill="white"/>
<path d="M135.274 304.24C133.994 304.24 132.881 303.973 131.934 303.44C131.001 302.907 130.281 302.127 129.774 301.1C129.268 300.073 129.014 298.807 129.014 297.3C129.014 295.687 129.314 294.32 129.914 293.2C130.528 292.08 131.368 291.227 132.434 290.64C133.514 290.053 134.754 289.76 136.154 289.76C136.901 289.76 137.614 289.84 138.294 290C138.974 290.16 139.561 290.4 140.054 290.72L138.854 293.1C138.468 292.833 138.054 292.653 137.614 292.56C137.174 292.453 136.714 292.4 136.234 292.4C135.021 292.4 134.061 292.767 133.354 293.5C132.648 294.233 132.294 295.32 132.294 296.76C132.294 297 132.294 297.267 132.294 297.56C132.308 297.853 132.348 298.147 132.414 298.44L131.514 297.6C131.768 297.08 132.094 296.647 132.494 296.3C132.894 295.94 133.368 295.673 133.914 295.5C134.474 295.313 135.088 295.22 135.754 295.22C136.661 295.22 137.474 295.4 138.194 295.76C138.914 296.12 139.488 296.627 139.914 297.28C140.354 297.933 140.574 298.7 140.574 299.58C140.574 300.527 140.334 301.353 139.854 302.06C139.388 302.753 138.754 303.293 137.954 303.68C137.168 304.053 136.274 304.24 135.274 304.24ZM135.094 301.82C135.548 301.82 135.948 301.74 136.294 301.58C136.654 301.407 136.934 301.16 137.134 300.84C137.334 300.52 137.434 300.153 137.434 299.74C137.434 299.1 137.214 298.593 136.774 298.22C136.348 297.833 135.774 297.64 135.054 297.64C134.574 297.64 134.154 297.733 133.794 297.92C133.434 298.093 133.148 298.34 132.934 298.66C132.734 298.967 132.634 299.327 132.634 299.74C132.634 300.14 132.734 300.5 132.934 300.82C133.134 301.127 133.414 301.373 133.774 301.56C134.134 301.733 134.574 301.82 135.094 301.82ZM155.109 287.24H157.629V305.76H155.109V287.24ZM152.749 294.22H155.829V296.36H152.749V294.22ZM147.229 289.52H149.789C149.789 290.827 149.675 292.067 149.449 293.24C149.235 294.413 148.875 295.527 148.369 296.58C147.862 297.62 147.175 298.593 146.309 299.5C145.455 300.393 144.382 301.22 143.089 301.98L141.549 300.12C142.949 299.293 144.062 298.387 144.889 297.4C145.729 296.4 146.329 295.3 146.689 294.1C147.049 292.887 147.229 291.54 147.229 290.06V289.52ZM142.469 289.52H148.009V291.64H142.469V289.52ZM150.989 287.72H153.489V304.96H150.989V287.72ZM164.647 294.76H167.307V297.98H164.647V294.76ZM173.107 287.24H175.767V297.96H173.107V287.24ZM160.467 295.6L160.187 293.76C161.374 293.76 162.634 293.753 163.967 293.74C165.301 293.727 166.654 293.693 168.027 293.64C169.401 293.587 170.734 293.5 172.027 293.38L172.167 295.02C170.834 295.207 169.487 295.34 168.127 295.42C166.767 295.5 165.441 295.553 164.147 295.58C162.854 295.593 161.627 295.6 160.467 295.6ZM162.827 298.54H175.767V302.88H165.487V304.34H162.847V301.2H173.147V300.34H162.827V298.54ZM162.847 303.82H176.207V305.66H162.847V303.82ZM169.847 295.82H173.927V297.42H169.847V295.82ZM166.067 287.52C166.987 287.52 167.794 287.633 168.487 287.86C169.181 288.087 169.721 288.407 170.107 288.82C170.494 289.233 170.687 289.727 170.687 290.3C170.687 290.86 170.494 291.347 170.107 291.76C169.721 292.173 169.181 292.493 168.487 292.72C167.794 292.947 166.987 293.06 166.067 293.06C165.147 293.06 164.334 292.947 163.627 292.72C162.934 292.493 162.394 292.173 162.007 291.76C161.621 291.347 161.427 290.86 161.427 290.3C161.427 289.727 161.621 289.233 162.007 288.82C162.394 288.407 162.934 288.087 163.627 287.86C164.334 287.633 165.147 287.52 166.067 287.52ZM166.067 289.26C165.414 289.26 164.887 289.347 164.487 289.52C164.101 289.693 163.907 289.953 163.907 290.3C163.907 290.633 164.101 290.887 164.487 291.06C164.887 291.233 165.414 291.32 166.067 291.32C166.734 291.32 167.254 291.233 167.627 291.06C168.014 290.887 168.207 290.633 168.207 290.3C168.207 289.953 168.014 289.693 167.627 289.52C167.254 289.347 166.734 289.26 166.067 289.26Z" fill="#FF6633"/>
<rect x="114" y="312" width="78" height="30" fill="#FF6633"/>
<path d="M172.185 10.6406C175.676 10.6162 178.24 12.8379 178.264 15.9629C178.24 19.1123 175.676 21.3096 172.185 21.3096C168.718 21.3096 166.13 19.1123 166.13 15.9629C166.13 12.8379 168.718 10.6162 172.185 10.6406ZM172.185 12.9844C170.256 12.9844 168.816 14.1318 168.816 15.9629C168.816 17.8184 170.256 18.9414 172.185 18.9414C174.138 18.9414 175.603 17.8184 175.603 15.9629C175.603 14.1318 174.138 12.9844 172.185 12.9844ZM183.416 9.10254V31.1973H180.706V9.10254H183.416ZM165.129 24.3613C169.109 24.3613 174.626 24.3125 179.387 23.6289L179.607 25.6064C174.651 26.5586 169.353 26.583 165.471 26.583L165.129 24.3613ZM206.78 22.1396V24.2637H201.921V31.1729H199.187V24.2637H194.231V31.1729H191.521V24.2637H186.614V22.1396H206.78ZM204.436 9.83496V16.0117H191.765V18.1113H204.924V20.3086H189.031V13.9854H201.653V12.0566H188.982V9.83496H204.436ZM234.343 26.2412V28.4385H214.177V26.2412H222.82V21.1387H225.505V26.2412H234.343ZM225.579 12.0566C225.579 15.4014 228.923 18.6973 233.562 19.4297L232.39 21.6758C228.655 20.9678 225.603 18.8315 224.138 15.9385C222.673 18.8193 219.646 20.9922 215.935 21.6758L214.763 19.4297C219.377 18.6973 222.673 15.377 222.698 12.0566V10.4453H225.579V12.0566ZM254.924 9.10254V31.1729H252.336V19.9912H250.066V30.0986H247.502V9.49316H250.066V17.7451H252.336V9.10254H254.924ZM242.644 14.7422C242.644 18.6729 243.962 22.2861 247.234 23.9707L245.647 26.0459C243.547 24.9229 242.168 22.9819 241.399 20.5771C240.642 23.3237 239.263 25.5332 237.078 26.8271L235.417 24.752C238.689 22.8965 240.007 19.0391 240.007 14.7422V13.6924H236.077V11.5195H246.257V13.6924H242.644V14.7422ZM275.872 9.10254V20.5039H273.162V18.1113H268.718V19.7959H258.391V10.0791H261.101V12.8623H266.033V10.0791H268.718V12.0322H273.162V9.10254H275.872ZM275.872 21.4072V27.0713H264.055V28.7559H276.58V30.9043H261.345V25.0693H273.162V23.5312H261.321V21.4072H275.872ZM261.101 17.6475H266.033V14.9375H261.101V17.6475ZM268.718 16.0361H273.162V14.083H268.718V16.0361ZM305.071 20.5283V22.7012H296.55V26.5098H293.865V22.7012H284.905V20.5283H305.071ZM302.849 28.5361V30.7334H287.346V24.6543H290.032V28.5361H302.849ZM290.227 9.81055V12.3008H299.749V9.81055H302.434V18.7949H287.542V9.81055H290.227ZM290.227 16.6465H299.749V14.3271H290.227V16.6465ZM317.302 12.6182V14.791H306.487V12.6182H310.588V9.7373H313.274V12.6182H317.302ZM311.931 15.9629C314.739 15.9629 316.741 18.0869 316.741 21.0898C316.741 24.1416 314.739 26.29 311.931 26.29C309.148 26.29 307.097 24.1416 307.122 21.0898C307.097 18.0869 309.148 15.9629 311.931 15.9629ZM311.931 18.209C310.491 18.209 309.49 19.3564 309.514 21.0898C309.49 22.8721 310.491 23.9951 311.931 23.9707C313.347 23.9951 314.348 22.8721 314.348 21.0898C314.348 19.3564 313.347 18.209 311.931 18.209ZM325.505 9.10254V31.1729H322.917V20.3818H320.769V30.1719H318.23V9.56641H320.769V18.1846H322.917V9.10254H325.505ZM342.424 14.4004C342.4 18.4531 344.524 22.5059 348.113 24.0439L346.501 26.2168C343.962 25.0449 342.095 22.7012 341.082 19.8203C340.068 22.9331 338.176 25.4722 335.491 26.7295L333.831 24.459C337.517 22.8721 339.666 18.6484 339.666 14.4004V10.8848H342.424V14.4004ZM352.434 9.10254V31.1973H349.7V9.10254H352.434ZM373.088 9.10254V15.4502H376.165V17.7207H373.088V25.0205H370.33V9.10254H373.088ZM367.083 10.7871C367.083 16.6465 363.274 20.8213 356.731 22.7256L355.608 20.5771C360.649 19.1245 363.652 16.3779 364.128 13.0088H356.536V10.7871H367.083ZM373.918 28.5361V30.7334H358.904V23.3848H361.663V28.5361H373.918ZM401.58 9.10254V31.1973H398.845V9.10254H401.58ZM387.102 10.9092V16.4268H392.449V10.9092H395.134V25.9971H384.392V10.9092H387.102ZM387.102 23.7754H392.449V18.5508H387.102V23.7754ZM422.917 11.1289V13.375C422.917 16.1094 422.917 19.0879 422.112 23.4092L419.451 23.1406C420.208 19.0635 420.208 16.0361 420.208 13.375V13.3018H406.853V11.1289H422.917ZM424.944 26.0947V28.3164H404.827V26.0947H409.343V19.0635H412.053V26.0947H414.861V19.0635H417.522V26.0947H424.944Z" fill="white"/>
</svg>
