<svg width="590" height="400" viewBox="0 0 590 400" fill="none" xmlns="http://www.w3.org/2000/svg">
<path d="M229.759 382.285V383.256H224.823V384.281H228.364V387.043H221.228V388.055H228.706V389.039H219.956V386.141H227.079V385.225H219.942V384.281H223.538V383.256H218.616V382.285H229.759ZM224.823 376.857V377.938H228.651V378.936H224.933C225.179 379.975 226.84 380.699 229.212 380.822L228.815 381.807C226.683 381.656 224.946 381.027 224.181 379.947C223.415 381.027 221.679 381.656 219.532 381.807L219.163 380.822C221.515 380.699 223.169 379.975 223.442 378.936H219.724V377.938H223.538V376.857H224.823ZM240.929 376.912V389.189H239.63V382.818H237.101V381.766H239.63V376.912H240.929ZM235.05 380.85C235.05 382.791 236.294 384.773 238.181 385.607L237.456 386.605C236.055 385.983 234.975 384.705 234.435 383.16C233.895 384.794 232.821 386.161 231.413 386.811L230.702 385.812C232.562 384.965 233.765 382.873 233.765 380.85V380.043H231.044V379.004H233.778V377.158H235.077V379.004H237.729V380.043H235.05V380.85ZM244.196 386.729C243.663 386.729 243.212 386.291 243.226 385.758C243.212 385.225 243.663 384.787 244.196 384.787C244.716 384.787 245.167 385.225 245.167 385.758C245.167 386.291 244.716 386.729 244.196 386.729ZM244.196 381.328C243.663 381.328 243.212 380.891 243.226 380.357C243.212 379.824 243.663 379.387 244.196 379.387C244.716 379.387 245.167 379.824 245.167 380.357C245.167 380.891 244.716 381.328 244.196 381.328ZM250.472 388V378.102H251.976V382.818H252.099L256.241 378.102H258.128L254.136 382.559L258.142 388H256.323L253.138 383.584L251.976 384.924V388H250.472ZM259.372 388V378.102H262.995C265.101 378.102 266.126 379.236 266.126 380.699C266.126 381.93 265.374 382.559 264.458 382.791V382.887C265.442 382.941 266.509 383.803 266.509 385.334C266.509 386.852 265.47 388 263.159 388H259.372ZM263.022 386.715C264.444 386.715 265.019 386.086 265.019 385.266C265.019 384.322 264.267 383.557 263.077 383.557H260.876V386.715H263.022ZM262.872 382.381C263.87 382.381 264.649 381.766 264.649 380.822C264.649 380.002 264.089 379.387 262.899 379.387H260.876V382.381H262.872ZM273.509 380.713C273.413 379.797 272.606 379.264 271.472 379.264C270.255 379.264 269.489 379.879 269.489 380.727C269.489 381.67 270.515 382.025 271.294 382.217L272.251 382.477C273.522 382.777 275.095 383.475 275.108 385.266C275.095 386.934 273.769 388.164 271.431 388.164C269.216 388.164 267.821 387.057 267.726 385.252H269.229C269.325 386.332 270.269 386.852 271.431 386.852C272.688 386.852 273.604 386.209 273.618 385.238C273.604 384.377 272.798 384.021 271.745 383.748L270.569 383.434C268.983 382.996 267.985 382.189 267.985 380.809C267.985 379.1 269.517 377.965 271.513 377.965C273.522 377.965 274.931 379.113 274.972 380.713H273.509ZM281.124 378.102V381.629H279.921V378.102H281.124ZM292.021 376.912V381.109H293.771V382.189H292.021V386.482H290.722V376.912H292.021ZM292.458 387.85V388.902H284.104V385.84H285.403V387.85H292.458ZM282.3 384.104C283.243 384.104 284.344 384.097 285.499 384.049V383.201C284.104 383.051 283.216 382.374 283.229 381.369C283.216 380.18 284.378 379.469 286.142 379.482C287.892 379.469 289.054 380.18 289.054 381.369C289.054 382.367 288.179 383.044 286.798 383.201V383.994C287.892 383.933 288.999 383.837 290.024 383.68L290.134 384.596C287.522 385.088 284.569 385.129 282.437 385.143L282.3 384.104ZM289.683 378.047V379.004H282.614V378.047H285.499V376.871H286.798V378.047H289.683ZM286.142 380.371C285.089 380.371 284.46 380.74 284.46 381.369C284.46 381.971 285.089 382.34 286.142 382.34C287.181 382.34 287.81 381.971 287.81 381.369C287.81 380.74 287.181 380.371 286.142 380.371ZM304.694 376.926V384.172H303.396V382.682H300.306V381.615H303.396V380.125H300.429C299.643 382.094 297.804 383.481 295.151 384.24L294.632 383.229C297.53 382.395 299.226 380.843 299.458 378.867H295.261V377.801H300.866C300.866 378.252 300.818 378.689 300.743 379.1H303.396V376.926H304.694ZM300.661 384.309C303.136 384.309 304.763 385.211 304.776 386.701C304.763 388.191 303.136 389.107 300.661 389.107C298.146 389.107 296.532 388.191 296.532 386.701C296.532 385.211 298.146 384.309 300.661 384.309ZM300.661 385.334C298.911 385.334 297.817 385.826 297.817 386.701C297.817 387.562 298.911 388.068 300.661 388.068C302.384 388.068 303.464 387.562 303.478 386.701C303.464 385.826 302.384 385.334 300.661 385.334ZM312.802 378.648C312.802 380.645 314.935 382.531 317.286 382.955L316.685 384.035C314.729 383.611 312.925 382.326 312.132 380.604C311.325 382.312 309.527 383.598 307.565 384.035L306.991 382.955C309.315 382.518 311.435 380.645 311.435 378.648V377.719H312.802V378.648ZM317.792 386.469V387.549H306.581V386.469H317.792ZM329.276 376.912V389.162H328.032V376.912H329.276ZM326.856 377.186V388.533H325.626V382.668H324.095V381.506H325.626V377.186H326.856ZM324.423 378.416V379.482H323.479V384.951C323.896 384.924 324.3 384.876 324.669 384.828L324.765 385.771C322.823 386.154 320.28 386.209 318.694 386.209L318.544 385.115L319.747 385.102V379.482H318.804V378.416H324.423ZM320.923 385.088C321.367 385.074 321.825 385.061 322.276 385.033V379.482H320.923V385.088ZM340.993 376.912V383.324H339.694V381.273H337.397V380.248H339.694V379.086H337.397V378.074H339.694V376.912H340.993ZM340.993 383.857V386.865H334.28V387.986H341.417V389.012H333.009V385.908H339.708V384.883H332.981V383.857H340.993ZM335.087 378.457C335.087 380.043 336.208 381.561 338.054 382.176L337.37 383.174C336.003 382.688 334.978 381.697 334.458 380.453C333.918 381.793 332.858 382.866 331.437 383.379L330.753 382.367C332.64 381.738 333.788 380.139 333.802 378.457V377.227H335.087V378.457ZM344.425 378.102V381.629H343.222V378.102H344.425ZM354.774 384.541C357.304 384.541 358.835 385.389 358.835 386.838C358.835 388.301 357.304 389.148 354.774 389.162C352.218 389.148 350.659 388.301 350.659 386.838C350.659 385.389 352.218 384.541 354.774 384.541ZM354.774 385.566C352.997 385.566 351.944 386.018 351.958 386.838C351.944 387.658 352.997 388.123 354.774 388.123C356.538 388.123 357.563 387.658 357.563 386.838C357.563 386.018 356.538 385.566 354.774 385.566ZM358.726 376.912V379.906H360.503V381.014H358.726V384.227H357.427V376.912H358.726ZM350.851 377.678V379.441H354.063V377.678H355.349V383.365H349.579V377.678H350.851ZM350.851 382.326H354.063V380.467H350.851V382.326ZM367.421 381.205V382.914H372.37V383.967H361.2V382.914H366.136V381.205H367.421ZM367.435 377.623C367.435 379.182 369.349 380.549 371.714 380.85L371.208 381.875C369.26 381.567 367.544 380.617 366.778 379.264C365.992 380.617 364.276 381.567 362.321 381.875L361.843 380.85C364.194 380.549 366.108 379.168 366.122 377.623V377.104H367.435V377.623ZM366.778 384.869C369.431 384.869 371.003 385.635 371.003 387.016C371.003 388.383 369.431 389.148 366.778 389.135C364.112 389.148 362.526 388.383 362.526 387.016C362.526 385.635 364.112 384.869 366.778 384.869ZM366.778 385.867C364.892 385.867 363.839 386.264 363.839 387.016C363.839 387.754 364.892 388.15 366.778 388.15C368.638 388.15 369.704 387.754 369.704 387.016C369.704 386.264 368.638 385.867 366.778 385.867Z" fill="white"/>
<path d="M60.0234 261.98V274H58.1807V263.807H58.1143L55.2422 265.683V263.939L58.2305 261.98H60.0234ZM67.2617 274.166C64.4727 274.166 62.8457 271.925 62.8457 267.99C62.8457 264.089 64.5059 261.814 67.2617 261.814C70.0176 261.814 71.6777 264.089 71.6777 267.99C71.6777 271.925 70.0342 274.166 67.2617 274.166ZM67.2617 272.589C68.8887 272.589 69.8516 270.995 69.8516 267.99C69.8516 265.002 68.8721 263.358 67.2617 263.358C65.6514 263.358 64.6719 265.002 64.6719 267.99C64.6719 270.995 65.6348 272.589 67.2617 272.589ZM77.7539 274.166C74.9648 274.166 73.3379 271.925 73.3379 267.99C73.3379 264.089 74.998 261.814 77.7539 261.814C80.5098 261.814 82.1699 264.089 82.1699 267.99C82.1699 271.925 80.5264 274.166 77.7539 274.166ZM77.7539 272.589C79.3809 272.589 80.3438 270.995 80.3438 267.99C80.3438 265.002 79.3643 263.358 77.7539 263.358C76.1436 263.358 75.1641 265.002 75.1641 267.99C75.1641 270.995 76.127 272.589 77.7539 272.589Z" fill="white"/>
<path d="M56.8525 172.166C54.5781 172.166 52.8682 170.771 52.7852 168.862H54.5615C54.6611 169.892 55.6406 170.639 56.8525 170.639C58.3135 170.639 59.3594 169.576 59.3594 168.148C59.3594 166.688 58.2803 165.625 56.7695 165.608C55.8066 165.608 55.0762 165.924 54.6611 166.671H52.9346L53.7148 159.98H60.5215V161.541H55.2256L54.8271 164.911H54.9434C55.4414 164.43 56.2881 164.098 57.2012 164.098C59.459 164.098 61.1357 165.774 61.1357 168.099C61.1357 170.473 59.3594 172.166 56.8525 172.166ZM67.2617 172.166C64.4727 172.166 62.8457 169.925 62.8457 165.99C62.8457 162.089 64.5059 159.814 67.2617 159.814C70.0176 159.814 71.6777 162.089 71.6777 165.99C71.6777 169.925 70.0342 172.166 67.2617 172.166ZM67.2617 170.589C68.8887 170.589 69.8516 168.995 69.8516 165.99C69.8516 163.002 68.8721 161.358 67.2617 161.358C65.6514 161.358 64.6719 163.002 64.6719 165.99C64.6719 168.995 65.6348 170.589 67.2617 170.589ZM77.7539 172.166C74.9648 172.166 73.3379 169.925 73.3379 165.99C73.3379 162.089 74.998 159.814 77.7539 159.814C80.5098 159.814 82.1699 162.089 82.1699 165.99C82.1699 169.925 80.5264 172.166 77.7539 172.166ZM77.7539 170.589C79.3809 170.589 80.3438 168.995 80.3438 165.99C80.3438 163.002 79.3643 161.358 77.7539 161.358C76.1436 161.358 75.1641 163.002 75.1641 165.99C75.1641 168.995 76.127 170.589 77.7539 170.589Z" fill="white"/>
<path d="M56.7363 223.166C54.2461 223.166 52.4697 221.821 52.4033 219.862H54.2627C54.3291 220.925 55.375 221.589 56.7197 221.589C58.1641 221.589 59.2266 220.792 59.2266 219.63C59.2266 218.451 58.2305 217.588 56.5205 217.588H55.4912V216.094H56.5205C57.8818 216.094 58.8447 215.33 58.8447 214.185C58.8447 213.089 58.0312 212.342 56.7529 212.342C55.541 212.342 54.4785 213.006 54.4287 214.102H52.6689C52.7188 212.143 54.5283 210.814 56.7695 210.814C59.127 210.814 60.6211 212.309 60.6045 214.085C60.6211 215.446 59.7744 216.442 58.4795 216.758V216.841C60.123 217.073 61.0693 218.169 61.0693 219.696C61.0693 221.705 59.2266 223.166 56.7363 223.166ZM67.2617 223.166C64.4727 223.166 62.8457 220.925 62.8457 216.99C62.8457 213.089 64.5059 210.814 67.2617 210.814C70.0176 210.814 71.6777 213.089 71.6777 216.99C71.6777 220.925 70.0342 223.166 67.2617 223.166ZM67.2617 221.589C68.8887 221.589 69.8516 219.995 69.8516 216.99C69.8516 214.002 68.8721 212.358 67.2617 212.358C65.6514 212.358 64.6719 214.002 64.6719 216.99C64.6719 219.995 65.6348 221.589 67.2617 221.589ZM77.7539 223.166C74.9648 223.166 73.3379 220.925 73.3379 216.99C73.3379 213.089 74.998 210.814 77.7539 210.814C80.5098 210.814 82.1699 213.089 82.1699 216.99C82.1699 220.925 80.5264 223.166 77.7539 223.166ZM77.7539 221.589C79.3809 221.589 80.3438 219.995 80.3438 216.99C80.3438 214.002 79.3643 212.358 77.7539 212.358C76.1436 212.358 75.1641 214.002 75.1641 216.99C75.1641 219.995 76.127 221.589 77.7539 221.589Z" fill="white"/>
<path d="M54.2461 121L59.6084 110.641V110.541H53.416V108.98H61.501V110.607L56.1553 121H54.2461ZM67.2617 121.166C64.4727 121.166 62.8457 118.925 62.8457 114.99C62.8457 111.089 64.5059 108.814 67.2617 108.814C70.0176 108.814 71.6777 111.089 71.6777 114.99C71.6777 118.925 70.0342 121.166 67.2617 121.166ZM67.2617 119.589C68.8887 119.589 69.8516 117.995 69.8516 114.99C69.8516 112.002 68.8721 110.358 67.2617 110.358C65.6514 110.358 64.6719 112.002 64.6719 114.99C64.6719 117.995 65.6348 119.589 67.2617 119.589ZM77.7539 121.166C74.9648 121.166 73.3379 118.925 73.3379 114.99C73.3379 111.089 74.998 108.814 77.7539 108.814C80.5098 108.814 82.1699 111.089 82.1699 114.99C82.1699 118.925 80.5264 121.166 77.7539 121.166ZM77.7539 119.589C79.3809 119.589 80.3438 117.995 80.3438 114.99C80.3438 112.002 79.3643 110.358 77.7539 110.358C76.1436 110.358 75.1641 112.002 75.1641 114.99C75.1641 117.995 76.127 119.589 77.7539 119.589Z" fill="white"/>
<path d="M93 217H538" stroke="#AEAEAE" stroke-dasharray="4 4"/>
<path d="M93 115H538" stroke="#AEAEAE" stroke-dasharray="4 4"/>
<path d="M93 268H538" stroke="#AEAEAE" stroke-dasharray="4 4"/>
<path d="M93 166H538" stroke="#AEAEAE" stroke-dasharray="4 4"/>
<path d="M93 319H538" stroke="white" stroke-linecap="square"/>
<path d="M135.658 336.964V346.742H128.686V336.964H135.658ZM130.246 338.209V345.464H134.131V338.209H130.246ZM140.174 335.536V350.444H138.597V335.536H140.174ZM154.435 336.233V337.346C154.435 338.441 154.435 339.753 154.103 341.479H156.161V342.758H150.118V345.298H154.501V350.411H152.924V346.56H143.942V345.298H148.541V342.758H142.548V341.479H152.509C152.857 339.819 152.874 338.574 152.874 337.512H144.258V336.233H154.435Z" fill="white"/>
<path d="M126.133 98L131.773 85.24L132.613 86.64H125.073L126.513 85.12V88.92H123.633V84H134.853V86.1L129.653 98H126.133ZM136.176 98V95.9L141.576 90.8C142.002 90.4133 142.316 90.0667 142.516 89.76C142.716 89.4533 142.849 89.1733 142.916 88.92C142.996 88.6667 143.036 88.4333 143.036 88.22C143.036 87.66 142.842 87.2333 142.456 86.94C142.082 86.6333 141.529 86.48 140.796 86.48C140.209 86.48 139.662 86.5933 139.156 86.82C138.662 87.0467 138.242 87.4 137.896 87.88L135.536 86.36C136.069 85.56 136.816 84.9267 137.776 84.46C138.736 83.9933 139.842 83.76 141.096 83.76C142.136 83.76 143.042 83.9333 143.816 84.28C144.602 84.6133 145.209 85.0867 145.636 85.7C146.076 86.3133 146.296 87.0467 146.296 87.9C146.296 88.3533 146.236 88.8067 146.116 89.26C146.009 89.7 145.782 90.1667 145.436 90.66C145.102 91.1533 144.609 91.7067 143.956 92.32L139.476 96.54L138.856 95.36H146.756V98H136.176ZM154.093 98.24C152.946 98.24 151.919 97.96 151.013 97.4C150.106 96.8267 149.393 96 148.873 94.92C148.353 93.84 148.093 92.5333 148.093 91C148.093 89.4667 148.353 88.16 148.873 87.08C149.393 86 150.106 85.18 151.013 84.62C151.919 84.0467 152.946 83.76 154.093 83.76C155.253 83.76 156.279 84.0467 157.173 84.62C158.079 85.18 158.793 86 159.313 87.08C159.833 88.16 160.093 89.4667 160.093 91C160.093 92.5333 159.833 93.84 159.313 94.92C158.793 96 158.079 96.8267 157.173 97.4C156.279 97.96 155.253 98.24 154.093 98.24ZM154.093 95.5C154.639 95.5 155.113 95.3467 155.513 95.04C155.926 94.7333 156.246 94.2467 156.473 93.58C156.713 92.9133 156.833 92.0533 156.833 91C156.833 89.9467 156.713 89.0867 156.473 88.42C156.246 87.7533 155.926 87.2667 155.513 86.96C155.113 86.6533 154.639 86.5 154.093 86.5C153.559 86.5 153.086 86.6533 152.673 86.96C152.273 87.2667 151.953 87.7533 151.713 88.42C151.486 89.0867 151.373 89.9467 151.373 91C151.373 92.0533 151.486 92.9133 151.713 93.58C151.953 94.2467 152.273 94.7333 152.673 95.04C153.086 95.3467 153.559 95.5 154.093 95.5Z" fill="#5B5B5B"/>
<rect x="112" y="106" width="60" height="214" fill="#5B5B5B"/>
<path d="M214.973 336.399C216.209 336.391 217.264 336.856 217.961 337.628H221.68V335.536H223.257V344.318H221.68V342.31H217.944C217.255 343.073 216.201 343.53 214.973 343.521C212.731 343.538 211.071 342.044 211.071 339.969C211.071 337.877 212.731 336.383 214.973 336.399ZM214.973 337.761C213.578 337.744 212.582 338.641 212.582 339.969C212.582 341.264 213.578 342.193 214.973 342.177C216.334 342.193 217.33 341.264 217.33 339.969C217.33 338.641 216.334 337.744 214.973 337.761ZM218.276 344.65C221.364 344.65 223.307 345.696 223.307 347.522C223.307 349.332 221.364 350.395 218.276 350.378C215.172 350.395 213.229 349.332 213.246 347.522C213.229 345.696 215.172 344.65 218.276 344.65ZM218.276 345.862C216.102 345.862 214.773 346.46 214.79 347.522C214.773 348.552 216.102 349.133 218.276 349.133C220.468 349.133 221.763 348.552 221.763 347.522C221.763 346.46 220.468 345.862 218.276 345.862ZM218.675 338.89C218.783 339.222 218.841 339.587 218.841 339.969C218.841 340.334 218.783 340.691 218.691 341.015H221.68V338.89H218.675ZM237.435 336.233V337.346C237.435 338.441 237.435 339.753 237.103 341.479H239.161V342.758H233.118V345.298H237.501V350.411H235.924V346.56H226.942V345.298H231.541V342.758H225.548V341.479H235.509C235.857 339.819 235.874 338.574 235.874 337.512H227.258V336.233H237.435Z" fill="white"/>
<path d="M206.02 158.06V155.88L212.62 147H216.02L209.56 155.88L207.98 155.42H219V158.06H206.02ZM213.56 161V158.06L213.66 155.42V152.8H216.72V161H213.56ZM224.831 146.76C226.124 146.76 227.238 147.027 228.171 147.56C229.104 148.093 229.824 148.873 230.331 149.9C230.838 150.913 231.091 152.18 231.091 153.7C231.091 155.313 230.784 156.68 230.171 157.8C229.571 158.92 228.738 159.773 227.671 160.36C226.604 160.947 225.364 161.24 223.951 161.24C223.218 161.24 222.511 161.16 221.831 161C221.151 160.84 220.564 160.6 220.071 160.28L221.271 157.9C221.658 158.167 222.071 158.353 222.511 158.46C222.951 158.553 223.411 158.6 223.891 158.6C225.091 158.6 226.044 158.233 226.751 157.5C227.471 156.767 227.831 155.68 227.831 154.24C227.831 154 227.824 153.733 227.811 153.44C227.798 153.147 227.764 152.853 227.711 152.56L228.591 153.4C228.364 153.92 228.044 154.36 227.631 154.72C227.218 155.067 226.738 155.333 226.191 155.52C225.644 155.693 225.031 155.78 224.351 155.78C223.458 155.78 222.644 155.6 221.911 155.24C221.191 154.88 220.611 154.373 220.171 153.72C219.744 153.067 219.531 152.3 219.531 151.42C219.531 150.46 219.764 149.633 220.231 148.94C220.711 148.247 221.351 147.713 222.151 147.34C222.964 146.953 223.858 146.76 224.831 146.76ZM225.031 149.18C224.564 149.18 224.158 149.267 223.811 149.44C223.464 149.6 223.191 149.84 222.991 150.16C222.791 150.467 222.691 150.833 222.691 151.26C222.691 151.9 222.904 152.413 223.331 152.8C223.771 153.173 224.351 153.36 225.071 153.36C225.538 153.36 225.951 153.273 226.311 153.1C226.684 152.913 226.971 152.66 227.171 152.34C227.371 152.02 227.471 151.66 227.471 151.26C227.471 150.86 227.371 150.507 227.171 150.2C226.984 149.88 226.711 149.633 226.351 149.46C225.991 149.273 225.551 149.18 225.031 149.18ZM238.905 161.24C237.625 161.24 236.512 160.973 235.565 160.44C234.632 159.907 233.912 159.127 233.405 158.1C232.899 157.073 232.645 155.807 232.645 154.3C232.645 152.687 232.945 151.32 233.545 150.2C234.159 149.08 234.999 148.227 236.065 147.64C237.145 147.053 238.385 146.76 239.785 146.76C240.532 146.76 241.245 146.84 241.925 147C242.605 147.16 243.192 147.4 243.685 147.72L242.485 150.1C242.099 149.833 241.685 149.653 241.245 149.56C240.805 149.453 240.345 149.4 239.865 149.4C238.652 149.4 237.692 149.767 236.985 150.5C236.279 151.233 235.925 152.32 235.925 153.76C235.925 154 235.925 154.267 235.925 154.56C235.939 154.853 235.979 155.147 236.045 155.44L235.145 154.6C235.399 154.08 235.725 153.647 236.125 153.3C236.525 152.94 236.999 152.673 237.545 152.5C238.105 152.313 238.719 152.22 239.385 152.22C240.292 152.22 241.105 152.4 241.825 152.76C242.545 153.12 243.119 153.627 243.545 154.28C243.985 154.933 244.205 155.7 244.205 156.58C244.205 157.527 243.965 158.353 243.485 159.06C243.019 159.753 242.385 160.293 241.585 160.68C240.799 161.053 239.905 161.24 238.905 161.24ZM238.725 158.82C239.179 158.82 239.579 158.74 239.925 158.58C240.285 158.407 240.565 158.16 240.765 157.84C240.965 157.52 241.065 157.153 241.065 156.74C241.065 156.1 240.845 155.593 240.405 155.22C239.979 154.833 239.405 154.64 238.685 154.64C238.205 154.64 237.785 154.733 237.425 154.92C237.065 155.093 236.779 155.34 236.565 155.66C236.365 155.967 236.265 156.327 236.265 156.74C236.265 157.14 236.365 157.5 236.565 157.82C236.765 158.127 237.045 158.373 237.405 158.56C237.765 158.733 238.205 158.82 238.725 158.82Z" fill="#5B5B5B"/>
<rect x="195" y="169" width="60" height="150" fill="#5B5B5B"/>
<path d="M310.419 342.874V344.152H296.855V342.874H302.849V341.247H298.549V336.134H308.759V337.396H300.126V339.952H308.908V341.247H304.426V342.874H310.419ZM308.775 345.464V350.494H307.215V346.742H298.366V345.464H308.775ZM315.765 336.034C318.006 336.051 319.649 337.429 319.666 339.371C319.649 341.33 318.006 342.691 315.765 342.691C313.507 342.691 311.847 341.33 311.847 339.371C311.847 337.429 313.507 336.051 315.765 336.034ZM315.765 337.362C314.387 337.346 313.374 338.159 313.391 339.371C313.374 340.6 314.387 341.413 315.765 341.413C317.126 341.413 318.139 340.6 318.139 339.371C318.139 338.159 317.126 337.346 315.765 337.362ZM323.883 335.536V343.106H322.306V335.536H323.883ZM323.883 343.787V347.539H315.682V348.967H324.381V350.229H314.154V346.36H322.322V345.049H314.104V343.787H323.883Z" fill="white"/>
<path d="M297.912 189.24C296.938 189.24 295.972 189.113 295.012 188.86C294.052 188.593 293.238 188.22 292.572 187.74L293.832 185.26C294.365 185.647 294.985 185.953 295.692 186.18C296.398 186.407 297.112 186.52 297.832 186.52C298.645 186.52 299.285 186.36 299.752 186.04C300.218 185.72 300.452 185.28 300.452 184.72C300.452 184.187 300.245 183.767 299.832 183.46C299.418 183.153 298.752 183 297.832 183H296.352V180.86L300.252 176.44L300.612 177.6H293.272V175H303.072V177.1L299.192 181.52L297.552 180.58H298.492C300.212 180.58 301.512 180.967 302.392 181.74C303.272 182.513 303.712 183.507 303.712 184.72C303.712 185.507 303.505 186.247 303.092 186.94C302.678 187.62 302.045 188.173 301.192 188.6C300.338 189.027 299.245 189.24 297.912 189.24ZM307.291 189L312.931 176.24L313.771 177.64H306.231L307.671 176.12V179.92H304.791V175H316.011V177.1L310.811 189H307.291ZM322.374 174.76C323.667 174.76 324.78 175.027 325.714 175.56C326.647 176.093 327.367 176.873 327.874 177.9C328.38 178.913 328.634 180.18 328.634 181.7C328.634 183.313 328.327 184.68 327.714 185.8C327.114 186.92 326.28 187.773 325.214 188.36C324.147 188.947 322.907 189.24 321.494 189.24C320.76 189.24 320.054 189.16 319.374 189C318.694 188.84 318.107 188.6 317.614 188.28L318.814 185.9C319.2 186.167 319.614 186.353 320.054 186.46C320.494 186.553 320.954 186.6 321.434 186.6C322.634 186.6 323.587 186.233 324.294 185.5C325.014 184.767 325.374 183.68 325.374 182.24C325.374 182 325.367 181.733 325.354 181.44C325.34 181.147 325.307 180.853 325.254 180.56L326.134 181.4C325.907 181.92 325.587 182.36 325.174 182.72C324.76 183.067 324.28 183.333 323.734 183.52C323.187 183.693 322.574 183.78 321.894 183.78C321 183.78 320.187 183.6 319.454 183.24C318.734 182.88 318.154 182.373 317.714 181.72C317.287 181.067 317.074 180.3 317.074 179.42C317.074 178.46 317.307 177.633 317.774 176.94C318.254 176.247 318.894 175.713 319.694 175.34C320.507 174.953 321.4 174.76 322.374 174.76ZM322.574 177.18C322.107 177.18 321.7 177.267 321.354 177.44C321.007 177.6 320.734 177.84 320.534 178.16C320.334 178.467 320.234 178.833 320.234 179.26C320.234 179.9 320.447 180.413 320.874 180.8C321.314 181.173 321.894 181.36 322.614 181.36C323.08 181.36 323.494 181.273 323.854 181.1C324.227 180.913 324.514 180.66 324.714 180.34C324.914 180.02 325.014 179.66 325.014 179.26C325.014 178.86 324.914 178.507 324.714 178.2C324.527 177.88 324.254 177.633 323.894 177.46C323.534 177.273 323.094 177.18 322.574 177.18Z" fill="#5B5B5B"/>
<rect x="281" y="197" width="60" height="122" fill="#5B5B5B"/>
<path d="M396.419 342.426V343.704H390.409V345.132C393.14 345.281 394.759 346.203 394.759 347.755C394.759 349.448 392.833 350.395 389.629 350.378C386.392 350.395 384.466 349.448 384.466 347.755C384.466 346.203 386.084 345.281 388.849 345.132V343.704H382.855V342.426H396.419ZM389.629 346.327C387.354 346.327 386.06 346.842 386.06 347.755C386.06 348.651 387.354 349.183 389.629 349.166C391.87 349.183 393.182 348.651 393.182 347.755C393.182 346.842 391.87 346.327 389.629 346.327ZM395.207 336.217V337.479H390.691C390.916 338.915 393.007 340.135 395.722 340.4L395.157 341.646C392.584 341.347 390.451 340.259 389.646 338.674C388.815 340.259 386.69 341.347 384.117 341.646L383.569 340.4C386.242 340.135 388.342 338.915 388.566 337.479H384.101V336.217H395.207ZM409.435 336.233V337.346C409.435 338.441 409.435 339.753 409.103 341.479H411.161V342.758H405.118V345.298H409.501V350.411H407.924V346.56H398.942V345.298H403.541V342.758H397.548V341.479H407.509C407.857 339.819 407.874 338.574 407.874 337.512H399.258V336.233H409.435Z" fill="white"/>
<path d="M384.381 191.24C383.407 191.24 382.441 191.113 381.481 190.86C380.521 190.593 379.707 190.22 379.041 189.74L380.301 187.26C380.834 187.647 381.454 187.953 382.161 188.18C382.867 188.407 383.581 188.52 384.301 188.52C385.114 188.52 385.754 188.36 386.221 188.04C386.687 187.72 386.921 187.28 386.921 186.72C386.921 186.187 386.714 185.767 386.301 185.46C385.887 185.153 385.221 185 384.301 185H382.821V182.86L386.721 178.44L387.081 179.6H379.741V177H389.541V179.1L385.661 183.52L384.021 182.58H384.961C386.681 182.58 387.981 182.967 388.861 183.74C389.741 184.513 390.181 185.507 390.181 186.72C390.181 187.507 389.974 188.247 389.561 188.94C389.147 189.62 388.514 190.173 387.661 190.6C386.807 191.027 385.714 191.24 384.381 191.24ZM393.76 191L399.4 178.24L400.24 179.64H392.7L394.14 178.12V181.92H391.26V177H402.48V179.1L397.28 191H393.76ZM403.803 191V188.9L409.203 183.8C409.629 183.413 409.943 183.067 410.143 182.76C410.343 182.453 410.476 182.173 410.543 181.92C410.623 181.667 410.663 181.433 410.663 181.22C410.663 180.66 410.469 180.233 410.083 179.94C409.709 179.633 409.156 179.48 408.423 179.48C407.836 179.48 407.289 179.593 406.783 179.82C406.289 180.047 405.869 180.4 405.523 180.88L403.163 179.36C403.696 178.56 404.443 177.927 405.403 177.46C406.363 176.993 407.469 176.76 408.723 176.76C409.763 176.76 410.669 176.933 411.443 177.28C412.229 177.613 412.836 178.087 413.263 178.7C413.703 179.313 413.923 180.047 413.923 180.9C413.923 181.353 413.863 181.807 413.743 182.26C413.636 182.7 413.409 183.167 413.063 183.66C412.729 184.153 412.236 184.707 411.583 185.32L407.103 189.54L406.483 188.36H414.383V191H403.803Z" fill="#5B5B5B"/>
<rect x="367" y="199" width="60" height="120" fill="#5B5B5B"/>
<path d="M480.543 335.553V340.334H482.701V341.646H480.543V346.676H478.966V335.553H480.543ZM477.737 337.279V338.558H468.872V337.279H472.524V335.536H474.102V337.279H477.737ZM473.305 339.271C475.446 339.271 476.907 340.384 476.907 342.077C476.907 343.771 475.446 344.866 473.305 344.866C471.146 344.866 469.686 343.771 469.686 342.077C469.686 340.384 471.146 339.271 473.305 339.271ZM473.305 340.483C472.043 340.483 471.196 341.098 471.213 342.077C471.196 343.04 472.043 343.638 473.305 343.638C474.566 343.638 475.413 343.04 475.43 342.077C475.413 341.098 474.566 340.483 473.305 340.483ZM481.174 348.817V350.096H471.113V345.796H472.69V348.817H481.174ZM495.435 336.233V337.346C495.435 338.441 495.435 339.753 495.103 341.479H497.161V342.758H491.118V345.298H495.501V350.411H493.924V346.56H484.942V345.298H489.541V342.758H483.548V341.479H493.509C493.857 339.819 493.874 338.574 493.874 337.512H485.258V336.233H495.435Z" fill="white"/>
<path d="M472.588 206.24C471.614 206.24 470.648 206.113 469.688 205.86C468.728 205.593 467.914 205.22 467.248 204.74L468.508 202.26C469.041 202.647 469.661 202.953 470.368 203.18C471.074 203.407 471.788 203.52 472.508 203.52C473.321 203.52 473.961 203.36 474.428 203.04C474.894 202.72 475.128 202.28 475.128 201.72C475.128 201.187 474.921 200.767 474.508 200.46C474.094 200.153 473.428 200 472.508 200H471.028V197.86L474.928 193.44L475.288 194.6H467.948V192H477.748V194.1L473.868 198.52L472.228 197.58H473.168C474.888 197.58 476.188 197.967 477.068 198.74C477.948 199.513 478.388 200.507 478.388 201.72C478.388 202.507 478.181 203.247 477.768 203.94C477.354 204.62 476.721 205.173 475.868 205.6C475.014 206.027 473.921 206.24 472.588 206.24ZM482.044 206V193.2L483.444 194.6H479.244V192H485.284V206H482.044ZM487.596 206V203.9L492.996 198.8C493.422 198.413 493.736 198.067 493.936 197.76C494.136 197.453 494.269 197.173 494.336 196.92C494.416 196.667 494.456 196.433 494.456 196.22C494.456 195.66 494.262 195.233 493.876 194.94C493.502 194.633 492.949 194.48 492.216 194.48C491.629 194.48 491.082 194.593 490.576 194.82C490.082 195.047 489.662 195.4 489.316 195.88L486.956 194.36C487.489 193.56 488.236 192.927 489.196 192.46C490.156 191.993 491.262 191.76 492.516 191.76C493.556 191.76 494.462 191.933 495.236 192.28C496.022 192.613 496.629 193.087 497.056 193.7C497.496 194.313 497.716 195.047 497.716 195.9C497.716 196.353 497.656 196.807 497.536 197.26C497.429 197.7 497.202 198.167 496.856 198.66C496.522 199.153 496.029 199.707 495.376 200.32L490.896 204.54L490.276 203.36H498.176V206H487.596Z" fill="#FF6633"/>
<path d="M453 214H513V320H453V214Z" fill="#FF6633"/>
<path d="M363.386 13.5195V17.8359H365.561V19.1475H363.386V24.2939H361.809V13.5195H363.386ZM359.003 14.7979V16.0762H353.923V20.4092C356.82 20.4175 358.455 20.3262 360.314 19.9443L360.497 21.2227C358.488 21.6211 356.729 21.7207 353.541 21.7207H352.362V14.7979H359.003ZM364.017 26.8174V28.0957H353.956V23.1816H355.533V26.8174H364.017ZM371.271 14.2168C373.513 14.2168 375.14 15.4619 375.14 17.3047C375.14 19.1309 373.513 20.3926 371.271 20.376C369.03 20.3926 367.437 19.1309 367.437 17.3047C367.437 15.4619 369.03 14.2168 371.271 14.2168ZM371.271 15.4951C369.927 15.4951 368.947 16.209 368.964 17.3047C368.947 18.3838 369.927 19.0977 371.271 19.0811C372.649 19.0977 373.629 18.3838 373.629 17.3047C373.629 16.209 372.649 15.4951 371.271 15.4951ZM378.759 13.5527V28.4111H377.198V13.5527H378.759ZM366.374 21.5381C369.113 21.5381 372.915 21.4717 376.169 20.9902L376.285 22.1689C374.932 22.4263 373.521 22.584 372.151 22.6836V27.9463H370.574V22.7666C369.13 22.833 367.769 22.8413 366.59 22.8496L366.374 21.5381ZM382.776 25.4561C382.129 25.4561 381.581 24.9248 381.598 24.2773C381.581 23.6299 382.129 23.0986 382.776 23.0986C383.407 23.0986 383.955 23.6299 383.955 24.2773C383.955 24.9248 383.407 25.4561 382.776 25.4561ZM382.776 18.8984C382.129 18.8984 381.581 18.3672 381.598 17.7197C381.581 17.0723 382.129 16.541 382.776 16.541C383.407 16.541 383.955 17.0723 383.955 17.7197C383.955 18.3672 383.407 18.8984 382.776 18.8984ZM394.796 14.9805V27H392.953V16.8066H392.887L390.015 18.6826V16.9395L393.003 14.9805H394.796ZM402.034 27.166C399.245 27.166 397.618 24.9248 397.618 20.9902C397.618 17.0889 399.278 14.8145 402.034 14.8145C404.79 14.8145 406.45 17.0889 406.45 20.9902C406.45 24.9248 404.807 27.166 402.034 27.166ZM402.034 25.5889C403.661 25.5889 404.624 23.9951 404.624 20.9902C404.624 18.002 403.645 16.3584 402.034 16.3584C400.424 16.3584 399.444 18.002 399.444 20.9902C399.444 23.9951 400.407 25.5889 402.034 25.5889ZM412.526 27.166C409.737 27.166 408.11 24.9248 408.11 20.9902C408.11 17.0889 409.771 14.8145 412.526 14.8145C415.282 14.8145 416.942 17.0889 416.942 20.9902C416.942 24.9248 415.299 27.166 412.526 27.166ZM412.526 25.5889C414.153 25.5889 415.116 23.9951 415.116 20.9902C415.116 18.002 414.137 16.3584 412.526 16.3584C410.916 16.3584 409.937 18.002 409.937 20.9902C409.937 23.9951 410.899 25.5889 412.526 25.5889ZM425.857 14.8477V21.7871H418.901V14.8477H425.857ZM420.445 16.126V20.542H424.313V16.126H420.445ZM430.008 13.5195V17.9688H432.166V19.2969H430.008V24.4268H428.431V13.5195H430.008ZM430.639 26.8174V28.0957H420.578V23.3809H422.155V26.8174H430.639ZM440.284 14.3662V15.6279H435.204V19.2471C438.01 19.2554 439.703 19.1309 441.629 18.749L441.812 19.9941C439.753 20.4424 437.943 20.5088 434.822 20.5088H433.644V14.3662H440.284ZM444.7 13.5361V16.5742H446.858V17.8691H444.7V21.0068H443.123V13.5361H444.7ZM444.7 21.7041V25.5059H436.665V26.9502H445.215V28.2285H435.121V24.2939H443.14V22.9658H435.088V21.7041H444.7ZM460.09 13.5361V28.4443H458.529V20.4424H455.807V19.1309H458.529V13.5361H460.09ZM454.927 14.8809V20.1934H449.83V23.5801C452.204 23.5718 454.03 23.4888 456.105 23.1152L456.238 24.4102C454.014 24.8086 452.055 24.8916 449.432 24.9082H448.253V18.915H453.399V16.1592H448.22V14.8809H454.927Z" fill="#7F7F7F"/>
<path d="M149.222 17.2344V19.4316H140.481V21.2627C144.437 21.5312 146.756 22.8984 146.78 25.1934C146.756 27.7324 143.899 29.1484 139.139 29.1484C134.329 29.1484 131.448 27.7324 131.448 25.1934C131.448 22.8984 133.792 21.519 137.796 21.2627V19.4316H129.104V17.2344H149.222ZM139.139 23.3135C135.916 23.3379 134.183 23.9727 134.207 25.1934C134.183 26.4141 135.916 27.0732 139.139 27.0732C142.288 27.0732 144.046 26.4141 144.07 25.1934C144.046 23.9727 142.288 23.3379 139.139 23.3135ZM147.415 8.0791V10.252H141.067C141.495 12.0708 144.131 13.7065 148.27 14.085L147.317 16.2334C143.313 15.8306 140.335 14.2314 139.139 11.9854C137.942 14.2192 135.013 15.8306 131.009 16.2334L130.081 14.085C134.134 13.7065 136.771 12.0464 137.234 10.252H130.936V8.0791H147.415ZM168.729 9.12891V11.2529C168.704 13.9873 168.704 17.0635 167.85 21.6777L165.115 21.3848C165.97 17.0879 165.97 13.9507 165.994 11.3018H152.811V9.12891H168.729ZM170.828 24.0947V26.3164H150.711V24.0947H158.133V16.4287H160.818V24.0947H170.828ZM185.403 8.64062C188.895 8.61621 191.458 10.8379 191.482 13.9629C191.458 17.1123 188.895 19.3096 185.403 19.3096C181.937 19.3096 179.349 17.1123 179.349 13.9629C179.349 10.8379 181.937 8.61621 185.403 8.64062ZM185.403 10.9844C183.475 10.9844 182.034 12.1318 182.034 13.9629C182.034 15.8184 183.475 16.9414 185.403 16.9414C187.356 16.9414 188.821 15.8184 188.821 13.9629C188.821 12.1318 187.356 10.9844 185.403 10.9844ZM196.634 7.10254V29.1973H193.924V7.10254H196.634ZM178.348 22.3613C182.327 22.3613 187.845 22.3125 192.605 21.6289L192.825 23.6064C187.869 24.5586 182.571 24.583 178.689 24.583L178.348 22.3613ZM219.998 20.1396V22.2637H215.14V29.1729H212.405V22.2637H207.449V29.1729H204.739V22.2637H199.832V20.1396H219.998ZM217.654 7.83496V14.0117H204.983V16.1113H218.143V18.3086H202.249V11.9854H214.871V10.0566H202.2V7.83496H217.654ZM238.895 8.93359C238.895 11.7168 241.995 14.5244 246.707 15.1348L245.633 17.332C241.885 16.7705 238.907 14.9272 237.479 12.4248C236.026 14.9272 233.06 16.7705 229.349 17.332L228.274 15.1348C232.938 14.5244 236.038 11.7168 236.038 8.93359V7.81055H238.895V8.93359ZM247.513 19.2363V21.4824H238.748V29.1729H236.062V21.4824H227.396V19.2363H247.513ZM269.07 16.6484V18.6504H260.379V20.2617H266.604V25.4375H254.056V26.9512H267.215V28.9775H251.395V23.582H263.943V22.2148H251.37V20.2617H257.693V18.6504H249.051V16.6484H269.07ZM260.379 7.05371V8.90918H267.142V10.9355H260.672C261.197 12.498 263.76 13.6699 268.167 13.8896L267.361 15.916C263.406 15.6719 260.428 14.5977 259.036 12.8154C257.645 14.5977 254.678 15.6719 250.687 15.916L249.93 13.8896C254.288 13.6699 256.851 12.498 257.425 10.9355H250.979V8.90918H257.693V7.05371H260.379ZM275.809 8.46973C278.738 8.46973 280.887 10.667 280.887 13.792C280.887 16.9414 278.738 19.0898 275.809 19.0898C272.879 19.0898 270.755 16.9414 270.755 13.792C270.755 10.667 272.879 8.46973 275.809 8.46973ZM275.809 10.7891C274.271 10.7891 273.172 11.9365 273.196 13.792C273.172 15.623 274.271 16.8193 275.809 16.7949C277.322 16.8193 278.421 15.623 278.421 13.792C278.421 11.9365 277.322 10.7891 275.809 10.7891ZM289.48 7.12695V20.2861H286.893V14.7686H284.72V20.1396H282.205V7.54199H284.72V12.5957H286.893V7.12695H289.48ZM289.48 21.3359V29.1729H286.771V23.5088H274.368V21.3359H289.48ZM309.598 8.51855C309.598 11.1309 312.649 13.8164 317.166 14.4512L316.141 16.5996C312.515 16.0381 309.622 14.2803 308.23 11.9121C306.802 14.3169 303.897 16.0869 300.271 16.6484L299.246 14.5244C303.738 13.8408 306.79 11.2041 306.814 8.51855V7.66406H309.598V8.51855ZM318.289 18.0645V20.2617H309.769V24.29H307.083V20.2617H298.123V18.0645H318.289ZM316.067 26.5361V28.7334H300.564V22.3125H303.274V26.5361H316.067ZM326.956 8.0791C330.301 8.05469 332.742 9.95898 332.742 12.7178C332.742 15.4277 330.301 17.3564 326.956 17.332C323.636 17.3564 321.219 15.4277 321.219 12.7178C321.219 9.95898 323.636 8.05469 326.956 8.0791ZM326.956 10.2764C325.149 10.252 323.831 11.2041 323.855 12.7178C323.831 14.207 325.149 15.1104 326.956 15.1104C328.836 15.1104 330.154 14.207 330.154 12.7178C330.154 11.2041 328.836 10.252 326.956 10.2764ZM338.211 7.12695V29.1484H335.525V7.12695H338.211ZM319.778 18.8457C323.758 18.8457 329.324 18.7725 334.085 18.0645L334.28 20.0664C332.376 20.4326 330.398 20.6646 328.47 20.7988V28.4893H325.735V20.9697C323.697 21.0552 321.78 21.0674 320.12 21.0918L319.778 18.8457Z" fill="white"/>
</svg>
