<svg width="720" height="394" viewBox="0 0 720 394" fill="none" xmlns="http://www.w3.org/2000/svg">
<path d="M288.817 368.285V369.256H283.882V370.281H287.423V373.043H280.286V374.055H287.765V375.039H279.015V372.141H286.138V371.225H279.001V370.281H282.597V369.256H277.675V368.285H288.817ZM283.882 362.857V363.938H287.71V364.936H283.991C284.237 365.975 285.898 366.699 288.271 366.822L287.874 367.807C285.741 367.656 284.005 367.027 283.239 365.947C282.474 367.027 280.737 367.656 278.591 367.807L278.222 366.822C280.573 366.699 282.228 365.975 282.501 364.936H278.782V363.938H282.597V362.857H283.882ZM299.987 362.912V375.189H298.688V368.818H296.159V367.766H298.688V362.912H299.987ZM294.108 366.85C294.108 368.791 295.353 370.773 297.239 371.607L296.515 372.605C295.113 371.983 294.033 370.705 293.493 369.16C292.953 370.794 291.88 372.161 290.472 372.811L289.761 371.812C291.62 370.965 292.823 368.873 292.823 366.85V366.043H290.103V365.004H292.837V363.158H294.136V365.004H296.788V366.043H294.108V366.85ZM303.255 372.729C302.722 372.729 302.271 372.291 302.284 371.758C302.271 371.225 302.722 370.787 303.255 370.787C303.774 370.787 304.226 371.225 304.226 371.758C304.226 372.291 303.774 372.729 303.255 372.729ZM303.255 367.328C302.722 367.328 302.271 366.891 302.284 366.357C302.271 365.824 302.722 365.387 303.255 365.387C303.774 365.387 304.226 365.824 304.226 366.357C304.226 366.891 303.774 367.328 303.255 367.328ZM309.53 374V364.102H315.737V365.4H311.034V368.395H315.409V369.68H311.034V372.701H315.792V374H309.53ZM322.177 370.91V366.576H323.626V374H322.204V372.715H322.122C321.78 373.508 321.015 374.096 319.907 374.096C318.472 374.096 317.46 373.139 317.46 371.293V366.576H318.923V371.115C318.923 372.127 319.538 372.77 320.427 372.77C321.233 372.77 322.177 372.182 322.177 370.91ZM325.403 374V366.576H326.812V367.752H326.894C327.167 366.959 327.905 366.467 328.78 366.467C328.958 366.467 329.245 366.48 329.396 366.494V367.889C329.272 367.861 328.931 367.807 328.63 367.807C327.618 367.807 326.866 368.504 326.866 369.475V374H325.403ZM333.388 374.15C331.282 374.15 329.915 372.619 329.915 370.322C329.915 368.012 331.282 366.48 333.388 366.48C335.479 366.48 336.847 368.012 336.847 370.322C336.847 372.619 335.479 374.15 333.388 374.15ZM333.388 372.934C334.728 372.934 335.37 371.744 335.37 370.322C335.37 368.9 334.728 367.684 333.388 367.684C332.021 367.684 331.378 368.9 331.378 370.322C331.378 371.744 332.021 372.934 333.388 372.934ZM342.452 368.6C342.315 368.012 341.851 367.629 341.044 367.629C340.21 367.629 339.608 368.066 339.622 368.627C339.608 369.064 339.964 369.379 340.784 369.57L341.96 369.844C343.327 370.145 343.983 370.801 343.997 371.854C343.983 373.193 342.862 374.15 340.962 374.15C339.185 374.15 338.118 373.357 337.94 371.977H339.431C339.554 372.646 340.073 372.975 340.948 372.975C341.892 372.975 342.493 372.592 342.507 371.963C342.493 371.484 342.138 371.17 341.358 370.992L340.196 370.746C338.856 370.445 338.159 369.734 338.159 368.709C338.159 367.383 339.308 366.48 341.03 366.48C342.685 366.48 343.71 367.328 343.86 368.6H342.452ZM348.892 366.576V367.738H347.374V371.812C347.374 372.646 347.798 372.797 348.263 372.811C348.468 372.811 348.796 372.783 349.001 372.77V374.041C348.796 374.068 348.481 374.096 348.085 374.096C346.937 374.096 345.911 373.467 345.925 372.113V367.738H344.831V366.576H345.925V364.799H347.374V366.576H348.892ZM349.972 371.908C349.972 370.213 351.407 369.775 352.747 369.68C353.239 369.646 354.354 369.584 354.702 369.57L354.688 368.982C354.688 368.148 354.183 367.656 353.185 367.656C352.323 367.656 351.804 368.053 351.653 368.6H350.204C350.341 367.369 351.489 366.48 353.239 366.48C354.415 366.48 356.151 366.918 356.151 369.064V374H354.729V372.988H354.675C354.388 373.549 353.704 374.164 352.474 374.164C351.065 374.164 349.972 373.357 349.972 371.908ZM351.394 371.922C351.394 372.633 351.981 373.002 352.802 373.002C353.991 373.002 354.702 372.209 354.702 371.32V370.637L352.952 370.76C351.995 370.828 351.394 371.184 351.394 371.922ZM361.388 366.576V367.738H359.87V371.812C359.87 372.646 360.294 372.797 360.759 372.811C360.964 372.811 361.292 372.783 361.497 372.77V374.041C361.292 374.068 360.978 374.096 360.581 374.096C359.433 374.096 358.407 373.467 358.421 372.113V367.738H357.327V366.576H358.421V364.799H359.87V366.576H361.388ZM366.583 363.637L363.397 375.49H362.099L365.284 363.637H366.583ZM378.423 369.83V370.896H375.579V375.162H374.267V370.896H371.341V375.162H370.001V370.896H367.212V369.83H378.423ZM372.79 363.377C375.374 363.377 377.151 364.43 377.151 366.084C377.151 367.711 375.374 368.75 372.79 368.736C370.192 368.75 368.429 367.711 368.429 366.084C368.429 364.43 370.192 363.377 372.79 363.377ZM372.79 364.416C370.972 364.43 369.755 365.059 369.769 366.084C369.755 367.082 370.972 367.711 372.79 367.711C374.608 367.711 375.825 367.082 375.825 366.084C375.825 365.059 374.608 364.43 372.79 364.416ZM389.538 362.926V369.666H388.239V366.467H386.024V365.4H388.239V362.926H389.538ZM382.743 370.213V371.58H388.253V370.213H389.538V375.012H381.444V370.213H382.743ZM382.743 373.959H388.253V372.605H382.743V373.959ZM385.3 363.404V366.836H381.116V368.312C383.078 368.306 384.534 368.244 386.271 367.971L386.38 369.023C384.521 369.324 382.948 369.379 380.788 369.379H379.831V365.852H384.042V364.457H379.817V363.404H385.3ZM395.417 363.787C397.358 363.773 398.739 364.977 398.753 366.699C398.739 368.422 397.358 369.625 395.417 369.625C393.489 369.625 392.067 368.422 392.081 366.699C392.067 364.977 393.489 363.773 395.417 363.787ZM395.417 364.908C394.228 364.908 393.353 365.619 393.366 366.699C393.353 367.779 394.228 368.49 395.417 368.49C396.606 368.49 397.481 367.779 397.481 366.699C397.481 365.619 396.606 364.908 395.417 364.908ZM401.556 362.912V375.189H400.257V362.912H401.556ZM391.493 371.471C393.722 371.471 396.812 371.443 399.491 371.061L399.587 372.004C396.812 372.537 393.845 372.551 391.657 372.551L391.493 371.471ZM413.655 362.912V375.162H412.356V362.912H413.655ZM403.593 371.826C404.598 371.819 405.753 371.812 406.956 371.771V370.555C405.521 370.37 404.591 369.529 404.604 368.326C404.591 366.945 405.794 366.029 407.571 366.029C409.362 366.029 410.593 366.945 410.593 368.326C410.593 369.516 409.663 370.35 408.241 370.541V371.73C409.376 371.683 410.524 371.594 411.604 371.457L411.7 372.428C408.979 372.879 406.013 372.906 403.771 372.906L403.593 371.826ZM411.331 364.375V365.414H403.853V364.375H406.956V362.939H408.255V364.375H411.331ZM407.571 367.041C406.546 367.041 405.821 367.547 405.835 368.326C405.821 369.105 406.546 369.584 407.571 369.584C408.624 369.584 409.349 369.105 409.349 368.326C409.349 367.547 408.624 367.041 407.571 367.041ZM423.308 366.521C423.308 368.463 424.579 370.623 426.438 371.498L425.7 372.51C424.326 371.847 423.239 370.466 422.692 368.859C422.125 370.616 420.977 372.127 419.575 372.824L418.81 371.799C420.669 370.91 422.022 368.6 422.022 366.521V365.223H419.261V364.143H425.974V365.223H423.308V366.521ZM428.585 362.912V367.766H430.554V368.859H428.585V375.162H427.286V362.912H428.585ZM442.353 372.605V373.699H431.142V372.605H434.204V370.445H432.509V366.549H439.7V364.84H432.481V363.773H440.985V367.602H433.794V369.379H441.272V370.445H439.413V372.605H442.353ZM435.462 372.605H438.142V370.445H435.462V372.605Z" fill="black"/>
<path d="M121.872 306.98V319H120.029V308.807H119.963L117.091 310.683V308.939L120.079 306.98H121.872ZM129.11 319.166C126.321 319.166 124.694 316.925 124.694 312.99C124.694 309.089 126.354 306.814 129.11 306.814C131.866 306.814 133.526 309.089 133.526 312.99C133.526 316.925 131.883 319.166 129.11 319.166ZM129.11 317.589C130.737 317.589 131.7 315.995 131.7 312.99C131.7 310.002 130.721 308.358 129.11 308.358C127.5 308.358 126.521 310.002 126.521 312.99C126.521 315.995 127.483 317.589 129.11 317.589ZM135.436 319V306.98H137.212V313.787H137.361L140.931 309.985H143.056L139.42 313.854L143.305 319H141.13L138.075 314.949L137.212 315.796V319H135.436ZM147.854 322.569C145.579 322.569 144.085 321.557 143.919 319.88H145.729C145.895 320.727 146.691 321.142 147.87 321.142C149.281 321.142 150.178 320.544 150.178 319.133V317.356H150.062C149.746 317.938 149.099 318.867 147.438 318.867C145.313 318.867 143.67 317.273 143.67 314.401C143.67 311.529 145.28 309.869 147.455 309.869C149.132 309.869 149.746 310.882 150.078 311.446H150.194V309.985H151.921V319.199C151.921 321.507 150.178 322.569 147.854 322.569ZM147.837 317.406C149.348 317.406 150.194 316.294 150.194 314.435C150.194 312.608 149.364 311.38 147.837 311.38C146.26 311.38 145.479 312.708 145.479 314.435C145.479 316.194 146.293 317.406 147.837 317.406Z" fill="black"/>
<path d="M122.254 255.98V268H120.411V257.807H120.345L117.473 259.683V257.939L120.461 255.98H122.254ZM125.309 268V266.672L129.476 262.472C130.787 261.094 131.451 260.33 131.451 259.284C131.451 258.105 130.488 257.342 129.227 257.342C127.898 257.342 127.035 258.188 127.035 259.467H125.309C125.292 257.275 126.969 255.814 129.26 255.814C131.584 255.814 133.178 257.275 133.194 259.234C133.178 260.579 132.547 261.642 130.289 263.866L127.849 266.34V266.439H133.394V268H125.309ZM135.436 268V255.98H137.212V262.787H137.361L140.931 258.985H143.056L139.42 262.854L143.305 268H141.13L138.075 263.949L137.212 264.796V268H135.436ZM147.854 271.569C145.579 271.569 144.085 270.557 143.919 268.88H145.729C145.895 269.727 146.691 270.142 147.87 270.142C149.281 270.142 150.178 269.544 150.178 268.133V266.356H150.062C149.746 266.938 149.099 267.867 147.438 267.867C145.313 267.867 143.67 266.273 143.67 263.401C143.67 260.529 145.28 258.869 147.455 258.869C149.132 258.869 149.746 259.882 150.078 260.446H150.194V258.985H151.921V268.199C151.921 270.507 150.178 271.569 147.854 271.569ZM147.837 266.406C149.348 266.406 150.194 265.294 150.194 263.435C150.194 261.608 149.364 260.38 147.837 260.38C146.26 260.38 145.479 261.708 145.479 263.435C145.479 265.194 146.293 266.406 147.837 266.406Z" fill="black"/>
<path opacity="0.8" d="M121.772 153.98V166H119.93V155.807H119.863L116.991 157.683V155.939L119.979 153.98H121.772ZM129.177 166.166C126.952 166.149 124.628 164.838 124.628 160.389C124.628 156.205 126.438 153.814 129.326 153.814C131.534 153.814 133.078 155.192 133.36 157.102H131.551C131.318 156.122 130.538 155.408 129.326 155.408C127.467 155.408 126.388 157.035 126.388 159.741H126.521C127.168 158.729 128.297 158.114 129.608 158.114C131.75 158.114 133.477 159.758 133.477 162.065C133.477 164.39 131.767 166.183 129.177 166.166ZM129.16 164.639C130.621 164.639 131.7 163.51 131.7 162.099C131.7 160.721 130.654 159.608 129.21 159.608C127.732 159.608 126.62 160.771 126.604 162.115C126.62 163.443 127.683 164.639 129.16 164.639ZM135.436 166V153.98H137.212V160.787H137.361L140.931 156.985H143.056L139.42 160.854L143.305 166H141.13L138.075 161.949L137.212 162.796V166H135.436ZM147.854 169.569C145.579 169.569 144.085 168.557 143.919 166.88H145.729C145.895 167.727 146.691 168.142 147.87 168.142C149.281 168.142 150.178 167.544 150.178 166.133V164.356H150.062C149.746 164.938 149.099 165.867 147.438 165.867C145.313 165.867 143.67 164.273 143.67 161.401C143.67 158.529 145.28 156.869 147.455 156.869C149.132 156.869 149.746 157.882 150.078 158.446H150.194V156.985H151.921V166.199C151.921 168.507 150.178 169.569 147.854 169.569ZM147.837 164.406C149.348 164.406 150.194 163.294 150.194 161.435C150.194 159.608 149.364 158.38 147.837 158.38C146.26 158.38 145.479 159.708 145.479 161.435C145.479 163.194 146.293 164.406 147.837 164.406Z" fill="black"/>
<path d="M121.573 204.98V217H119.73V206.807H119.664L116.792 208.683V206.939L119.78 204.98H121.573ZM124.362 214.659V213.182L129.675 204.98H131.933V213.115H133.576V214.659H131.933V217H130.206V214.659H124.362ZM126.288 213.115H130.206V207.155H130.073L126.288 213.016V213.115ZM135.436 217V204.98H137.212V211.787H137.361L140.931 207.985H143.056L139.42 211.854L143.305 217H141.13L138.075 212.949L137.212 213.796V217H135.436ZM147.854 220.569C145.579 220.569 144.085 219.557 143.919 217.88H145.729C145.895 218.727 146.691 219.142 147.87 219.142C149.281 219.142 150.178 218.544 150.178 217.133V215.356H150.062C149.746 215.938 149.099 216.867 147.438 216.867C145.313 216.867 143.67 215.273 143.67 212.401C143.67 209.529 145.28 207.869 147.455 207.869C149.132 207.869 149.746 208.882 150.078 209.446H150.194V207.985H151.921V217.199C151.921 219.507 150.178 220.569 147.854 220.569ZM147.837 215.406C149.348 215.406 150.194 214.294 150.194 212.435C150.194 210.608 149.364 209.38 147.837 209.38C146.26 209.38 145.479 210.708 145.479 212.435C145.479 214.194 146.293 215.406 147.837 215.406Z" fill="black"/>
<path d="M121.855 102.98V115H120.013V104.807H119.946L117.074 106.683V104.939L120.062 102.98H121.855ZM129.11 115.166C126.504 115.166 124.678 113.755 124.694 111.796C124.678 110.252 125.79 108.99 127.201 108.774V108.708C125.973 108.426 125.143 107.33 125.143 106.019C125.143 104.176 126.819 102.814 129.11 102.814C131.385 102.814 133.045 104.176 133.062 106.019C133.045 107.33 132.215 108.426 131.003 108.708V108.774C132.397 108.99 133.51 110.252 133.526 111.796C133.51 113.755 131.684 115.166 129.11 115.166ZM129.11 113.655C130.671 113.655 131.667 112.842 131.667 111.663C131.667 110.418 130.588 109.521 129.11 109.521C127.616 109.521 126.521 110.418 126.554 111.663C126.521 112.842 127.517 113.655 129.11 113.655ZM129.11 108.077C130.372 108.077 131.269 107.313 131.269 106.185C131.269 105.072 130.389 104.309 129.11 104.309C127.782 104.309 126.919 105.056 126.919 106.185C126.919 107.313 127.832 108.077 129.11 108.077ZM135.436 115V102.98H137.212V109.787H137.361L140.931 105.985H143.056L139.42 109.854L143.305 115H141.13L138.075 110.949L137.212 111.796V115H135.436ZM147.854 118.569C145.579 118.569 144.085 117.557 143.919 115.88H145.729C145.895 116.727 146.691 117.142 147.87 117.142C149.281 117.142 150.178 116.544 150.178 115.133V113.356H150.062C149.746 113.938 149.099 114.867 147.438 114.867C145.313 114.867 143.67 113.273 143.67 110.401C143.67 107.529 145.28 105.869 147.455 105.869C149.132 105.869 149.746 106.882 150.078 107.446H150.194V105.985H151.921V115.199C151.921 117.507 150.178 118.569 147.854 118.569ZM147.837 113.406C149.348 113.406 150.194 112.294 150.194 110.435C150.194 108.608 149.364 107.38 147.837 107.38C146.26 107.38 145.479 108.708 145.479 110.435C145.479 112.194 146.293 113.406 147.837 113.406Z" fill="black"/>
<path d="M114.816 64V62.6719L118.983 58.4717C120.295 57.0938 120.959 56.3301 120.959 55.2842C120.959 54.1055 119.996 53.3418 118.734 53.3418C117.406 53.3418 116.543 54.1885 116.543 55.4668H114.816C114.8 53.2754 116.477 51.8145 118.768 51.8145C121.092 51.8145 122.686 53.2754 122.702 55.2344C122.686 56.5791 122.055 57.6416 119.797 59.8662L117.356 62.3398V62.4395H122.901V64H114.816ZM129.11 64.166C126.321 64.166 124.694 61.9248 124.694 57.9902C124.694 54.0889 126.354 51.8145 129.11 51.8145C131.866 51.8145 133.526 54.0889 133.526 57.9902C133.526 61.9248 131.883 64.166 129.11 64.166ZM129.11 62.5889C130.737 62.5889 131.7 60.9951 131.7 57.9902C131.7 55.002 130.721 53.3584 129.11 53.3584C127.5 53.3584 126.521 55.002 126.521 57.9902C126.521 60.9951 127.483 62.5889 129.11 62.5889ZM135.436 64V51.9805H137.212V58.7871H137.361L140.931 54.9854H143.056L139.42 58.8535L143.305 64H141.13L138.075 59.9492L137.212 60.7959V64H135.436ZM147.854 67.5693C145.579 67.5693 144.085 66.5566 143.919 64.8799H145.729C145.895 65.7266 146.691 66.1416 147.87 66.1416C149.281 66.1416 150.178 65.5439 150.178 64.1328V62.3564H150.062C149.746 62.9375 149.099 63.8672 147.438 63.8672C145.313 63.8672 143.67 62.2734 143.67 59.4014C143.67 56.5293 145.28 54.8691 147.455 54.8691C149.132 54.8691 149.746 55.8818 150.078 56.4463H150.194V54.9854H151.921V64.1992C151.921 66.5068 150.178 67.5693 147.854 67.5693ZM147.837 62.4062C149.348 62.4062 150.194 61.2939 150.194 59.4346C150.194 57.6084 149.364 56.3799 147.837 56.3799C146.26 56.3799 145.479 57.708 145.479 59.4346C145.479 61.1943 146.293 62.4062 147.837 62.4062Z" fill="black"/>
<path d="M163 313H608" stroke="black" stroke-linecap="square"/>
<path d="M163 109H608" stroke="#AEAEAE" stroke-dasharray="4 4"/>
<path d="M163 211H608" stroke="#AEAEAE" stroke-dasharray="4 4"/>
<path d="M163 58H608" stroke="#AEAEAE" stroke-dasharray="4 4"/>
<path d="M163 262H608" stroke="#AEAEAE" stroke-dasharray="4 4"/>
<path d="M163 160H608" stroke="#AEAEAE" stroke-dasharray="4 4"/>
<path d="M433.828 336V333.9L439.228 328.8C439.655 328.413 439.968 328.067 440.168 327.76C440.368 327.453 440.501 327.173 440.568 326.92C440.648 326.667 440.688 326.433 440.688 326.22C440.688 325.66 440.495 325.233 440.108 324.94C439.735 324.633 439.181 324.48 438.448 324.48C437.861 324.48 437.315 324.593 436.808 324.82C436.315 325.047 435.895 325.4 435.548 325.88L433.188 324.36C433.721 323.56 434.468 322.927 435.428 322.46C436.388 321.993 437.495 321.76 438.748 321.76C439.788 321.76 440.695 321.933 441.468 322.28C442.255 322.613 442.861 323.087 443.288 323.7C443.728 324.313 443.948 325.047 443.948 325.9C443.948 326.353 443.888 326.807 443.768 327.26C443.661 327.7 443.435 328.167 443.088 328.66C442.755 329.153 442.261 329.707 441.608 330.32L437.128 334.54L436.508 333.36H444.408V336H433.828ZM451.745 336.24C450.598 336.24 449.572 335.96 448.665 335.4C447.758 334.827 447.045 334 446.525 332.92C446.005 331.84 445.745 330.533 445.745 329C445.745 327.467 446.005 326.16 446.525 325.08C447.045 324 447.758 323.18 448.665 322.62C449.572 322.047 450.598 321.76 451.745 321.76C452.905 321.76 453.932 322.047 454.825 322.62C455.732 323.18 456.445 324 456.965 325.08C457.485 326.16 457.745 327.467 457.745 329C457.745 330.533 457.485 331.84 456.965 332.92C456.445 334 455.732 334.827 454.825 335.4C453.932 335.96 452.905 336.24 451.745 336.24ZM451.745 333.5C452.292 333.5 452.765 333.347 453.165 333.04C453.578 332.733 453.898 332.247 454.125 331.58C454.365 330.913 454.485 330.053 454.485 329C454.485 327.947 454.365 327.087 454.125 326.42C453.898 325.753 453.578 325.267 453.165 324.96C452.765 324.653 452.292 324.5 451.745 324.5C451.212 324.5 450.738 324.653 450.325 324.96C449.925 325.267 449.605 325.753 449.365 326.42C449.138 327.087 449.025 327.947 449.025 329C449.025 330.053 449.138 330.913 449.365 331.58C449.605 332.247 449.925 332.733 450.325 333.04C450.738 333.347 451.212 333.5 451.745 333.5ZM459.121 336V333.9L464.521 328.8C464.948 328.413 465.261 328.067 465.461 327.76C465.661 327.453 465.794 327.173 465.861 326.92C465.941 326.667 465.981 326.433 465.981 326.22C465.981 325.66 465.788 325.233 465.401 324.94C465.028 324.633 464.474 324.48 463.741 324.48C463.154 324.48 462.608 324.593 462.101 324.82C461.608 325.047 461.188 325.4 460.841 325.88L458.481 324.36C459.014 323.56 459.761 322.927 460.721 322.46C461.681 321.993 462.788 321.76 464.041 321.76C465.081 321.76 465.988 321.933 466.761 322.28C467.548 322.613 468.154 323.087 468.581 323.7C469.021 324.313 469.241 325.047 469.241 325.9C469.241 326.353 469.181 326.807 469.061 327.26C468.954 327.7 468.728 328.167 468.381 328.66C468.048 329.153 467.554 329.707 466.901 330.32L462.421 334.54L461.801 333.36H469.701V336H459.121ZM477.038 336.24C475.891 336.24 474.864 335.96 473.958 335.4C473.051 334.827 472.338 334 471.818 332.92C471.298 331.84 471.038 330.533 471.038 329C471.038 327.467 471.298 326.16 471.818 325.08C472.338 324 473.051 323.18 473.958 322.62C474.864 322.047 475.891 321.76 477.038 321.76C478.198 321.76 479.224 322.047 480.118 322.62C481.024 323.18 481.738 324 482.258 325.08C482.778 326.16 483.038 327.467 483.038 329C483.038 330.533 482.778 331.84 482.258 332.92C481.738 334 481.024 334.827 480.118 335.4C479.224 335.96 478.198 336.24 477.038 336.24ZM477.038 333.5C477.584 333.5 478.058 333.347 478.458 333.04C478.871 332.733 479.191 332.247 479.418 331.58C479.658 330.913 479.778 330.053 479.778 329C479.778 327.947 479.658 327.087 479.418 326.42C479.191 325.753 478.871 325.267 478.458 324.96C478.058 324.653 477.584 324.5 477.038 324.5C476.504 324.5 476.031 324.653 475.618 324.96C475.218 325.267 474.898 325.753 474.658 326.42C474.431 327.087 474.318 327.947 474.318 329C474.318 330.053 474.431 330.913 474.658 331.58C474.898 332.247 475.218 332.733 475.618 333.04C476.031 333.347 476.504 333.5 477.038 333.5Z" fill="black"/>
<path d="M291.73 336V333.9L297.13 328.8C297.557 328.413 297.87 328.067 298.07 327.76C298.27 327.453 298.404 327.173 298.47 326.92C298.55 326.667 298.59 326.433 298.59 326.22C298.59 325.66 298.397 325.233 298.01 324.94C297.637 324.633 297.084 324.48 296.35 324.48C295.764 324.48 295.217 324.593 294.71 324.82C294.217 325.047 293.797 325.4 293.45 325.88L291.09 324.36C291.624 323.56 292.37 322.927 293.33 322.46C294.29 321.993 295.397 321.76 296.65 321.76C297.69 321.76 298.597 321.933 299.37 322.28C300.157 322.613 300.764 323.087 301.19 323.7C301.63 324.313 301.85 325.047 301.85 325.9C301.85 326.353 301.79 326.807 301.67 327.26C301.564 327.7 301.337 328.167 300.99 328.66C300.657 329.153 300.164 329.707 299.51 330.32L295.03 334.54L294.41 333.36H302.31V336H291.73ZM309.647 336.24C308.501 336.24 307.474 335.96 306.567 335.4C305.661 334.827 304.947 334 304.427 332.92C303.907 331.84 303.647 330.533 303.647 329C303.647 327.467 303.907 326.16 304.427 325.08C304.947 324 305.661 323.18 306.567 322.62C307.474 322.047 308.501 321.76 309.647 321.76C310.807 321.76 311.834 322.047 312.727 322.62C313.634 323.18 314.347 324 314.867 325.08C315.387 326.16 315.647 327.467 315.647 329C315.647 330.533 315.387 331.84 314.867 332.92C314.347 334 313.634 334.827 312.727 335.4C311.834 335.96 310.807 336.24 309.647 336.24ZM309.647 333.5C310.194 333.5 310.667 333.347 311.067 333.04C311.481 332.733 311.801 332.247 312.027 331.58C312.267 330.913 312.387 330.053 312.387 329C312.387 327.947 312.267 327.087 312.027 326.42C311.801 325.753 311.481 325.267 311.067 324.96C310.667 324.653 310.194 324.5 309.647 324.5C309.114 324.5 308.641 324.653 308.227 324.96C307.827 325.267 307.507 325.753 307.267 326.42C307.041 327.087 306.927 327.947 306.927 329C306.927 330.053 307.041 330.913 307.267 331.58C307.507 332.247 307.827 332.733 308.227 333.04C308.641 333.347 309.114 333.5 309.647 333.5ZM319.303 336V323.2L320.703 324.6H316.503V322H322.543V336H319.303ZM329.895 321.76C331.189 321.76 332.302 322.027 333.235 322.56C334.169 323.093 334.889 323.873 335.395 324.9C335.902 325.913 336.155 327.18 336.155 328.7C336.155 330.313 335.849 331.68 335.235 332.8C334.635 333.92 333.802 334.773 332.735 335.36C331.669 335.947 330.429 336.24 329.015 336.24C328.282 336.24 327.575 336.16 326.895 336C326.215 335.84 325.629 335.6 325.135 335.28L326.335 332.9C326.722 333.167 327.135 333.353 327.575 333.46C328.015 333.553 328.475 333.6 328.955 333.6C330.155 333.6 331.109 333.233 331.815 332.5C332.535 331.767 332.895 330.68 332.895 329.24C332.895 329 332.889 328.733 332.875 328.44C332.862 328.147 332.829 327.853 332.775 327.56L333.655 328.4C333.429 328.92 333.109 329.36 332.695 329.72C332.282 330.067 331.802 330.333 331.255 330.52C330.709 330.693 330.095 330.78 329.415 330.78C328.522 330.78 327.709 330.6 326.975 330.24C326.255 329.88 325.675 329.373 325.235 328.72C324.809 328.067 324.595 327.3 324.595 326.42C324.595 325.46 324.829 324.633 325.295 323.94C325.775 323.247 326.415 322.713 327.215 322.34C328.029 321.953 328.922 321.76 329.895 321.76ZM330.095 324.18C329.629 324.18 329.222 324.267 328.875 324.44C328.529 324.6 328.255 324.84 328.055 325.16C327.855 325.467 327.755 325.833 327.755 326.26C327.755 326.9 327.969 327.413 328.395 327.8C328.835 328.173 329.415 328.36 330.135 328.36C330.602 328.36 331.015 328.273 331.375 328.1C331.749 327.913 332.035 327.66 332.235 327.34C332.435 327.02 332.535 326.66 332.535 326.26C332.535 325.86 332.435 325.507 332.235 325.2C332.049 324.88 331.775 324.633 331.415 324.46C331.055 324.273 330.615 324.18 330.095 324.18Z" fill="black"/>
<path d="M212.185 4.12695V20.0693H209.451V4.12695H212.185ZM212.795 23.5361V25.7334H197.585V18.458H200.32V23.5361H212.795ZM200.149 5.56738C203.494 5.56738 206.082 7.88672 206.082 11.085C206.082 14.3564 203.494 16.627 200.149 16.627C196.78 16.627 194.192 14.3564 194.192 11.085C194.192 7.88672 196.78 5.56738 200.149 5.56738ZM200.149 7.93555C198.269 7.93555 196.829 9.18066 196.853 11.085C196.829 13.0381 198.269 14.2588 200.149 14.2588C201.98 14.2588 203.42 13.0381 203.42 11.085C203.42 9.18066 201.98 7.93555 200.149 7.93555ZM232.839 4.10254V9.52246H235.891V11.7441H232.839V16.9932H230.105V4.10254H232.839ZM225.637 17.4082C230.154 17.4082 233.01 19.0195 233.035 21.7539C233.01 24.5371 230.154 26.1484 225.637 26.1484C221.072 26.1484 218.167 24.5371 218.167 21.7539C218.167 19.0195 221.072 17.4082 225.637 17.4082ZM225.637 19.5811C222.61 19.5811 220.828 20.3379 220.852 21.7539C220.828 23.1943 222.61 23.9756 225.637 23.9756C228.616 23.9756 230.398 23.1943 230.398 21.7539C230.398 20.3379 228.616 19.5811 225.637 19.5811ZM226.15 5.66504V7.8623H218.948V13.4043C223.171 13.3921 225.527 13.27 228.127 12.7207L228.396 14.8936C225.54 15.5039 222.927 15.6016 218.044 15.6016H216.262V5.66504H226.15ZM261.428 4.12695V20.3135H258.718V14.8447H253.469C252.407 16.0288 250.845 16.749 249.075 16.749C245.754 16.749 243.24 14.3564 243.24 11.1094C243.24 7.81348 245.754 5.44531 249.075 5.44531C250.833 5.44531 252.383 6.15332 253.445 7.3252H258.718V4.12695H261.428ZM261.99 23.5361V25.7334H246.951V18.6533H249.661V23.5361H261.99ZM249.075 7.8623C247.17 7.8623 245.828 9.13184 245.828 11.1094C245.828 13.0625 247.17 14.332 249.075 14.332C250.881 14.332 252.249 13.0625 252.273 11.1094C252.249 9.13184 250.881 7.8623 249.075 7.8623ZM254.641 9.52246C254.775 10.0229 254.861 10.5479 254.861 11.1094C254.861 11.6465 254.788 12.1592 254.666 12.6475H258.718V9.52246H254.641ZM276.882 5.64062V7.83789H274.929V14.0879C275.735 14.0391 276.528 13.9658 277.297 13.8682V11.8906H280.325V9.98633H277.297V7.81348H280.325V4.10254H283.035V17.6279H280.325V14.0635H277.371L277.468 15.8701C273.269 16.5537 268.386 16.6514 264.871 16.6514L264.578 14.4053L267.068 14.3809V7.83789H265.139V5.64062H276.882ZM275.564 18.0186C280.276 18.0186 283.108 19.4834 283.108 22.0957C283.108 24.6348 280.276 26.1484 275.564 26.1484C270.876 26.1484 268.044 24.6348 268.069 22.0957C268.044 19.4834 270.876 18.0186 275.564 18.0186ZM275.564 20.0938C272.488 20.0938 270.754 20.7773 270.754 22.0957C270.754 23.3652 272.488 24.0488 275.564 24.0488C278.665 24.0488 280.398 23.3652 280.398 22.0957C280.398 20.7773 278.665 20.0938 275.564 20.0938ZM269.705 14.3564C270.559 14.332 271.438 14.2954 272.317 14.2588V7.83789H269.705V14.3564ZM303.86 5.22559V7.03223C303.86 8.79004 303.86 10.792 303.396 13.3799H306.326V15.5771H301.077V20.5576H298.44V15.5771H295.51V20.5576H292.849V15.5771H286.16V13.3799H300.662C301.125 10.9141 301.15 9.03418 301.15 7.34961H288.625V5.22559H303.86ZM304.446 23.5361V25.7334H288.43V18.6533H291.14V23.5361H304.446ZM332.18 4.10254V16.749H329.47V10.3281H325.076V8.13086H329.47V4.10254H332.18ZM332.18 17.7744V25.9043H317.507V17.7744H332.18ZM320.217 19.8984V23.707H329.519V19.8984H320.217ZM321.707 7.42285C321.707 10.1572 323.489 12.7695 326.882 13.8193L325.466 15.9678C323.037 15.1499 321.304 13.5386 320.339 11.5C319.375 13.7339 317.568 15.4917 314.993 16.3584L313.601 14.21C317.166 13.0869 318.972 10.3037 318.972 7.27637V5.10352H321.707V7.42285ZM355.447 16.4805V18.6777H350.54V26.1729H347.781V18.6777H342.898V26.1729H340.115V18.6777H335.281V16.4805H355.447ZM345.315 4.88379C350.002 4.9082 353.274 6.8125 353.274 9.81543C353.274 12.7695 350.002 14.6494 345.315 14.6494C340.603 14.6494 337.38 12.7695 337.405 9.81543C337.38 6.8125 340.603 4.9082 345.315 4.88379ZM345.315 7.08105C342.19 7.08105 340.164 8.08203 340.188 9.81543C340.164 11.5 342.19 12.501 345.315 12.501C348.44 12.501 350.466 11.5 350.466 9.81543C350.466 8.08203 348.44 7.08105 345.315 7.08105ZM383.01 21.2412V23.4385H362.844V21.2412H371.487V16.1387H374.172V21.2412H383.01ZM374.246 7.05664C374.246 10.4014 377.59 13.6973 382.229 14.4297L381.057 16.6758C377.322 15.9678 374.27 13.8315 372.805 10.9385C371.34 13.8193 368.313 15.9922 364.602 16.6758L363.43 14.4297C368.044 13.6973 371.34 10.377 371.365 7.05664V5.44531H374.246V7.05664ZM402.81 4.10254V26.1973H400.076V4.10254H402.81ZM388.333 5.90918V11.4268H393.679V5.90918H396.365V20.9971H385.623V5.90918H388.333ZM388.333 18.7754H393.679V13.5508H388.333V18.7754ZM426.565 7.25195V9.49805H423.464V11.8906H426.565V14.1611H423.464V17.457H420.754V4.12695H423.464V7.25195H426.565ZM416.97 5.46973V11.8174H409.622V14.1367C413.369 14.1123 415.933 13.978 418.948 13.4775L419.241 15.6504C415.945 16.2363 413.088 16.3828 408.718 16.3584H406.912V9.7666H414.309V7.61816H406.887V5.46973H416.97ZM416.262 17.8721C420.803 17.8965 423.66 19.4346 423.684 22.0469C423.66 24.6348 420.803 26.124 416.262 26.124C411.624 26.124 408.792 24.6348 408.792 22.0469C408.792 19.4346 411.624 17.8965 416.262 17.8721ZM416.262 19.9961C413.186 19.9961 411.428 20.7285 411.453 22.0469C411.428 23.3652 413.186 24.0732 416.262 24.0732C419.314 24.0732 420.999 23.3652 420.999 22.0469C420.999 20.7285 419.314 19.9961 416.262 19.9961Z" fill="black"/>
<path d="M438.537 24V22.6719L442.704 18.4717C444.016 17.0938 444.68 16.3301 444.68 15.2842C444.68 14.1055 443.717 13.3418 442.455 13.3418C441.127 13.3418 440.264 14.1885 440.264 15.4668H438.537C438.521 13.2754 440.197 11.8145 442.488 11.8145C444.812 11.8145 446.406 13.2754 446.423 15.2344C446.406 16.5791 445.775 17.6416 443.518 19.8662L441.077 22.3398V22.4395H446.622V24H438.537ZM452.831 24.166C450.042 24.166 448.415 21.9248 448.415 17.9902C448.415 14.0889 450.075 11.8145 452.831 11.8145C455.587 11.8145 457.247 14.0889 457.247 17.9902C457.247 21.9248 455.604 24.166 452.831 24.166ZM452.831 22.5889C454.458 22.5889 455.421 20.9951 455.421 17.9902C455.421 15.002 454.441 13.3584 452.831 13.3584C451.221 13.3584 450.241 15.002 450.241 17.9902C450.241 20.9951 451.204 22.5889 452.831 22.5889ZM459.14 24V22.6719L463.307 18.4717C464.618 17.0938 465.282 16.3301 465.282 15.2842C465.282 14.1055 464.319 13.3418 463.058 13.3418C461.729 13.3418 460.866 14.1885 460.866 15.4668H459.14C459.123 13.2754 460.8 11.8145 463.091 11.8145C465.415 11.8145 467.009 13.2754 467.025 15.2344C467.009 16.5791 466.378 17.6416 464.12 19.8662L461.68 22.3398V22.4395H467.225V24H459.14ZM469.25 24V22.6719L473.417 18.4717C474.729 17.0938 475.393 16.3301 475.393 15.2842C475.393 14.1055 474.43 13.3418 473.168 13.3418C471.84 13.3418 470.977 14.1885 470.977 15.4668H469.25C469.233 13.2754 470.91 11.8145 473.201 11.8145C475.525 11.8145 477.119 13.2754 477.136 15.2344C477.119 16.5791 476.488 17.6416 474.23 19.8662L471.79 22.3398V22.4395H477.335V24H469.25ZM491.247 10.5527V21.543H489.67V16.4795H485.586V15.2178H489.67V13.6572H485.586V12.3955H489.67V10.5527H491.247ZM491.629 23.8174V25.0957H481.552V20.5801H483.146V23.8174H491.629ZM481.286 11.582V18.0898C483.262 18.0898 485.138 17.9653 487.263 17.5752L487.429 18.8701C485.071 19.3184 483.062 19.4014 480.871 19.418H479.726V11.582H481.286ZM510.057 10.5361V25.4111H508.463V10.5361H510.057ZM505.624 12.1299C505.624 16.4795 503.765 20.2646 498.668 22.7051L497.838 21.4268C501.797 19.5425 503.723 16.8613 504.03 13.3916H498.552V12.1299H505.624ZM524.732 11.25V12.5117H520.2C520.292 14.1304 522.433 15.5581 525.197 15.8984L524.6 17.1436C522.051 16.8115 519.959 15.6245 519.154 13.9561C518.349 15.6162 516.266 16.8115 513.726 17.1436L513.128 15.8984C515.909 15.5581 518.025 14.1304 518.108 12.5117H513.626V11.25H524.732ZM525.978 18.1064V19.3848H520.067V22.2734H518.507V19.3848H512.364V18.1064H525.978ZM524.467 23.8174V25.0957H514.058V20.8457H515.635V23.8174H524.467Z" fill="#7F7F7F"/>
</svg>
