<svg width="224" height="280" viewBox="0 0 224 280" fill="none" xmlns="http://www.w3.org/2000/svg">
<g clip-path="url(#clip0_2046_3304)">
<path d="M224 228.601L213.508 228.58L210.875 228.99H131.616L128.983 228.58H117.906L114.893 228.99H66.8702L64.2366 228.58H52.3906L49.3777 228.99H11.6289C8.00897 228.213 4.26986 228.774 0.595769 228.591C-0.141215 228.558 -0.000321106 228.634 0.0321929 227.835H9.74305L10.3175 227.263V215.33C8.97355 215.405 7.72718 215.955 6.41578 216.204C5.88472 216.301 5.88472 216.646 5.36449 215.891L10.3933 206.32L19.6273 204.334L50.8299 204.399C51.1551 204.475 51.2526 204.712 51.3935 204.982C51.9029 205.996 54.0813 212.643 54.1355 213.625C54.1897 214.801 51.7295 213.959 51.0792 214.197V227.835H64.9844L65.5588 227.263V211.92L57.5604 213.247C57.4195 212.643 57.8421 212.319 58.0806 211.877C59.923 208.424 63.4129 204.852 65.3529 201.302C65.6455 200.882 66.0682 200.741 66.5234 200.569C69.5689 199.457 73.9474 199.187 77.1663 198.27L116.357 198.346L122.545 209.622C122.946 210.01 122.35 210.787 122.133 210.787H116.606V227.835H129.937V206.816L138.509 204.356H146.703V187.502L147.353 187.016L164.401 182.948C180.192 183.175 195.843 182.765 211.644 183.142C211.959 183.121 212.598 183.499 212.598 183.714V227.846H224.021V228.601H224ZM181.721 183.909H165.529L164.954 184.48V227.479H211.428V184.47L210.853 183.898H194.661V199.619L193.74 200.159L188.05 196.468L182.62 200.159L181.699 199.619V183.898L181.721 183.909ZM163.816 184.286L147.819 188.268V204.367H163.816V184.286ZM193.523 184.286H182.859V198.68L188.364 195.249L193.523 198.68V184.286ZM116.205 199.436H78.4994L83.6366 209.665H121.158L116.205 199.436ZM75.8332 199.824L66.0899 202.068L59.4462 211.941C59.8905 212.298 68.2575 210.042 69.5038 209.632L75.8332 199.824ZM76.5919 227.468V201.335C74.2834 202.975 72.2133 209.028 70.3275 210.442C69.4713 211.089 67.3904 211.121 66.3066 211.553V227.468H76.5919ZM115.446 210.798H83.2573L81.8592 208.78L78.1201 201.702V227.458H115.446V210.787V210.798ZM52.9759 213.452C52.3256 210.787 51.3177 207.895 50.1146 205.5H20.5919L23.258 213.452H52.965H52.9759ZM139.062 205.5C136.884 206.169 133.762 206.374 131.714 207.086C131.432 207.183 131.226 207.334 131.064 207.582V227.468H139.062V205.5ZM148.578 205.5H140.2V227.468H163.816V205.5H155.438V213.83C154.279 213.83 152.946 211.887 151.884 212.006C150.876 212.125 149.738 213.819 148.589 213.83V205.5H148.578ZM154.68 205.5H149.347V211.941C150.464 212.039 151.06 210.69 152.176 210.787C153.043 210.873 153.683 212.071 154.68 211.941V205.5ZM18.6952 205.877C18.3918 205.629 11.6722 207.161 11.087 207.593C10.7401 207.852 9.6997 209.816 9.35288 210.409C9.04942 210.938 7.06606 214.768 7.27198 214.963L15.1729 212.977L18.6952 205.877ZM19.0746 227.468V207.766L15.9424 213.733C14.4034 214.531 12.3442 214.24 11.0761 215.524V227.458H19.0746V227.468ZM22.4994 214.207L20.5919 209.287V227.468H49.9196V214.207H22.4994Z" fill="#F4F4F4"/>
<path d="M223.62 182.387C223.035 182.927 219.534 179.873 218.797 179.42C212.186 175.374 205.759 173.41 198.194 171.878C197.164 171.673 195.398 172.201 195.441 170.637C204.068 171.446 216.326 175.212 222.829 181.092C223.252 181.47 223.783 181.653 223.62 182.387Z" fill="#F4F4F4"/>
<path d="M212.902 172.967C213.118 173.28 213.162 174.283 212.381 174.046C211.775 173.873 210.669 173.064 209.889 172.74C203.7 170.161 196.666 168.683 189.968 168.316L189.34 167.237C195.669 167.464 202.259 168.813 208.198 171.014C208.87 171.262 212.761 172.751 212.902 172.967Z" fill="#F4F4F4"/>
<path d="M183.152 164.68C183.368 164.874 183.986 166.353 183.986 166.665C183.986 170.237 177.494 170.41 178.296 165.921C178.654 163.914 181.829 163.439 183.152 164.68ZM182.393 165.435C180.724 163.785 177.884 166.504 179.987 168.025C181.862 169.395 183.791 166.806 182.393 165.435Z" fill="#F4F4F4"/>
<path d="M113.539 186.174C113.127 186.606 110.819 184.308 111.252 183.909C112.488 183.747 113.691 184.923 113.539 186.174Z" fill="#F4F4F4"/>
<path d="M118.112 183.909C118.546 184.319 116.237 186.606 115.825 186.174C115.663 184.923 116.866 183.747 118.112 183.909Z" fill="#F4F4F4"/>
<path d="M113.539 188.073C113.702 189.325 112.499 190.501 111.252 190.339C110.819 189.929 113.127 187.642 113.539 188.073Z" fill="#F4F4F4"/>
<path d="M118.112 190.339C116.877 190.501 115.674 189.325 115.825 188.073C116.237 187.642 118.546 189.94 118.112 190.339Z" fill="#F4F4F4"/>
<path d="M124.583 194.892L125.905 193.004C127.26 193.274 125.006 195.313 124.583 194.892Z" fill="#F4F4F4"/>
<path d="M123.445 194.892C122.458 194.957 121.776 193.997 121.927 193.004C122.914 192.939 123.596 193.9 123.445 194.892Z" fill="#F4F4F4"/>
<path d="M123.444 195.647L122.111 197.536C120.822 196.942 123.119 195.334 123.444 195.647Z" fill="#F4F4F4"/>
<path d="M124.583 195.648C125.136 195.108 127.282 197.644 125.916 197.536C125.764 197.525 124.214 196.004 124.583 195.648Z" fill="#F4F4F4"/>
</g>
<defs>
<clipPath id="clip0_2046_3304">
<rect width="224" height="224" fill="white" transform="translate(0 56)"/>
</clipPath>
</defs>
</svg>
