<svg width="224" height="280" viewBox="0 0 224 280" fill="none" xmlns="http://www.w3.org/2000/svg">
<path d="M223.989 197.737V199.242C218.688 195.545 212.926 192.418 206.842 190.182C204.942 189.483 201.541 188.205 199.663 187.925C198.536 187.753 199.534 188.892 199.448 189.58C198.804 195.072 192.655 193.653 192.666 197.168C192.666 199.221 194.662 200.349 196.562 199.919C199.48 199.274 199.684 193.815 202.979 194.771C204.502 195.212 206.767 200.929 206.992 202.477C208.086 210.237 200.371 207.442 195.521 207.131C191.55 207.27 194.984 218.007 197.57 216.191C198.954 209.377 204.492 215.18 207.303 215.761C212.636 216.868 211.671 210.419 213.709 209.86C214.804 209.56 217.487 211.451 218.356 212.257C220.062 213.826 221.843 216.964 222.326 219.232C222.659 220.78 221.983 223.767 224 224.154V225.283C221.039 224.971 221.725 221.403 221.189 219.221C220.556 216.642 217.293 211.677 214.675 211C213.28 210.634 212.905 214.02 211.928 215.277C207.722 220.683 202.324 211.516 199.276 214.686C198.504 215.481 198.901 216.911 197.72 217.276C192.988 218.748 190.574 205.991 195.134 206.002C197.796 206.024 205.854 208.624 206.155 204.272C206.251 202.885 203.869 196.19 202.624 195.878C200.94 195.459 200.253 198.296 199.126 199.425C194.898 203.681 189.393 198.715 192.376 194.943C193.782 193.17 200.618 191.805 198.01 187.775C197.474 186.936 188.106 185.722 186.496 185.625C171.376 184.722 154.733 188.054 142.167 196.577C144.839 197.34 147.447 199.145 150.29 199.231C154.958 199.382 160.055 195.341 164.144 196.276C165.893 196.673 167.61 199.006 166.998 200.865C166.644 201.94 163.199 201.37 161.998 201.52C159.948 201.778 151.074 204.734 150.258 206.378C149.85 207.195 149.979 207.722 150.677 208.238C152.801 209.785 155.827 207.775 158.36 209.602C160.914 211.43 158.585 215.202 157.931 217.47C157.373 219.393 157.888 220.629 156.482 222.435C153.563 226.175 145.15 224.262 143.465 229.044C142.864 230.753 142.875 233.634 141.566 235.063C139.699 237.094 134.205 236.084 134.194 239.792C134.194 242.522 136.952 243.962 138.079 246.133C141.029 251.818 134.409 256.901 129.354 252.979C126.511 250.776 127.895 247.67 127.358 244.789C127.122 243.543 125.963 241.866 125.545 240.566C121.875 229.184 128.421 216.341 130.46 205.261C126.232 208.99 122.508 213.493 119.514 218.276C107.861 236.901 106.09 259.954 115.372 279.998H114.245C104.512 258.675 107.131 233.601 120.727 214.589C144.002 182.036 191.357 175.093 223.989 197.727V197.737ZM133.99 237.116C135.589 235.504 139.506 235.719 140.815 234.321C142.07 232.989 141.888 229.732 142.714 227.916C144.657 223.671 151.685 224.939 154.958 222.424C156.997 220.855 156.471 218.791 157.051 216.599C157.501 214.879 159.175 212.934 158.188 210.935C157.008 208.539 147.447 211.623 149.11 206.389C149.625 204.766 155.173 202.241 156.879 201.703C159.798 200.79 162.899 200.521 165.925 200.188C166.708 199.758 165.227 198.221 164.766 197.931C161.697 195.943 157.362 199.156 154.239 199.822C151.599 200.392 148.884 200.188 146.298 199.425C144.646 198.93 142.06 197.114 140.547 197.404C140.16 197.479 136.426 200.102 136.286 200.371C135.804 201.306 137.606 202.552 136.308 203.38L135.181 201.123C134.43 202.112 132.541 202.907 131.951 203.928C131.307 205.056 131.168 208.27 130.728 209.882C128.335 218.684 123.624 229.947 126.199 239.168C126.757 241.167 128.174 243.102 128.474 245.187C128.829 247.648 127.809 250.227 129.891 252.076C132.692 254.569 137.563 252.989 137.928 249.153C138.25 245.66 130.041 241.081 133.99 237.105V237.116Z" fill="#F4F4F4"/>
<path d="M46.1789 140.745C46.3721 140.713 46.7155 140.25 47.1232 140.358C45.1058 138.531 46.2433 135.511 49.0011 136.779C49.9562 137.22 50.9541 139.745 51.6516 140.164C52.5745 140.723 54.9889 140.164 56.1693 140.358C56.3839 140.175 54.828 137.736 56.6522 136.854C59.1847 135.629 59.8929 139.831 61.3308 140.283C63.3053 140.895 65.3656 139.391 67.3938 140.261C68.0805 140.551 71.1603 143.647 71.2676 144.313C71.4393 145.054 70.7203 145.011 70.2052 145.14C65.1618 146.462 58.1653 146.344 53.433 147.999C51.5658 148.655 49.6772 150.557 48.0246 151.664L56.3196 163.776C57.9614 164.851 63.2302 163.551 65.3227 164.195C66.149 164.453 67.8123 166.667 66.4495 167.452C64.4321 168.613 59.41 169.139 57.6824 170.375C56.5127 171.224 52.5316 177.533 51.7697 177.694C46.9837 175.33 51.5658 170.741 51.9414 167.033L42.3051 155.866C41.3608 155.63 37.5835 158.854 36.5212 159.499L28.2262 174.696C27.6897 174.814 27.6146 174.642 27.3034 174.309C27.0244 173.997 24.6314 169.881 24.61 169.612C24.5027 168.484 26.3913 165.603 26.3805 164.324C26.3698 163.045 22.2063 159.993 24.8353 158.671C26.6917 157.736 27.6361 160.058 28.2262 159.617C28.1941 158.542 29.3208 157.285 29.3637 156.371C29.4496 154.738 24.9963 151.686 27.3463 150.149C29.471 148.762 30.8982 152.04 31.2416 151.686L33.377 145.452C33.3663 143.915 25.2538 136.306 24.9104 132.91C24.728 130.685 27.1317 128.858 29.2028 129.009C32.8512 129.288 37.4118 138.219 40.1482 140.734C42.0261 140.53 44.3869 141.013 46.1789 140.734V140.745ZM57.4892 141.497C56.0727 141.895 53.0896 141.207 51.4585 141.497C50.6966 141.497 48.8402 136.424 47.1232 137.725C46.8764 139.315 49.0655 139.853 49.0011 141.497L39.5795 141.68L31.2523 131.147C28.7628 129.052 25.1358 130.556 26.2947 133.845C27.1639 136.317 34.7184 144.044 34.5896 145.388C33.8707 146.495 31.9928 153.588 31.0914 153.556C30.1793 152.556 29.5461 150.761 27.8829 150.922C27.958 153.685 31.0163 153.899 30.3617 156.984C30.1793 157.855 28.8916 161.853 27.8721 161.315C27.4214 161.079 25.6079 158.327 25.2323 160.176C25.5865 161.541 27.3678 162.583 27.5073 163.98C27.6575 165.539 25.9728 167.57 25.9835 169.236C25.9835 170.569 27.2712 171.568 27.7004 172.815C28.0438 172.525 28.3336 172.191 28.5804 171.815C30.909 168.344 33.5487 161.229 36.0168 158.499C36.4246 158.048 41.2535 154.77 41.8544 154.523C42.1978 154.383 42.5626 154.168 42.9275 154.372L53.1003 166.667C53.5939 168.236 48.6148 176.243 51.8341 176.211C52.2633 176.211 55.9869 170.268 57.1673 169.462C58.9808 168.215 63.4985 167.817 65.3656 166.775C65.7519 166.56 65.7305 166.108 65.6017 165.829C65.0437 164.529 57.4034 165.775 55.8045 165.066L46.3721 151.492L53.0788 146.86L69.379 144.109C67.0826 140.068 64.2496 141.357 60.3221 140.906C59.2061 140.358 58.2618 136.274 56.5556 138.262L58.015 140.573C58.176 140.884 57.6716 141.411 57.4892 141.465V141.497Z" fill="#F4F4F4"/>
<path d="M117.646 189.43V188.302C118.763 188.409 120.211 187.861 121.038 188.871C120.211 189.871 118.763 189.323 117.646 189.441V189.43Z" fill="#F4F4F4"/>
<path d="M98.4067 189.054C97.2263 188.947 95.0264 189.656 95.0156 187.926C96.1961 188.033 98.396 187.324 98.4067 189.054Z" fill="#F4F4F4"/>
<path d="M113.119 189.43V188.302C114.235 188.409 115.684 187.861 116.51 188.871C115.684 189.871 114.235 189.323 113.119 189.441V189.43Z" fill="#F4F4F4"/>
<path d="M134.163 196.309C134.388 196.459 135.976 198.942 134.796 199.243C134.077 199.232 131.995 194.901 134.163 196.309Z" fill="#F4F4F4"/>
<path d="M130.654 192.461C131.008 192.472 133.83 195.535 132.167 195.47C131.813 195.459 128.99 192.396 130.654 192.461Z" fill="#F4F4F4"/>
<path d="M77.2878 184.154C77.8458 184.078 80.6467 184.54 80.6681 185.099C80.7111 186.099 76.9444 185.594 77.2878 184.154Z" fill="#F4F4F4"/>
<path d="M89.3603 186.786C89.6178 188.538 85.8189 187.786 85.9692 186.41L89.3603 186.786Z" fill="#F4F4F4"/>
<path d="M99.5436 188.302C100.649 188.42 102.098 187.861 102.924 188.861C102.935 189.581 99.2538 190.011 99.5436 188.302Z" fill="#F4F4F4"/>
<path d="M108.59 189.43C108.301 187.711 111.992 188.141 111.971 188.872C111.144 189.871 109.696 189.323 108.59 189.43Z" fill="#F4F4F4"/>
<path d="M61.4499 175.846C62.0402 175.33 64.2079 177.254 64.0898 177.909C63.9825 178.511 63.6391 178.425 63.1455 178.103C62.8128 177.888 61.0636 176.179 61.4499 175.835V175.846Z" fill="#F4F4F4"/>
<path d="M67.8663 180.746C67.1795 180.907 66.7824 180.531 66.2351 180.295C65.8702 180.133 64.6683 179.596 64.8508 179.048C65.1942 178.027 66.6 179.198 67.0078 179.521C67.4585 179.876 68.038 179.951 67.8663 180.735V180.746Z" fill="#F4F4F4"/>
<path d="M72.0091 181.885L71.4511 183.003C67.5664 181.24 68.2639 179.951 72.0091 181.885Z" fill="#F4F4F4"/>
<path d="M84.8314 186.787L82.0627 186.421C80.5818 184.562 84.8421 185.26 84.8314 186.787Z" fill="#F4F4F4"/>
<path d="M91.0669 187.162C91.4854 187.076 93.8678 187.7 93.8785 188.108C93.9 189.043 91.0669 188.377 90.6698 187.925C90.3157 187.721 90.9596 187.184 91.0562 187.173L91.0669 187.162Z" fill="#F4F4F4"/>
<path d="M76.1622 183.401C76.4412 185.636 72.4384 183.272 73.1467 182.648L76.1622 183.401Z" fill="#F4F4F4"/>
<path d="M126.897 190.183C127.509 190.376 129.473 191.042 129.344 191.881C129.183 192.848 128.507 192.074 128.185 191.913C127.498 191.569 125.663 190.967 126.897 190.183Z" fill="#F4F4F4"/>
<path d="M125.191 189.43C125.46 190.978 123.206 189.828 122.423 189.806L122.176 188.667L125.191 189.43Z" fill="#F4F4F4"/>
<path d="M195.703 173.954C194.877 173.997 194.072 173.406 193.739 172.707C192.902 170.901 196.229 172.363 195.703 173.954Z" fill="#F4F4F4"/>
<path d="M107.463 188.678C106.905 189.935 105.145 189.301 104.072 189.43L104.62 188.42L107.463 188.678Z" fill="#F4F4F4"/>
<path d="M210.79 183.014C209.61 183.186 208.741 182.326 208.912 181.133C209.932 181.165 211.059 181.799 210.79 183.014Z" fill="#F4F4F4"/>
<path d="M207.4 181.133C207.85 181.542 205.972 183.476 205.135 183.014C204.685 182.606 206.563 180.671 207.4 181.133Z" fill="#F4F4F4"/>
<path d="M210.79 177.727C211.23 178.576 209.589 179.984 209.095 179.984C207.635 179.962 210.35 177.243 210.79 177.727Z" fill="#F4F4F4"/>
<path d="M205.705 177.726C206.681 177.544 208.087 180.037 206.831 179.983C206.692 179.983 204.395 177.974 205.705 177.726Z" fill="#F4F4F4"/>
<path d="M191.754 171.697C193.01 171.643 191.604 174.137 190.627 173.954C189.318 173.707 191.615 171.708 191.754 171.697Z" fill="#F4F4F4"/>
<path d="M195.703 168.677C196.154 169.086 194.276 171.02 193.439 170.558C192.988 170.15 194.866 168.215 195.703 168.677Z" fill="#F4F4F4"/>
<path d="M192.312 170.558C191.475 171.02 189.608 169.086 190.048 168.677C190.885 168.215 192.752 170.15 192.312 170.558Z" fill="#F4F4F4"/>
<path d="M172.46 224.66C173.909 223.177 177.107 222.586 179.017 223.317C179.757 223.596 180.54 224.617 181.281 224.821C183.105 225.305 185.198 224.434 187.14 225.369C190.627 227.068 188.868 230.765 191.368 232.463C194.78 234.773 206.96 234.924 204.964 241.533C204.427 243.307 202.045 244.639 201.766 247.025C201.444 249.787 203.901 252.012 202.442 254.86C201.723 256.268 196.905 259.052 195.317 260.556C191.282 264.382 188.02 269.874 181.217 269.025C174.274 268.155 175.808 261.47 175.336 256.795C174.842 251.84 171.977 253.635 169.112 251.7C165.614 249.336 165.517 239.395 167.47 236.085C168.264 234.741 170.26 233.742 170.84 232.28C171.795 229.851 170.357 226.788 172.449 224.639L172.46 224.66ZM175.626 224.241C170.883 225.111 173.125 230.098 171.655 233.097C170.743 234.978 168.576 235.579 167.782 238.277C167.073 240.706 167.138 246.499 168.221 248.82C169.928 252.496 174.596 251.163 175.819 254.054C177.268 257.493 174.327 266.413 180.605 267.757C187.784 269.294 190.928 262.845 195.328 259.052C196.959 257.644 200.8 255.709 201.691 254.097C202.667 252.334 200.521 249.658 200.629 247.412C200.79 244.005 204.502 242.092 203.998 239.448C203.365 236.16 193.589 235.16 190.821 233.376C188.277 231.743 189.34 230.141 188.234 228.035C186.593 224.886 183.824 226.53 181.259 225.95C179.199 225.488 179.049 223.607 175.615 224.23L175.626 224.241Z" fill="#F4F4F4"/>
<path d="M137.628 209.054C137.51 210.161 138.068 211.612 137.06 212.44C136.341 212.451 135.911 208.764 137.628 209.054Z" fill="#F4F4F4"/>
<path d="M137.253 204.53C138.144 208.002 136.695 209.56 136.244 205.078L137.253 204.53Z" fill="#F4F4F4"/>
</svg>
