<svg width="224" height="280" viewBox="0 0 224 280" fill="none" xmlns="http://www.w3.org/2000/svg">
<g clip-path="url(#clip0_2046_3305)">
<path d="M224 189.579L179.098 171.1C182.402 164.947 182.706 157.699 191.732 160.705C199.165 163.179 206.533 167.053 213.923 169.744C214.248 169.82 216.057 164.188 216.566 163.645C217.238 162.94 219.579 163.71 220.196 164.22C221.811 165.555 217.585 171.154 218.289 171.653L224 173.563V174.323L189.12 160.629C184.732 160.216 182.966 163.71 181.72 167.259L224 184.23V184.989L182.207 168.279C181.102 167.888 180.105 170.297 180.192 171.067L223.989 188.418V189.558L224 189.579ZM219.763 164.861L217.173 164.079L214.887 170.123C215.754 170.254 216.707 171.274 217.531 170.742C218.029 170.416 220.131 165.381 219.763 164.861Z" fill="#F4F4F4"/>
<path d="M223.999 198.348V198.727C223.371 199.172 222.645 199.096 221.919 199.129C207.985 199.617 193.953 198.749 180.008 199.107C178.469 199.01 176.779 200.952 176.779 202.352V219.692H176.399V200.822C176.399 200.095 178.675 198.228 179.618 198.326L223.999 198.348Z" fill="#F4F4F4"/>
<path d="M223.999 202.547V202.927L180.961 202.731L223.999 202.547Z" fill="#F4F4F4"/>
<path d="M169.931 133.935C168.165 139.057 169.064 144.135 168.804 149.387C168.576 154.01 168.143 158.827 167.601 163.428C166.995 168.615 166.117 173.867 164.546 178.858L141.152 175.495C142.041 169.635 143.623 163.862 144.706 158.046C144.782 157.645 145.107 156.722 144.424 156.809L137.587 174.561L126.524 170.536C126.221 170.785 129.374 172.521 128.074 174.551L114.757 184.501L128.052 225.41L73.9835 237.997L65.8028 196.057L48.8563 192.824C47.8161 192.151 48.0003 190.957 48.1736 189.872C48.8021 185.912 52.4536 173.042 54.1006 169.516C55.5309 166.456 63.224 160.173 66.3446 159.283C69.0751 158.502 72.9975 158.719 76.0098 158.285C78.4369 157.938 81.1999 157.33 83.5729 156.711C86.7368 155.887 94.4408 152.284 96.6403 152.23C99.425 152.154 107.346 153.445 109.849 154.65C112.904 156.126 114.79 158.968 117.379 161.019C120.305 152.903 124.531 145.383 128.746 137.896C131.054 133.783 134.369 129.888 135.312 125.222L169.942 133.968L169.931 133.935ZM150.124 129.367L136.58 125.938C135.724 125.938 135.355 127.316 135.279 128.054C135.193 128.911 135.377 128.466 135.832 128.607C140.199 129.964 144.76 130.864 149.181 132.047C150.135 132.112 149.896 130.007 150.124 129.378V129.367ZM164.546 176.189C165.423 175.571 167.46 158.871 167.634 156.603C167.97 152.284 167.883 147.987 168.013 143.647C168.056 142.366 168.956 139.209 168.219 138.102L134.868 129.15C128.496 139.588 122.028 150.179 117.943 161.757L121.973 165.718L137.934 172.044C140.502 165.631 142.626 158.947 145.378 152.61C145.66 151.959 145.768 150.808 146.7 151.08L142.539 173.162L164.546 176.189ZM153.927 130.517L150.893 129.747L150.124 132.416L153.548 133.186L153.927 130.528V130.517ZM168.371 136.952C168.371 136.29 169.476 134.923 168.793 134.499L154.696 130.886L154.317 133.544L168.371 136.952ZM127.164 174.616C127.619 174.03 127.879 173.205 127.304 172.608L111.637 156.646C108.408 154.172 101.809 153.163 97.7564 152.99C93.7039 152.816 95.1342 154.042 94.1699 156.636C91.2335 164.492 78.7836 167.367 71.8598 163.298C69.4652 161.887 68.7717 158.914 65.8353 160.303C61.2303 162.473 55.8126 166.901 54.0572 171.762C52.497 176.081 49.6256 185.51 48.9213 189.872C48.7913 190.686 48.6287 191.728 49.3764 192.292L65.5969 194.929L65.1744 191.934L50.3732 189.981L51.5109 189.384L64.8493 191.131C65.2177 190.762 63.1265 182.396 62.9748 180.996C62.8881 180.237 63.0506 180.443 63.7116 180.454L74.4061 236.836L126.936 225.051L109.036 169.603C109.448 169.125 109.881 170.319 109.99 170.557C111.192 173.292 112.005 176.808 112.85 179.705L125.029 172.077C125.181 172.793 124.682 172.999 124.238 173.379C121.388 175.864 116.946 177.763 113.955 180.247C113.175 180.779 113.988 183.383 114.562 183.514L127.196 174.637L127.164 174.616ZM69.0101 159.478C70.5054 162.397 74.7528 164.199 77.9384 164.448C84.7647 164.969 93.0213 161.084 94.1374 153.76C86.2384 157.135 77.6351 159.37 69.0101 159.478ZM137.555 172.435L123.079 167.096C126.373 170.981 132.701 171.295 136.98 173.943L137.544 172.424L137.555 172.435ZM164.21 177.003L142.116 173.954L142.344 175.126C149.593 176.222 156.896 177.632 164.21 178.142V177.003Z" fill="#F4F4F4"/>
<path d="M24.834 170.145L23.8046 169.842C16.8049 165.035 8.61339 161.302 1.64623 156.582C1.02862 156.158 -0.0224164 155.844 0.0967729 154.9L24.238 168.974L44.0776 135.086C44.8361 134.966 44.7711 135.238 44.4569 135.845C44.0126 136.692 41.1304 140.934 41.2171 141.368C41.488 141.792 41.748 141.824 42.1923 141.933C44.4352 142.454 47.0899 142.584 49.4086 143.094C49.9504 143.213 50.5897 143.094 50.7414 143.853L40.7187 142.302L39.7001 144.233C43.1241 144.244 46.5806 145.264 49.9829 145.6C50.3838 145.644 50.6005 145.893 50.9364 145.383C51.8033 144.07 51.3915 140.717 51.5107 139.09C51.8141 135.042 52.9843 130.724 51.0556 126.958C50.6439 126.144 47.3066 121.782 46.6781 121.392C45.5404 120.686 44.1318 122.336 42.5607 122.509C35.5502 123.312 28.778 118.668 29.7641 111.094C26.2426 110.432 22.9486 109.076 19.3621 109.955C14.5837 111.127 9.46939 115.554 4.70181 117.192C4.51761 117.702 4.66931 118.18 4.86434 118.657C5.8612 121.088 9.52356 123.963 10.3796 126.676L11.864 125.016C10.3904 122.976 8.59172 121.088 7.18312 119.004C6.9339 118.646 5.89371 117.464 6.18626 117.149C6.99892 116.964 7.04226 117.594 7.41066 118.017C8.13663 118.863 12.0374 124.376 12.4708 124.376L17.0433 118.668L17.2384 119.243L0.0859375 141.944L0.454341 140.218L9.93531 127.566C10.2062 125.992 4.00835 120.068 3.87832 118.093C3.79164 116.671 6.58717 115.51 7.82241 114.816C14.9521 110.812 20.8574 106.971 29.2982 110.226C31.281 110.996 35.756 115.196 38.4324 116.715C43.6659 119.699 46.9923 119.58 50.6655 125.048C51.5974 126.437 52.4534 127.837 52.6376 129.552C53.1793 134.608 51.9875 140.674 51.7057 145.774C50.8714 147.044 41.2604 144.58 39.31 144.776L24.834 170.145ZM45.0203 120.968C45.3237 120.567 40.5236 118.744 40.0577 118.505C36.677 116.737 33.6648 114.371 30.5442 112.212C29.8616 119.362 38.9633 124.224 45.0095 120.979L45.0203 120.968Z" fill="#F4F4F4"/>
<path d="M35.2146 208.927C36.7099 210.435 42.366 211.564 43.6662 214.385L50.2541 229.479C50.2325 230.466 49.669 230.955 48.8347 231.324C47.2527 232.018 38.3677 233.548 37.956 234.156L35.8864 262.011L0.0862728 257.431C0.0862728 256.791 -0.130435 256.596 0.628042 256.694C12.1244 258.169 23.6207 259.829 35.1171 261.251L37.9668 223.131L38.5411 222.751L38.1618 230.38C38.5627 230.825 47.0577 228.025 48.4446 228.665C46.4942 230.228 39.7113 230.163 38.151 231.324C37.6092 231.725 37.7826 232.441 37.7826 233.049C38.1618 233.429 47.166 231.161 48.2387 230.749C48.7155 230.564 49.4306 230.325 49.5282 229.75C49.7124 228.719 44.0021 217.131 43.2761 215.156C41.3366 212.399 38.151 211.445 35.3555 209.828C33.4268 211.596 30.3929 216.024 27.4023 215.438C26.503 215.264 25.8203 214.32 24.8343 214.364L24.1083 219.854C23.6424 220.527 19.9584 219.778 19.0807 219.474C18.2464 218.357 19.6116 214.711 19.4925 213.213C15.0499 216.143 12.4603 210.088 11.0734 206.779C7.05343 207.224 2.86013 207.951 0.259639 211.314C-0.325472 209.394 3.34773 207.766 4.92969 207.224C6.69586 206.627 9.31803 206.54 10.8241 205.878C12.5361 205.129 13.0671 202.742 15.4942 202.525C17.9213 202.308 21.3236 203.914 23.87 204.066L32.1699 204.522C33.6218 204.945 34.3586 208.07 35.2038 208.916L35.2146 208.927ZM15.5592 203.024C14.7574 203.111 11.9294 205.802 11.9077 206.529C11.9944 207.918 14.8983 212.812 15.9601 213.148C18.2247 213.854 20.5868 211.466 22.7106 211.694C24.9318 211.933 26.1671 215.242 28.7459 214.678C30.3604 214.32 34.9221 210.186 34.1527 208.287C32.2674 203.588 28.3341 205.184 24.3034 204.793C22.2338 204.587 16.8161 202.894 15.5484 203.035L15.5592 203.024ZM24.4117 213.257C22.9598 212.519 21.9087 212.215 20.3376 212.899L19.5466 218.888L23.6858 219.312L24.4117 213.268V213.257Z" fill="#F4F4F4"/>
<path d="M33.5997 257.812C33.5997 258.452 33.8164 258.647 33.0579 258.549L0.66012 254.383L0.0966797 253.623L33.6105 257.812H33.5997Z" fill="#F4F4F4"/>
<path d="M0.162203 152.165L0.270556 151.091L24.4443 165.761C23.9134 166.706 22.9599 165.61 22.2989 165.251C14.7791 161.182 7.73614 156.147 0.151367 152.165H0.162203Z" fill="#F4F4F4"/>
<path d="M27.8786 112.212C27.0009 120.892 38.6815 127.11 45.9629 123.258L46.1579 124.017C39.505 127.815 27.7052 121.999 27.0985 114.317C27.0443 113.59 26.73 111.832 27.8786 112.201V112.212Z" fill="#F4F4F4"/>
<path d="M4.65878 218.552L0.0862495 239.137C-0.119623 235.849 0.942245 232.648 1.63571 229.468C1.5707 229.078 -0.260483 228.774 0.0862495 227.7L1.98244 228.459C1.97161 227.841 2.1233 227.092 1.79824 226.549C1.31065 225.746 -0.423014 226.3 0.0754141 224.65L2.35085 225.79C2.92512 223.696 3.17434 221.46 3.77028 219.377C3.96532 218.715 3.61859 218.379 4.63711 218.552H4.65878Z" fill="#F4F4F4"/>
<path d="M123.079 221.222C123.263 222.339 122.808 221.84 122.191 222.025C120.511 222.535 118.712 222.904 116.99 223.316C103.456 226.615 89.8144 229.544 76.2376 232.648C76.0534 231.53 76.5085 232.029 77.1262 231.845C78.8056 231.335 80.6043 230.966 82.3271 230.554C95.8605 227.255 109.502 224.314 123.079 221.222Z" fill="#F4F4F4"/>
<path d="M97.5723 155.659C98.71 155.985 97.8324 158.144 97.529 158.86C93.3465 168.583 73.106 172.684 66.3447 163.472C67.1899 162.246 67.71 164.08 68.2843 164.579C73.8753 169.462 84.1906 168.42 90.3451 165.002C93.9533 163.005 96.9655 159.88 97.5832 155.659H97.5723Z" fill="#F4F4F4"/>
<path d="M163.831 175.104C163.17 175.115 163.018 175.321 163.094 174.562C163.246 173.162 163.852 171.621 164.102 170.232C164.351 168.843 164.383 167.433 164.589 166.141C164.676 165.577 164.611 164.969 165.348 164.807L163.82 175.093L163.831 175.104Z" fill="#F4F4F4"/>
<path d="M31.314 205.596C31.4223 206.323 31.2598 206.638 30.7505 207.126C29.4936 208.363 24.4769 211.109 22.7757 210.935C20.9445 210.74 15.8085 205.846 15.7002 203.697C17.4555 205.184 20.4244 209.861 22.7649 210.175C25.1053 210.49 29.6128 207.191 31.3032 205.596H31.314Z" fill="#F4F4F4"/>
</g>
<defs>
<clipPath id="clip0_2046_3305">
<rect width="224" height="224" fill="white" transform="translate(0 56)"/>
</clipPath>
</defs>
</svg>
