<svg width="224" height="280" viewBox="0 0 224 280" fill="none" xmlns="http://www.w3.org/2000/svg">
<g clip-path="url(#clip0_2046_3301)">
<g clip-path="url(#clip1_2046_3301)">
<path d="M0.054177 193.814L2.14541 193.056C4.01993 193.283 2.56799 192.254 2.71968 191.724C2.76302 191.572 3.06642 191.485 3.09892 191.345C3.22895 190.716 3.09892 190.088 3.47816 189.438C3.60818 189.211 5.42853 187.391 5.56939 187.348C5.95946 187.24 6.62042 186.991 6.70711 186.969C7.30305 186.85 8.57079 187.229 8.79834 186.395C8.95003 185.854 8.7875 185.16 9.17758 184.489C9.66517 183.677 10.9654 182.886 11.648 182.399C12.3849 182.594 12.8508 181.803 13.5551 182.02C14.1619 182.215 14.4436 182.247 15.0829 182.399C15.2237 182.431 15.4621 182.994 16.2206 182.778C16.4265 182.724 18.1059 180.991 18.5068 180.872C18.7452 180.807 19.0378 180.947 19.2653 180.872C19.4279 180.817 19.5037 180.514 19.6446 180.493C20.1755 180.395 22.2017 180.384 22.6893 180.493C22.971 180.558 23.762 181.381 24.2171 181.251C24.3363 181.218 25.2898 180.233 25.7449 180.114C26.0591 180.027 26.5359 180.189 26.8826 180.114C27.0343 180.081 27.1427 179.594 27.6411 179.734C27.7928 179.778 27.8795 180.081 28.0203 180.114C28.367 180.189 28.8438 180.027 29.158 180.114C30.1766 180.395 31.9536 182.323 32.9613 182.02C33.113 181.976 33.1996 181.662 33.3405 181.641C33.8173 181.554 35.5617 181.543 36.006 181.641C36.136 181.673 36.2227 181.944 36.3852 182.02C36.5044 182.074 36.6886 181.965 36.7645 182.02C36.9704 182.139 37.978 183.146 38.0972 183.352C38.1406 183.428 38.4656 184.067 38.4765 184.11C38.5632 184.467 38.3681 185.312 38.4765 185.442C38.6282 185.637 38.9207 185.085 39.0507 185.063C39.495 184.976 41.2937 184.965 41.7163 185.063C41.8463 185.095 41.933 185.366 42.0955 185.442C42.2147 185.496 42.3989 185.388 42.4747 185.442C42.7023 185.572 44.5335 187.391 44.566 187.532C44.696 187.998 44.8802 188.431 44.9452 188.669C45.021 188.951 44.8693 189.536 44.9452 189.623C45.1186 189.796 46.2346 189.059 47.0364 189.243C47.1773 189.276 47.264 189.579 47.4157 189.623C47.6649 189.698 47.9683 189.536 48.1741 189.623C48.3258 189.677 48.4017 189.926 48.5534 190.002C48.6726 190.056 48.8568 189.947 48.9326 190.002C49.1385 190.121 50.1462 191.128 50.2654 191.334C50.2979 191.399 50.6338 192.049 50.6446 192.092C50.818 192.623 50.2437 193.413 51.5981 193.045C51.7498 193.002 51.8365 192.688 51.9774 192.666C53.516 192.438 56.1598 192.742 57.3084 193.424C57.9693 193.814 58.2185 194.864 59.2154 194.561C60.7107 194.106 60.2014 194.269 61.5017 194.561C61.8484 194.637 62.336 194.475 62.6394 194.561C62.7911 194.604 62.8669 194.897 63.0186 194.94C63.2462 195.016 63.5387 194.875 63.7771 194.94C63.918 194.984 65.8358 196.89 65.8683 197.03C65.9767 197.442 65.7491 198.623 65.8683 198.742C65.9659 198.839 66.8435 198.666 67.2011 198.742C67.2878 198.763 68.653 199.456 68.7289 199.5C69.6499 200.106 70.0616 201.005 70.4409 201.969C70.5059 202.132 70.7876 202.207 70.8201 202.348C71.091 203.583 70.5601 204.092 70.0616 205.012C70.0075 205.11 70.1158 205.294 70.0616 205.391C69.7366 205.965 68.7939 206.041 69.8666 206.724C71.026 207.449 70.8418 207.363 71.5786 208.435C71.752 208.695 72.2937 209.02 72.3371 209.193C72.4237 209.507 72.2612 209.994 72.3371 210.33C72.3696 210.471 72.9438 210.731 72.7163 211.467C72.673 211.619 72.3804 211.695 72.3371 211.846C72.207 212.258 72.2179 212.94 71.9578 213.363C71.7736 213.677 70.8201 214.348 70.8201 214.5C70.8201 214.727 72.3479 215.42 72.7271 216.016C72.8355 216.189 73.0089 216.893 73.1064 217.153C73.1714 217.316 73.4531 217.391 73.4856 217.532C73.5723 217.933 73.5723 219.796 73.4856 220.197C73.4531 220.327 73.1822 220.413 73.1064 220.576C73.0522 220.695 73.1606 220.879 73.1064 220.955C72.9547 221.204 71.2644 222.893 71.0151 223.045C70.9285 223.099 70.7551 222.991 70.6359 223.045C70.4734 223.121 70.3975 223.391 70.2567 223.424C69.9424 223.511 69.4549 223.348 69.119 223.424C68.9673 223.456 68.8806 223.781 68.7397 223.803C67.407 223.998 64.8498 223.879 63.4087 223.803C43.7641 222.742 23.632 221.734 3.99826 220.381C2.67634 220.294 1.32192 220.446 0 220.381V219.243C2.58966 219.319 5.21182 219.146 7.80148 219.243C25.0298 219.893 42.7348 221.529 59.9739 222.287C62.401 222.395 64.6223 221.994 66.8327 222.666C67.5803 222.893 67.862 222.308 67.9704 222.287C68.4363 222.2 69.0539 222.384 69.4982 222.287C69.6391 222.254 70.4192 221.615 70.6359 221.529C70.8418 221.442 71.1452 221.594 71.2102 221.529C71.286 221.453 71.1127 221.139 71.2102 220.955C71.4594 220.5 72.1312 220.002 72.3479 219.438C72.2829 218.962 72.4454 218.345 72.3479 217.922C72.3154 217.792 72.0445 217.706 71.9687 217.543C71.9145 217.424 72.0228 217.24 71.9687 217.164C71.8278 216.937 70.8851 215.994 70.6359 215.832C70.4734 215.724 69.6932 215.561 69.4982 215.453C69.0756 215.215 68.4147 214.868 68.1654 214.5C68.0896 214.381 69.379 214.034 69.4982 213.547C69.9099 213.612 70.6142 212.962 70.8309 212.594C70.8851 212.507 70.7768 212.334 70.8309 212.215C70.9068 212.052 71.1777 211.965 71.2102 211.836C71.286 211.5 71.286 210.265 71.2102 209.929C71.1777 209.799 70.9068 209.713 70.8309 209.55C70.7768 209.431 70.8851 209.247 70.8309 209.171C70.6901 208.944 69.7474 208.002 69.4982 207.839C69.3357 207.731 68.5663 207.568 68.3605 207.46C68.1004 207.319 67.0277 206.68 67.0277 206.507C67.0277 206.258 69.2056 204.601 69.314 204.222C69.3898 203.951 69.379 202.63 69.314 202.316C69.2815 202.186 69.0106 202.099 68.9348 201.937C68.8806 201.817 68.9889 201.633 68.9348 201.558C68.8156 201.352 67.8079 200.355 67.602 200.225C67.5262 200.182 66.8869 199.857 66.8435 199.846C66.3668 199.738 64.8715 199.976 64.7523 199.846C64.6439 199.738 64.839 198.233 64.7523 197.756C64.7306 197.626 64.4381 197.54 64.3731 197.377C64.2864 197.171 64.4381 196.868 64.3731 196.803C64.2972 196.727 63.983 196.901 63.7988 196.803C63.5387 196.662 63.2353 196.099 63.0403 196.045C62.8019 195.98 62.5094 196.121 62.2818 196.045C62.1193 195.991 62.0434 195.688 61.9026 195.666C61.2958 195.558 59.4971 195.568 58.8578 195.666C58.717 195.688 58.6303 196.002 58.4786 196.045C57.265 196.381 57.6659 195.72 57.5251 195.471C57.2867 195.049 56.1923 194.29 55.8131 194.139C55.6072 194.052 55.293 194.204 55.0546 194.139C54.9029 194.095 54.8162 193.781 54.6754 193.76C54.3286 193.695 53.4943 193.695 53.1476 193.76C53.0067 193.781 52.92 194.106 52.7684 194.139C52.1182 194.28 51.143 194.29 50.4821 194.518C50.3304 194.572 50.2545 194.832 50.1028 194.897C49.106 195.308 49.6911 193.521 49.5286 192.807C49.5286 192.763 49.1927 192.124 49.1493 192.049C48.3692 190.749 46.9823 190.456 45.5303 190.716C45.4653 190.727 44.631 191.009 44.3926 191.095C44.2951 191.128 43.7316 191.789 43.4391 191.475C43.179 191.204 44.0459 187.901 42.4856 186.915C42.3989 186.861 42.2147 186.969 42.1063 186.915C41.337 186.493 40.8277 185.919 39.8201 186.157C39.6792 186.189 39.5925 186.493 39.4408 186.536C39.2024 186.601 38.8991 186.46 38.6823 186.536C38.4331 186.623 37.2737 187.597 36.9703 187.294C36.5803 186.904 37.3062 186.124 37.3496 185.962C37.5555 185.247 36.7753 184.803 36.9703 184.056C36.6345 183.807 36.3419 183.298 36.0168 183.103C35.9302 183.049 35.7568 183.157 35.6376 183.103C35.1717 182.886 34.9875 182.529 34.1098 182.724C33.9798 182.756 33.1021 183.449 32.9721 183.482C31.3793 183.839 31.2601 182.529 30.3066 181.965C29.8732 181.706 29.2122 181.706 28.7788 181.586C28.6271 181.543 28.5404 181.229 28.3996 181.207C28.0095 181.142 26.8501 181.132 26.4925 181.207C25.8316 181.359 24.8347 182.659 24.5855 182.724C24.1196 182.854 23.5236 182.518 23.0577 182.345C22.7435 182.225 21.7791 181.641 21.5299 181.586C20.5981 181.37 20.3272 181.868 20.0021 181.965C19.7529 182.041 19.4495 181.879 19.2437 181.965C19.092 182.02 19.0161 182.269 18.8644 182.345C18.2576 182.626 17.1308 183.406 16.7732 184.056C16.6757 184.24 16.849 184.554 16.7732 184.63C16.5565 184.846 14.682 183.817 14.3027 183.493C13.6309 183.601 12.6016 183.33 12.0164 183.493C11.8214 183.547 11.518 184.11 11.258 184.251C11.0738 184.348 10.7595 184.175 10.6837 184.251C10.6187 184.316 10.7704 184.619 10.6837 184.825C10.5862 185.052 9.94689 185.832 9.92522 185.962C9.79519 186.547 10.0769 188.669 9.92522 188.81C9.61099 189.124 9.02588 188.442 8.9717 188.431C8.53829 188.355 6.66377 188.334 6.3062 188.431C6.11116 188.485 5.80777 189.049 5.54772 189.189C5.36352 189.287 5.04929 189.114 4.97344 189.189C4.8976 189.265 5.07096 189.579 4.97344 189.763C4.83258 190.023 4.26914 190.337 4.21497 190.521C4.11745 190.868 4.14995 192.363 4.21497 192.807C4.23664 192.947 4.55086 193.034 4.59421 193.186C4.98428 194.583 4.07411 193.976 3.26145 194.139C2.9689 194.204 2.15624 194.41 1.73366 194.518C1.35442 194.626 0.650123 195.46 0.0216708 195.276V193.76L0.054177 193.814Z" fill="white"/>
<path d="M222.635 215.105C222.896 215.701 223.882 215.387 223.968 215.484C224.012 215.528 224.012 216.589 223.968 216.621C223.773 216.816 219.211 216.676 218.442 216.621C218.301 216.621 218.204 216.253 218.063 216.242C217.434 216.177 215.495 216.112 215.018 216.242C214.823 216.297 213.815 217.401 213.685 217.759C214.292 217.65 214.422 218.073 215.018 218.138C216.557 218.311 218.377 218.04 219.97 218.138C220.1 218.138 220.219 218.506 220.349 218.517C221.021 218.571 223.838 218.387 223.968 218.517C224.022 218.571 224.022 219.99 223.968 220.033C223.925 220.076 222.885 220.087 222.635 220.033C220.923 219.686 218.269 219.372 216.546 219.275C215.538 219.221 212.331 219.069 211.594 219.275C211.399 219.329 210.391 220.434 210.261 220.791C210.933 220.845 211.703 220.704 212.353 220.791C212.494 220.813 212.591 221.159 212.732 221.17C215.961 221.473 219.342 221.408 222.635 221.549C222.896 222.145 223.882 221.831 223.968 221.928C224.012 221.972 224.012 223.033 223.968 223.065C223.827 223.206 220.588 223.109 219.97 223.065C218.388 222.957 215.831 222.383 214.26 222.307C213.046 222.242 209.037 222.069 208.17 222.307C207.899 222.383 207.206 223.401 206.837 223.64L210.456 223.834C214.108 224.43 218.193 224.495 221.877 224.972C222.354 225.037 223.871 224.874 223.968 224.972C224.012 225.015 224.012 226.076 223.968 226.109C223.882 226.195 223.286 226.022 223.015 226.109C222.56 226.239 217.109 231.708 216.156 232.575C213.1 235.325 209.741 238.25 206.632 240.946C206.036 241.466 205.321 242.159 204.92 242.852L207.011 242.473C208.43 242.008 208.604 241.445 209.676 240.567C213.913 237.091 218.02 233.029 222.245 229.542C222.82 229.065 223.253 228.307 223.957 228.026C223.882 228.448 224.066 229.824 223.957 229.932C223.882 230.008 223.567 229.834 223.383 229.932C223.069 230.105 222.765 230.647 222.43 230.885C222.603 231.351 223.806 230.928 223.957 231.08C224.012 231.134 224.012 232.542 223.957 232.596C223.578 232.986 222.69 232.228 222.625 232.217C220.783 231.892 220.718 232.813 219.58 233.733C218.345 234.751 216.557 236.084 215.387 237.156C214.401 238.065 213.512 239.084 212.526 240.004L214.617 239.809C216.904 239.268 220.295 237.242 222.614 236.766C222.863 236.712 223.903 236.723 223.947 236.766C224.087 236.907 223.849 239.257 223.947 239.809C223.21 239.874 223.838 238.531 222.993 238.293C222.765 238.228 222.484 238.336 222.235 238.293L206.046 244.001C205.754 244.293 206.686 245.441 206.805 245.712C206.892 245.907 206.729 246.221 206.805 246.47C206.827 246.535 207.607 247.325 207.758 247.423C207.845 247.477 208.029 247.369 208.138 247.423C208.376 247.542 208.409 247.932 208.896 247.802C209.048 247.759 209.135 247.455 209.275 247.423C209.622 247.347 210.099 247.51 210.413 247.423C210.587 247.38 211.356 246.73 211.551 246.665C215.04 245.484 218.702 244.531 222.213 243.242L223.741 242.105C224.055 242.3 224.001 243.936 223.936 244.011C223.871 244.087 223.567 243.925 223.361 244.011C223.21 244.076 223.134 244.336 222.982 244.39C218.93 245.863 215.018 246.86 211.182 248.192C210.987 248.257 210.175 248.917 210.045 248.95C209.666 249.037 208.127 249.037 207.758 248.95C207.628 248.917 207.542 248.647 207.379 248.571C207.26 248.517 207.076 248.625 207 248.571C206.816 248.463 206.177 247.813 206.046 247.618C205.678 247.033 205.19 245.647 204.909 244.954C204.822 244.748 204.974 244.466 204.909 244.38C204.757 244.195 204.486 244.715 204.334 244.759C201.192 245.755 197.985 246.773 194.81 247.802C194.171 248.008 192.697 248.842 192.145 248.939C191.592 249.037 189.241 249.058 188.721 248.939C188.58 248.907 188.504 248.625 188.341 248.56C188.06 248.452 187.41 248.3 187.204 248.181C186.944 248.04 186.716 247.618 186.445 247.423C186.369 247.369 186.164 247.488 186.066 247.423C185.817 247.26 184.495 245.3 184.354 244.954C183.877 243.751 183.628 242.051 183.216 240.773C177.571 223.271 172.218 205.629 166.844 187.899C166.801 187.748 166.508 187.672 166.465 187.52C166.346 187.098 166.725 186.221 165.891 186.567C164.525 187.141 163.864 187.076 162.467 187.325C160.787 187.629 159.021 188.04 157.515 187.704C156.485 187.477 154.838 187.867 153.712 187.704C153.571 187.683 153.473 187.358 153.332 187.325C150.764 186.816 149.648 186.524 147.243 185.04C146.246 184.423 143.938 182.473 143.245 181.423C142.985 181.033 142.735 180.004 142.486 179.517C142.356 179.257 141.782 178.954 141.728 178.759C141.576 178.25 141.5 177.362 141.348 176.852C141.023 175.78 140.352 174.123 140.211 173.051C139.593 168.567 139.929 163.737 139.073 159.362C137.426 151.022 131.802 143.582 124.413 139.39C120.534 137.192 117.435 136.434 113.371 135.589C111.649 135.232 109.416 134.593 107.661 134.452C106.198 134.333 104.486 134.636 103.089 134.452C102.709 134.398 102.233 134.214 102.135 133.878C102.07 133.65 102.005 132.968 102.33 132.925C103.446 132.795 105.364 132.838 106.523 132.925C109.698 133.163 113.426 134.008 116.427 134.831C125.854 137.398 132.344 141.816 137.177 150.611C138.553 153.123 140.254 157.195 140.601 159.741C141.229 164.365 140.98 169.239 141.738 173.809C141.912 174.838 142.475 175.834 142.876 176.852C143.31 177.925 143.678 179.582 144.404 180.654C144.751 181.174 145.661 181.694 145.932 182.17C146.029 182.354 145.856 182.668 145.932 182.744C146.008 182.82 146.322 182.647 146.506 182.744C146.885 182.95 147.254 183.632 147.644 183.881C149.388 185.008 151.035 185.376 152.975 185.788C155.586 186.329 158.739 186.99 161.73 186.546C162.586 186.416 164.222 185.658 165.154 185.408C165.457 185.322 166.064 185.625 166.107 185.214C165.522 184.889 165.836 184.412 165.728 184.076C161.946 172.65 158.371 161.398 155.066 149.842C154.968 149.495 154.34 148.195 154.308 147.936C154.221 147.351 154.188 145.412 154.308 144.892C154.34 144.751 154.622 144.676 154.687 144.513C155.272 143.04 155.998 141.405 157.547 140.896C158.718 139.921 160.343 139.856 161.741 139.38C163.214 138.86 165.121 137.907 166.692 137.473C167.277 137.311 168.014 137.842 167.646 136.52C167.581 136.293 166.909 135.156 166.887 135.004C166.812 134.571 166.801 133.12 166.887 132.719C166.92 132.589 167.191 132.502 167.267 132.34C167.321 132.221 167.212 132.037 167.267 131.961C167.375 131.777 168.025 131.138 168.22 131.008C168.394 130.899 169.477 130.358 169.748 130.25C170.496 129.946 171.904 129.795 172.793 129.491C175.523 128.538 178.59 127.185 181.548 126.448C181.699 126.416 181.786 126.091 181.927 126.069C182.404 125.982 184.148 125.972 184.592 126.069C184.722 126.102 184.809 126.372 184.972 126.448C185.091 126.502 185.275 126.394 185.351 126.448C185.524 126.556 186.196 127.217 186.304 127.401C186.564 127.834 186.554 128.517 186.684 128.917C186.738 129.069 187.02 129.156 187.063 129.297C187.225 129.881 186.694 130.618 188.016 130.25C188.168 130.206 188.244 129.914 188.396 129.871C191.224 128.993 194.29 127.932 197.151 127.206C197.302 127.163 197.389 126.849 197.53 126.827C197.877 126.762 198.711 126.762 199.058 126.827C199.199 126.849 199.285 127.174 199.437 127.206C199.784 127.282 200.26 127.12 200.575 127.206C200.715 127.25 200.802 127.531 200.954 127.585C202.102 127.997 203.5 129.015 204.194 130.055C204.595 130.661 204.735 131.809 204.952 132.34C206.837 136.759 208.549 141.145 210.283 145.65C214.65 156.99 218.919 168.437 223.231 179.885C223.307 180.091 223.968 180.892 223.99 181.022C224.077 181.434 224.131 184.878 223.99 185.019C223.795 185.214 219.266 185.062 218.464 185.019C213.176 184.748 207.379 183.936 202.092 183.502C201.376 183.448 199.188 183.362 198.668 183.502C198.429 183.567 196.988 185.094 197.335 185.408L223.99 186.925C223.936 187.293 224.077 188.354 223.99 188.441C223.892 188.538 221.595 188.484 221.129 188.441C213.913 187.726 206.274 187.141 199.047 186.535C198.267 186.47 196.273 186.394 195.623 186.535C195.493 186.567 195.406 186.838 195.244 186.914C194.745 187.141 194.117 187.304 193.911 188.051C194.572 187.748 195.124 188.419 195.244 188.43C196.706 188.636 198.635 188.343 200.195 188.43C200.325 188.43 200.445 188.798 200.575 188.809C207.791 189.221 214.921 189.416 221.899 190.325C222.375 190.39 223.892 190.228 223.99 190.325C224.033 190.369 224.033 191.43 223.99 191.463C223.795 191.658 219.266 191.506 218.464 191.463C211.518 191.105 204.064 189.968 197.14 189.556C196.132 189.502 192.925 189.351 192.188 189.556C191.993 189.611 190.985 190.715 190.855 191.073L223.99 193.358C224.087 194.744 224.207 195.199 222.657 194.874C220.653 194.463 219.179 194.766 217.326 194.495C217.185 194.473 216.709 193.867 215.798 194.116C215.397 194.224 214.91 195.524 214.086 195.253C213.989 195.881 214.596 195.621 215.04 195.632C217.64 195.708 219.959 196.185 222.657 196.011C222.917 196.607 223.903 196.293 223.99 196.39C224.033 196.434 224.033 197.495 223.99 197.528C223.849 197.668 220.609 197.571 219.992 197.528C218.475 197.419 216.188 196.997 214.661 196.769C212.721 196.477 212.255 197.17 211.042 198.481L214.661 198.676C216.275 199.044 218.735 199.315 220.371 199.434C221.043 199.488 223.86 199.304 223.99 199.434C224.044 199.488 224.044 200.907 223.99 200.95C223.947 200.993 222.906 201.004 222.657 200.95C219.071 200.214 214.899 200.354 211.237 199.813C209.297 199.52 208.831 200.214 207.618 201.524L212.374 201.719C215.636 202.304 219.168 202.434 222.657 202.477C222.917 203.073 223.903 202.759 223.99 202.856C224.033 202.899 224.033 203.961 223.99 203.993C223.849 204.134 220.609 204.037 219.992 203.993C216.6 203.755 212.732 203.138 209.33 202.856C208.614 202.802 206.426 202.715 205.906 202.856C205.635 202.932 204.941 203.95 204.573 204.188L205.526 204.762C207.173 204.827 208.842 204.665 210.478 204.762C210.608 204.762 210.727 205.13 210.857 205.141C214.726 205.347 218.247 205.423 221.899 205.899C222.375 205.964 223.892 205.802 223.99 205.899C224.033 205.943 224.033 207.004 223.99 207.037C223.795 207.232 219.266 207.08 218.464 207.037C214.975 206.852 210.912 206.246 207.423 205.899C205.169 206.051 202.677 205.206 201.138 207.232L203.609 207.427C209.037 207.979 214.921 208.531 220.36 208.943C221.032 208.997 223.849 208.813 223.979 208.943C224.033 208.997 224.033 210.416 223.979 210.459C223.936 210.502 222.885 210.513 222.646 210.459C222.495 210.427 222.419 210.123 222.267 210.08C221.671 209.917 220.295 211.217 219.797 211.791L223.99 211.986C223.936 212.354 224.077 213.416 223.99 213.502C223.903 213.589 221.931 213.546 221.519 213.502C221.379 213.491 221.281 213.134 221.14 213.123C220.295 213.037 219.342 213.188 218.475 213.123L216.763 215.029H222.668L222.635 215.105ZM185.882 131.051C185.828 130.629 185.958 130.109 185.882 129.719C185.849 129.578 185.546 129.491 185.503 129.34C185.427 129.112 185.568 128.82 185.503 128.582C185.481 128.495 184.257 127.271 184.17 127.25C183.91 127.174 182.956 127.195 182.642 127.25C182.501 127.271 182.415 127.596 182.263 127.629C178.113 128.679 174.223 130.293 170.073 131.809C169.856 131.885 169.553 131.744 169.315 131.809C169.228 131.831 168.003 133.055 167.982 133.141C167.711 134.138 168.372 134.928 168.361 135.806C168.979 136.499 168.448 136.997 169.694 136.759L185.882 131.051ZM202.644 130.672C203.403 130.001 200.943 128.928 200.553 128.766C200.39 128.701 200.315 128.419 200.174 128.387C198.776 128.073 196.273 128.408 195.222 129.145L193.51 129.524C192.99 129.968 193.467 130.25 194.084 130.282C195.601 130.358 197.14 130.185 198.657 130.282C198.787 130.282 198.906 130.65 199.036 130.661C199.599 130.704 202.514 130.78 202.655 130.661L202.644 130.672ZM204.161 134.094C204.465 133.802 203.641 131.928 203.208 131.809C202.254 131.549 199.881 131.885 198.635 131.809C197.172 131.723 194.767 131.149 193.304 131.051C191.375 130.921 189.057 130.856 187.594 131.809L185.503 132.188C185.719 133.001 186.185 132.892 186.835 132.946C189.88 133.195 192.903 133.141 195.97 133.325C197.595 133.423 200.044 133.899 201.68 134.084C202.092 134.127 204.064 134.17 204.15 134.084L204.161 134.094ZM204.93 135.232C204.8 135.102 201.983 135.286 201.311 135.232C196.11 134.831 190.519 134.062 185.318 133.715C182.425 133.52 180.703 133.964 178.08 134.852L177.127 135.611C178.828 135.686 180.562 135.513 182.263 135.611C189.371 136.022 196.598 137.235 203.966 137.127C204.161 137.614 205.581 137.614 205.678 137.506C205.981 137.214 205.028 136.055 204.92 135.795C204.833 135.589 204.985 135.286 204.92 135.221L204.93 135.232ZM206.827 140.56C207.022 140.365 206.22 138.751 205.873 138.654C205.386 138.524 204.551 138.741 203.966 138.654C198.863 137.896 193.683 137.82 188.352 137.517C184.972 137.322 181.06 136.607 177.69 136.38C175.762 136.25 173.443 136.185 171.98 137.138L170.268 137.517C170.485 138.329 170.951 138.221 171.601 138.275C176.358 138.665 180.898 138.741 185.687 139.033C190.855 139.358 196.533 140.268 201.68 140.549C202.438 140.593 206.632 140.733 206.816 140.549L206.827 140.56ZM207.975 143.982C208.268 143.69 207.455 141.816 207.022 141.697C206.079 141.437 203.695 141.773 202.449 141.697C191.798 141.037 180.724 139.769 170.084 139.033C168.155 138.903 165.836 138.838 164.374 139.791L162.662 140.17C162.878 140.982 163.344 140.874 163.994 140.928C167.288 141.199 170.571 141.123 173.898 141.307C184.56 141.914 195.363 143.419 206.263 143.593C206.458 144.08 207.878 144.08 207.975 143.972V143.982ZM164.937 142.076C164.135 142.011 163.247 142.163 162.467 142.076C162.326 142.065 162.217 141.708 162.087 141.697C161.307 141.632 159.313 141.556 158.663 141.697C158.533 141.73 158.447 142.001 158.284 142.076C158.165 142.13 157.981 142.033 157.905 142.076C157.677 142.217 156.334 143.56 156.193 143.788C156.139 143.874 156.247 144.047 156.193 144.167C156.117 144.318 155.868 144.394 155.814 144.546C155.727 144.751 155.889 145.065 155.814 145.304C155.77 145.455 155.456 145.542 155.434 145.683C155.218 146.874 155.922 147.611 155.814 148.726C156.431 149.019 156.095 149.939 156.193 150.058C156.583 150.491 160.776 146.019 161.329 145.499C161.394 145.434 161.643 145.564 161.708 145.499C162.846 144.437 164.005 143.311 164.948 142.076H164.937ZM169.889 142.455C169.347 142.39 168.686 142.553 168.177 142.455C168.036 142.434 167.949 142.12 167.798 142.076C166.595 141.708 165.858 143.885 164.753 143.982L156.951 151.401L157.331 153.491C157.981 153.643 158.089 153.242 158.468 152.917C161.957 150.015 165.392 146.419 168.935 143.603C169.271 143.333 169.759 142.878 169.889 142.466V142.455ZM171.612 142.455C171.373 142.52 169.791 144.329 169.325 144.741C166.649 147.091 163.55 149.56 160.95 151.964C160.516 152.365 158.143 154.618 158.089 154.813C157.937 155.343 158.035 156.708 158.663 156.903L174.082 143.019C174.104 142.39 172.045 142.325 171.612 142.445V142.455ZM178.275 142.845C178.2 142.769 176.423 142.78 176.184 142.845C175.978 142.899 175.372 143.733 175.046 143.982C172.099 146.246 169.51 148.997 166.671 151.585C166.606 151.65 166.356 151.52 166.291 151.585C163.908 153.751 161.632 156.069 159.248 158.246C159.324 158.712 159.14 159.362 159.248 159.762C159.292 159.936 159.66 160.358 160.007 160.141C160.419 159.892 160.895 159.167 161.34 158.809C165.739 155.214 169.965 151.044 174.288 147.015C175.285 146.084 176.693 145.195 177.712 143.972C177.907 143.733 178.622 143.138 178.286 142.834L178.275 142.845ZM183.216 143.224C182.393 143.365 181.082 143.029 180.356 143.224C180.117 143.289 178.189 145.445 177.69 145.889C172.468 150.556 166.421 156.578 160.939 160.726C160.744 160.867 160.018 161.582 159.985 161.679C159.779 162.372 160.614 162.968 160.364 163.769C161.015 163.921 161.123 163.52 161.502 163.195C162.629 162.264 163.637 160.964 164.742 159.957C170.084 155.105 175.805 150.21 181.114 145.499C181.851 144.849 182.675 144.037 183.205 143.214L183.216 143.224ZM187.41 143.603C186.196 143.582 185.178 143.495 184.17 143.982C181.624 146.365 179.142 148.878 176.553 151.206C172.5 154.867 167.993 158.528 163.984 162.232C163.55 162.632 161.188 164.896 161.123 165.08C160.917 165.773 161.751 166.369 161.502 167.17L187.399 143.593L187.41 143.603ZM208.734 145.12C208.636 145.022 206.783 145.174 206.263 145.12C202.785 144.73 198.689 144.156 195.222 143.982C193.846 143.917 190.248 143.733 189.132 143.982C189.002 144.015 188.916 144.286 188.753 144.362C188.634 144.416 188.45 144.318 188.374 144.362C187.973 144.6 187.28 145.423 187.041 145.878L209.514 147.394C209.07 146.917 209.254 146.376 209.135 146.062C209.08 145.91 208.82 145.834 208.755 145.683C208.669 145.477 208.82 145.174 208.755 145.109L208.734 145.12ZM210.641 150.448C210.836 150.253 210.034 148.64 209.687 148.542C209.124 148.39 208.094 148.629 207.401 148.542C202.005 147.871 196.652 147.697 191.029 147.405C190.899 147.405 190.779 147.037 190.649 147.026C189.642 146.972 186.434 146.82 185.698 147.026C185.524 147.069 185.188 147.611 184.939 147.784C184.343 148.195 183.455 148.239 184.181 148.921L210.652 150.437L210.641 150.448ZM211.399 151.964C210.706 152.257 210.175 151.596 210.066 151.585C208.614 151.369 206.675 151.672 205.115 151.585C199.946 151.293 194.268 150.362 189.122 150.069C187.561 149.982 185.633 150.286 184.17 150.069C184.029 150.047 183.552 149.441 182.642 149.69C182.523 149.723 181.006 151.239 180.93 151.401C180.551 152.149 181.559 151.964 181.884 151.975C190.574 152.149 199.274 153.275 207.78 153.881C208.398 153.925 211.638 154.022 211.778 153.881C212.114 153.556 211.312 152.463 211.399 151.975V151.964ZM212.548 155.008C212.364 154.824 208.279 155.051 207.412 155.008C200.206 154.607 192.546 153.524 185.329 153.102C183.899 153.015 181.591 153.372 180.377 153.102C180.237 153.069 180.15 152.766 179.998 152.723C179.391 152.549 177.961 153.925 177.528 154.434L178.861 155.008C189.523 155.441 200.065 156.264 210.467 157.293C210.933 157.336 213.22 157.39 213.328 157.293C213.415 157.217 212.678 156.416 212.949 155.961C212.461 155.766 212.613 155.051 212.569 155.008H212.548ZM214.444 160.336C214.173 157.607 212.114 158.603 210.066 158.43C208.452 158.3 205.96 157.769 204.356 157.672C195.525 157.12 186.684 156.838 178.08 155.766C177.604 155.712 176.162 155.668 175.794 155.766C175.48 155.852 174.526 157.195 174.082 157.477L214.444 160.325V160.336ZM176.368 158.82C175.339 158.993 173.638 158.571 172.749 158.82C172.543 158.874 171.937 159.708 171.612 159.957C168.751 162.156 165.728 165.73 162.857 167.56C161.611 168.351 162.683 169.813 162.662 170.982C163.312 171.134 163.42 170.733 163.799 170.408C167.267 167.517 170.907 164.073 174.266 161.094C175.003 160.445 175.827 159.632 176.358 158.809L176.368 158.82ZM180.941 159.199C180.117 159.34 178.806 159.004 178.08 159.199C177.907 159.242 177.582 159.784 177.322 159.957C177.235 160.022 177.018 159.903 176.943 159.957C175.686 160.867 174.375 162.654 173.139 163.759C170.615 166.001 167.733 168.405 165.143 170.603C164.861 170.842 163.463 172.195 163.431 172.315C163.203 173.149 163.799 173.668 163.81 174.405C164.644 174.546 164.98 173.679 165.522 173.268C169.835 169.954 173.92 165.708 178.091 161.852C178.156 161.788 178.405 161.917 178.47 161.852C179.337 161.073 180.28 160.141 180.941 159.188V159.199ZM185.503 159.578C184.679 159.719 183.368 159.383 182.642 159.578C182.469 159.621 182.144 160.163 181.884 160.336C181.797 160.401 181.58 160.282 181.504 160.336C180.139 161.322 178.655 163.304 177.311 164.517C174.613 166.954 171.2 169.64 168.556 172.12C167.982 172.65 164.634 175.845 164.558 176.116C164.352 176.809 165.186 177.405 164.937 178.206L185.503 159.567V159.578ZM189.696 159.957C188.829 160.282 187.865 159.394 187.225 159.578C186.965 159.654 185.069 161.788 184.56 162.242C178.936 167.268 172.554 173.766 166.66 178.217C165.522 179.084 165.045 180.871 166.66 181.26L189.696 159.957ZM193.878 159.957C193.803 159.881 192.025 159.892 191.787 159.957C191.581 160.011 190.974 160.845 190.649 161.094C187.767 163.304 185.069 166.185 182.274 168.697C178.232 172.347 173.638 176.073 169.705 179.723C169.228 180.167 166.53 182.733 166.465 182.961C166.356 183.351 167.137 183.979 166.844 184.672C167.581 184.856 167.733 184.217 168.177 183.914C169.618 182.928 171.449 181.282 172.749 180.112C177.094 176.224 181.082 172.217 185.318 168.318C187.832 166.011 191.039 163.824 193.315 161.094C193.51 160.856 194.225 160.26 193.889 159.957H193.878ZM198.451 160.336C197.725 160.455 196.609 160.163 195.98 160.336C195.742 160.401 193.813 162.556 193.315 163.001C186.294 169.271 178.947 175.672 171.991 182.019C171.016 182.907 169.054 185.333 168.188 185.82C167.863 186.004 167.418 185.441 167.613 186.773C168.231 187.065 167.895 187.986 167.993 188.105C168.372 188.538 172.218 184.412 172.749 183.925C179.749 177.556 186.998 171.199 194.073 164.907L198.451 160.347V160.336ZM215.592 164.138C215.907 163.824 215.224 161.636 214.639 161.473C213.62 161.192 211.02 161.549 209.687 161.473C208.094 161.387 205.57 160.834 203.977 160.715C203.186 160.661 200.748 160.553 200.174 160.715C199.805 160.813 198.603 162.481 198.082 162.806L200.553 163.001C203.923 163.401 207.824 163.921 211.215 164.138C211.876 164.181 215.441 164.289 215.592 164.138ZM216.73 165.665C216.644 165.578 215.755 165.741 215.397 165.665C212.06 165.004 208.679 165.112 205.115 164.907C203.652 164.82 201.257 164.268 199.784 164.149C199.069 164.094 196.88 164.008 196.36 164.149C196.132 164.214 194.843 165.643 194.648 166.055L217.12 167.571C217.326 166.954 216.795 166.813 216.741 166.618C216.665 166.336 216.817 165.751 216.741 165.665H216.73ZM218.258 170.982C218.561 170.69 217.738 168.816 217.304 168.697C216.362 168.437 213.978 168.773 212.732 168.697C207.553 168.372 201.907 167.56 196.739 167.181C195.948 167.127 193.51 167.019 192.936 167.181C192.621 167.268 191.668 168.611 191.224 168.892L218.258 170.982ZM219.396 174.026C219.396 174.026 219.45 172.91 219.396 172.694C219.157 171.838 217.63 172.228 216.925 172.12C211.703 171.351 206.382 171.286 200.932 170.982C199.361 170.896 196.793 170.311 195.222 170.224C193.456 170.127 191.657 170.289 189.891 170.224C189.533 170.896 188.461 171.004 188.179 171.556C187.8 172.304 188.807 172.12 189.132 172.13C197.703 172.293 206.263 173.528 214.65 174.037C215.354 174.08 219.244 174.21 219.407 174.037L219.396 174.026ZM220.544 175.553C220.458 175.466 219.569 175.629 219.211 175.553C215.874 174.892 212.494 175.001 208.929 174.795C203.63 174.491 197.855 173.603 192.556 173.278C191.148 173.192 189.252 173.506 187.984 173.278C187.843 173.257 187.756 172.943 187.605 172.899C186.629 172.607 185.86 174.026 185.134 174.611L186.467 175.185C197.216 175.791 207.954 176.268 218.453 177.47C218.865 177.513 220.837 177.556 220.923 177.47C221.238 177.177 220.566 176.593 220.544 176.517C220.468 176.235 220.62 175.65 220.544 175.564V175.553ZM185.503 175.932C185.427 175.856 183.661 175.867 183.411 175.932C183.162 175.997 181.591 177.806 181.125 178.217C178.319 180.676 175.079 183.275 172.37 185.82C171.85 186.307 168.816 189.188 168.751 189.437C168.524 190.271 169.119 190.791 169.13 191.528C171.817 189.383 174.006 186.99 176.553 184.683C176.618 184.618 176.867 184.748 176.932 184.683C179.424 182.43 182.263 179.138 184.928 177.459C185.405 177.156 185.763 176.192 185.503 175.943V175.932ZM190.454 176.311C189.631 176.452 188.32 176.116 187.594 176.311C187.334 176.387 184.744 179.214 184.17 179.733C180.15 183.416 175.751 187.228 171.601 190.759C171.319 190.997 169.921 192.351 169.889 192.47C169.824 192.719 169.813 194.484 169.889 194.56C170.149 194.831 170.864 194.463 171.222 194.181C172.262 193.38 173.248 192.058 174.266 191.138C178.438 187.38 183.173 183.502 187.215 179.723C188.352 178.661 189.512 177.535 190.454 176.3V176.311ZM195.027 176.69C194.203 176.831 192.892 176.495 192.166 176.69C191.95 176.755 191.018 177.903 190.639 178.206C186.315 181.759 182.295 185.777 178.07 189.621C178.004 189.686 177.755 189.556 177.69 189.621C175.306 191.788 173.031 194.116 170.647 196.282L171.027 197.993C171.677 198.145 171.785 197.744 172.164 197.419C179.586 191.214 186.424 183.892 194.063 177.827C194.398 177.556 194.886 177.102 195.016 176.69H195.027ZM199.209 177.069H196.349C188.482 184.607 180.464 191.246 172.739 198.751C172.446 198.621 171.85 199.098 171.785 199.325C171.557 200.159 172.153 200.679 172.164 201.416C172.814 201.567 172.923 201.167 173.302 200.842C181.298 194.203 189.338 186.242 197.107 179.354C197.844 178.704 198.668 177.892 199.199 177.069H199.209ZM203.403 177.448C202.644 177.556 201.615 177.297 200.932 177.448C200.802 177.481 200.715 177.751 200.553 177.827C200.434 177.881 200.25 177.784 200.174 177.827C199.199 178.401 197.4 180.686 196.37 181.629C189.273 188.105 181.97 194.798 174.667 201.026C173.638 201.903 172.565 202.813 172.955 204.264C172.999 204.437 173.367 204.86 173.714 204.643C174.223 204.34 174.884 203.398 175.426 202.932C183.552 196.011 192.372 188.149 200.174 180.871C201.311 179.809 202.471 178.683 203.413 177.448H203.403ZM221.682 178.596C221.552 178.466 218.735 178.65 218.063 178.596C216.459 178.477 213.945 177.925 212.353 177.838C210.283 177.719 208.994 177.816 207.022 177.459C205.57 177.188 205.57 177.654 204.735 178.217C204.649 178.282 204.432 178.163 204.356 178.217C204.031 178.455 203.533 178.954 203.403 179.354C204.204 179.419 205.093 179.268 205.873 179.354C209.362 179.744 213.425 180.307 216.914 180.491C217.673 180.535 221.866 180.665 222.05 180.491C222.365 180.199 221.693 179.614 221.671 179.538C221.595 179.257 221.747 178.672 221.671 178.585L221.682 178.596ZM222.82 182.019C222.126 182.311 221.595 181.65 221.487 181.64C220.035 181.423 218.095 181.726 216.535 181.64C213.024 181.434 209.005 180.795 205.494 180.502C204.779 180.448 202.59 180.362 202.07 180.502C201.842 180.567 200.553 181.997 200.358 182.408L223.21 183.925L222.831 182.019H222.82ZM191.603 192.286C190.877 192.405 189.761 192.112 189.132 192.286C188.927 192.34 188.32 193.174 187.995 193.423C183.574 196.813 179.706 201.069 175.426 204.838C175.361 204.892 175.122 204.773 175.046 204.838C174.808 205.033 173.746 206.062 173.714 206.17C173.605 206.56 174.385 207.188 174.093 207.881C174.927 208.022 175.263 207.156 175.805 206.744C180.117 203.441 184.224 199.195 188.374 195.329C188.439 195.264 188.688 195.394 188.753 195.329C189.761 194.398 190.801 193.39 191.614 192.286H191.603ZM196.165 192.665C195.341 192.806 194.03 192.47 193.304 192.665C193.098 192.719 192.491 193.553 192.166 193.802C187.897 197.084 184.072 201.112 179.977 204.827C178.72 205.964 176.823 207.73 175.404 208.629C174.31 209.333 175.036 210.286 175.209 211.293L176.542 210.914C181.602 205.694 187.355 201.318 192.535 196.455C193.792 195.275 195.081 194.008 196.154 192.654L196.165 192.665ZM200.737 193.044C199.914 193.185 198.603 192.849 197.877 193.044C197.671 193.098 197.064 193.932 196.739 194.181C192.264 197.614 188.244 202.12 183.791 205.596L175.989 213.015L176.368 215.105L200.737 193.044ZM204.93 193.423H202.07C194.214 200.982 186.218 207.676 178.46 215.105C177.419 215.289 176.975 216.123 177.127 217.195C177.214 217.78 177.604 217.932 177.506 218.528L204.92 193.423H204.93ZM209.492 193.813C208.625 194.138 207.661 193.25 207.022 193.434C206.794 193.499 205.884 194.647 205.494 194.95C199.794 199.618 194.301 205.109 188.742 210.167C186.044 212.625 182.696 215.322 179.987 217.769C179.651 218.073 177.929 219.719 177.896 219.86C177.788 220.25 178.568 220.878 178.275 221.571C179.012 221.755 179.164 221.116 179.608 220.813C182.404 218.907 184.982 215.939 187.605 213.589C194.312 207.556 201.257 201.123 208.17 195.329C208.636 194.939 209.243 194.365 209.503 193.813H209.492ZM179.413 224.993C180.063 225.145 180.172 224.744 180.551 224.419C191.484 215.322 201.366 204.632 212.353 195.697C212.591 195.502 213.685 194.463 213.685 194.365C213.707 193.737 211.648 193.672 211.215 193.791C210.977 193.856 209.048 196.011 208.549 196.455C200.174 203.939 191.278 211.564 183.032 219.275C182.469 219.806 179.11 223.001 179.034 223.271C178.926 223.661 179.706 224.289 179.413 224.982V224.993ZM201.875 208.639C201.799 208.564 200.065 208.575 199.784 208.639C199.654 208.672 199.567 208.943 199.404 209.019C197.952 209.679 196.522 211.629 195.211 212.82C191.061 216.611 186.369 220.51 182.263 224.235C181.927 224.538 180.204 226.185 180.172 226.325C179.944 227.159 180.54 227.679 180.551 228.416C182.87 226.694 184.668 224.647 186.835 222.708C190.888 219.069 195.428 215.3 199.404 211.683C200.011 211.13 200.791 210.394 201.311 209.777C201.506 209.538 202.222 208.943 201.886 208.639H201.875ZM206.447 209.019C205.721 209.138 204.605 208.845 203.977 209.019C203.771 209.073 203.164 209.907 202.839 210.156C201.409 211.25 199.599 212.766 198.267 213.957C193.001 218.668 188.027 223.639 182.653 228.026C182.415 228.221 181.353 229.26 181.32 229.358C181.255 229.607 181.244 231.372 181.32 231.448C181.58 231.719 182.295 231.351 182.653 231.069C183.563 230.365 184.419 229.206 185.318 228.405C190.834 223.466 196.576 218.333 202.07 213.567L206.447 209.008V209.019ZM211.02 209.398C210.196 209.538 208.885 209.203 208.159 209.398C207.921 209.463 205.992 211.618 205.494 212.062C198.603 218.214 191.365 224.473 184.549 230.701C184.17 231.047 182.122 233.008 182.079 233.17C181.97 233.56 182.75 234.188 182.458 234.881L183.791 234.502C192.004 226.748 200.575 219.08 208.929 211.683C209.666 211.033 210.489 210.221 211.02 209.398ZM215.592 209.788C214.271 209.788 213.079 209.625 211.973 210.167C203.533 218.138 195.319 225.448 186.835 233.365C186.77 233.43 186.521 233.3 186.456 233.365C185.979 233.809 183.281 236.376 183.216 236.603C183.01 237.318 183.704 237.654 183.596 238.315C184.246 238.466 184.354 238.065 184.733 237.741C193.803 230.192 202.102 221.398 211.204 213.968L215.582 209.788H215.592ZM219.775 210.167C218.908 210.491 217.944 209.603 217.304 209.788C217.066 209.863 215.831 211.325 215.397 211.694C205.461 220.174 195.742 230.138 185.698 238.315C184.755 239.084 184.04 239.842 184.365 241.163C184.636 242.257 185.383 241.185 185.698 240.968C187.139 240.004 188.97 238.325 190.27 237.167C198.603 229.704 206.567 221.863 215.018 214.726L219.775 210.167ZM207.975 224.993H205.115L197.497 232.217C194.832 234.567 191.711 237.037 189.122 239.441C188.602 239.928 185.568 242.809 185.503 243.058C185.438 243.307 185.438 244.336 185.503 244.575C185.524 244.672 186.077 245.333 186.261 244.954L207.964 224.982L207.975 224.993ZM212.158 225.372C211.432 225.491 210.316 225.199 209.687 225.372C209.514 225.416 209.189 225.957 208.929 226.13C208.842 226.195 208.625 226.076 208.549 226.13C207.423 226.943 206.231 228.556 205.125 229.553C199.773 234.34 194.084 239.214 188.753 244.011C188.406 244.325 186.662 245.95 186.662 246.102C186.662 246.167 187.55 247.033 187.616 247.055C189.013 247.445 190.032 245.658 191.039 244.769C196.685 239.82 202.677 234.665 208.17 229.553C209.568 228.253 210.966 226.845 212.168 225.372H212.158ZM216.73 225.762C215.907 225.903 214.596 225.567 213.87 225.762C213.631 225.827 212.049 227.636 211.583 228.047C205.906 233.019 200.163 238.336 194.453 243.264L189.696 247.824L192.936 247.445C197.4 243.816 201.582 239.56 205.884 235.65C208.788 233.008 212.06 230.235 215.018 227.658C215.614 227.138 216.329 226.445 216.73 225.751V225.762ZM220.923 226.141C220.132 226.39 219.515 225.546 218.832 225.762C218.691 225.806 218.616 226.065 218.453 226.141C218.334 226.195 218.15 226.087 218.074 226.141C217.088 226.726 215.322 229.001 214.271 229.943C210.099 233.712 205.375 237.589 201.322 241.358C199.924 242.658 198.527 244.065 197.324 245.538C198.808 245.463 200.055 244.715 201.322 244.401C206.372 239.354 211.887 234.968 216.936 230.333C218.334 229.044 219.721 227.625 220.934 226.152L220.923 226.141Z" fill="white"/>
<path d="M111.247 179.354C111.301 179.408 111.323 180.426 112.005 180.686C111.81 181.423 112.601 181.888 112.385 182.592C112.341 182.744 112.049 182.82 112.005 182.971C111.93 183.21 112.092 183.524 112.005 183.73C111.832 184.174 110.889 185.148 110.868 185.246C110.543 186.415 111.106 187.542 110.109 189.047C109.903 189.361 108.3 190.964 108.018 191.137C107.931 191.192 107.758 191.083 107.639 191.137C106.859 191.495 105.938 192.058 104.973 191.896C104.789 191.863 104.637 191.116 104.02 192.091C103.955 192.188 104.074 192.394 104.02 192.47C103.565 193.119 102.167 194.311 101.549 194.56C101.343 194.646 101.029 194.495 100.791 194.56C100.639 194.603 100.552 194.917 100.412 194.939C99.794 195.047 97.6053 195.047 96.9876 194.939C96.9226 194.928 96.2292 194.668 95.8499 194.56C95.579 194.484 94.9831 193.498 94.7122 193.423C94.4413 193.347 93.2603 193.693 92.8052 193.802C92.2092 193.953 90.6489 194.506 90.1397 194.56C89.0453 194.668 86.6182 194.711 85.5671 194.56C85.4263 194.538 85.3396 194.213 85.1879 194.181C84.8412 194.105 84.3644 194.267 84.0502 194.181C83.9635 194.159 82.6633 193.509 82.5224 193.423C81.7314 192.903 80.4095 190.813 80.2361 190.758C79.9111 190.672 78.3941 191.581 77.9499 191.896C76.6605 191.744 74.981 192.112 73.7566 191.896C73.5832 191.863 72.5322 191.257 72.2288 191.137C71.7087 190.921 70.7335 190.639 70.3217 190.379C69.6283 189.935 69.1515 188.581 68.794 188.473C68.1547 188.289 67.147 188.137 66.5077 187.715C66.2585 187.553 65.3158 186.61 65.1749 186.383C65.1208 186.296 65.2291 186.123 65.1749 186.004C65.0991 185.841 64.8282 185.766 64.7957 185.625C64.709 185.311 64.8715 184.823 64.7957 184.488C64.7632 184.347 64.1889 184.087 64.4165 183.35C64.4598 183.199 64.7524 183.123 64.7957 182.971C64.8715 182.733 64.709 182.419 64.7957 182.213C64.8499 182.062 65.0991 181.986 65.1749 181.834C65.2291 181.715 65.1208 181.531 65.1749 181.455C65.37 181.13 66.5185 180.036 66.8869 179.744C66.9628 179.69 67.1795 179.809 67.2662 179.744C68.2197 179.029 68.4906 178.098 68.2197 176.896C68.068 176.246 67.8404 176.917 68.2197 175.758C68.2955 175.52 68.133 175.206 68.2197 175C68.2847 174.849 68.5231 174.773 68.5989 174.621C68.6531 174.502 68.5447 174.318 68.5989 174.242C68.7289 174.026 69.3141 173.473 69.5524 173.289C69.6391 173.224 69.8558 173.343 69.9317 173.289C71.1669 172.314 71.8062 170.885 72.9764 169.867C73.8216 169.943 74.32 169.271 75.2627 169.488C77.6573 170.051 77.2564 169.358 79.456 168.73C79.6077 168.686 79.6944 168.372 79.8352 168.35C80.2686 168.275 81.7206 168.264 82.1215 168.35C82.2623 168.383 82.3382 168.665 82.5007 168.73C82.7608 168.827 83.4867 169 83.6384 169.109C84.1477 169.444 85.2096 170.917 85.5455 171.015C86.3148 171.231 87.0841 170.257 87.8317 169.878C88.9803 169.618 89.5762 170.82 90.3022 169.683C90.4106 169.52 90.5839 168.697 90.6814 168.545C91.1582 167.82 91.8192 167.56 92.3934 167.213C92.686 167.04 93.2928 166.542 93.5312 166.455C93.7479 166.379 94.0513 166.52 94.2896 166.455C94.4413 166.412 94.528 166.098 94.6689 166.076C95.0156 166.011 95.8499 166.011 96.1967 166.076C96.3375 166.098 96.4242 166.412 96.5759 166.455C96.8251 166.52 97.1285 166.379 97.3344 166.455C98.0929 166.737 100.076 168.437 100.379 168.361C100.542 168.318 101.376 167.636 101.517 167.603C101.929 167.517 103.781 167.517 104.182 167.603C104.312 167.636 104.399 167.906 104.562 167.982C104.681 168.036 104.865 167.928 104.941 167.982C105.201 168.134 106.469 169.412 106.653 169.693C107.574 171.08 106.859 171.87 108.365 172.932C108.95 173.343 109.86 174.47 110.077 175.022C110.163 175.228 110.001 175.542 110.077 175.78C110.12 175.932 110.424 176.018 110.456 176.159C110.705 177.231 109.318 178.639 110.651 179.397C110.824 179.495 111.149 179.322 111.225 179.397L111.247 179.354ZM99.4473 170.224C99.3714 170.148 99.5448 169.834 99.4473 169.65C99.3281 169.444 97.952 168.069 97.7353 167.939C97.6486 167.885 97.4752 167.993 97.3561 167.939C97.1935 167.863 97.1068 167.592 96.9768 167.56C96.5434 167.462 94.3546 167.462 93.9321 167.56C93.802 167.592 93.7154 167.863 93.5528 167.939C93.4336 167.993 93.2494 167.885 93.1736 167.939C92.0034 168.632 91.2232 171.166 90.5081 171.361C89.7929 171.556 88.5902 171.199 87.8426 171.361C87.7125 171.394 86.8349 172.098 86.7049 172.119C86.4015 172.184 85.4805 172.184 85.1771 172.119C85.047 172.087 84.9604 171.816 84.7978 171.74C84.6786 171.686 84.4944 171.794 84.4186 171.74C83.8985 171.426 82.8583 169.932 82.5116 169.834C82.1648 169.737 79.8677 169.748 79.4668 169.834C78.6758 170.007 76.9747 171.643 76.0428 171.35C75.8911 171.307 75.8045 170.993 75.6636 170.971C74.4067 170.744 73.5615 170.928 72.8031 171.924C71.8387 173.192 71.7737 173.473 70.3326 174.394C69.8017 174.73 69.8883 175.054 69.7583 175.347C69.6825 175.509 69.4116 175.596 69.3791 175.726C69.3141 176.029 69.3141 176.917 69.3791 177.242C69.4007 177.383 69.7366 177.48 69.7583 177.621C70.2567 180.329 67.3203 180.524 66.3343 182.181C66.2801 182.267 66.3885 182.441 66.3343 182.56C66.2585 182.722 65.9876 182.809 65.9551 182.939C65.8792 183.275 65.8792 184.509 65.9551 184.845C65.9876 184.975 66.2585 185.062 66.3343 185.224C66.3885 185.343 66.2801 185.527 66.3343 185.603C66.4427 185.776 67.5804 186.914 67.6671 186.935C68.9673 187.304 69.5524 187.206 70.1375 188.267C70.2676 188.495 72.0988 189.946 72.2288 189.979C72.4672 190.044 72.7597 189.903 72.9873 189.979C73.1389 190.033 73.2148 190.314 73.3665 190.358C73.6699 190.444 74.1575 190.282 74.5042 190.358C74.6559 190.39 74.7426 190.715 74.8834 190.737C75.4035 190.813 76.6713 190.823 77.1697 190.737C77.3106 190.715 77.3973 190.412 77.5489 190.358C77.7765 190.282 78.0691 190.423 78.3074 190.358C78.3724 190.336 79.2393 189.47 79.2609 189.405C79.3368 189.155 79.3043 188.051 79.8352 188.072C80.0194 188.072 81.2438 189.773 81.5472 190.163C81.6122 190.239 81.4822 190.466 81.5472 190.542C82.3707 191.614 83.1942 192.156 84.4078 192.632C84.5703 192.697 84.6461 192.979 84.787 193.011C85.643 193.195 90.2805 193.152 91.2557 193.011C91.3532 193 92.4585 192.719 92.7835 192.632C92.9569 192.589 93.7479 191.928 93.9212 191.874C94.9289 191.581 95.189 192.643 95.8283 193.011C96.2617 193.271 96.9226 193.271 97.3561 193.39C97.5077 193.433 97.5944 193.748 97.7353 193.769C98.147 193.845 99.2306 193.845 99.6423 193.769C99.7832 193.748 99.8699 193.433 100.022 193.39C100.271 193.325 100.574 193.477 100.78 193.39C100.932 193.336 101.008 193.087 101.159 193.011C101.278 192.957 101.463 193.065 101.539 193.011C102.134 192.654 103.402 191.094 103.63 190.542C103.706 190.347 103.456 189.665 104.204 189.968C104.367 190.033 104.453 190.325 104.583 190.347C104.973 190.412 106.133 190.423 106.49 190.347C106.62 190.314 106.707 190.044 106.87 189.968C106.989 189.914 107.173 190.022 107.249 189.968C107.476 189.838 109.307 188.018 109.34 187.878C109.427 187.553 109.416 185.993 109.34 185.592C109.34 185.538 108.647 184.953 108.961 184.639C109.026 184.574 109.968 184.553 110.489 183.686C110.543 183.6 110.434 183.426 110.489 183.307C110.564 183.145 110.835 183.058 110.868 182.928C111.052 182.094 110.684 180.556 109.914 180.08C109.838 180.036 109.654 180.134 109.535 180.08C109.372 180.004 109.286 179.733 109.156 179.701C108.181 179.484 106.696 180.231 107.823 178.748C108.636 177.675 109.383 177.567 108.961 175.704C108.928 175.574 108.657 175.488 108.582 175.325C108.527 175.206 108.636 175.022 108.582 174.946C108.495 174.794 107.693 174.015 107.628 173.993C107.379 173.917 107.075 174.08 106.87 173.993C106.718 173.928 106.642 173.679 106.49 173.614C106.284 173.527 105.981 173.679 105.916 173.614C105.753 173.452 106.068 171.329 105.916 170.766C105.829 170.452 104.486 169.498 104.204 169.054C103.467 169.249 103.001 168.459 102.297 168.675C102.145 168.719 102.069 169.011 101.918 169.054C101.69 169.13 101.398 168.989 101.159 169.054C100.845 169.141 99.9349 170.69 99.4473 170.192V170.224Z" fill="white"/>
<path d="M50.7002 201.415C50.6026 201.513 49.5408 201.35 49.1724 201.415L48.7931 199.899C48.1647 200.105 48.0672 199.596 47.8396 199.52C47.6121 199.444 47.3087 199.596 47.0811 199.52C46.8969 199.466 46.8211 199 46.3227 199.141C46.171 199.184 46.0843 199.488 45.9434 199.52C45.4992 199.618 44.8707 199.423 44.4156 199.52C44.2748 199.553 43.4513 200.224 43.2779 200.278C42.8662 200.397 40.7533 199.618 39.4747 199.899C39.3663 199.921 37.7735 200.906 37.5677 201.036C37.3293 201.199 36.9175 201.795 36.8092 201.795C36.6358 201.795 35.3356 200.17 34.9022 199.888C34.8263 199.834 33.461 199.141 33.3744 199.13C32.4967 198.946 30.8064 199.52 30.3296 198.751C30.1237 198.426 30.0262 197.722 30.1346 197.614C30.2213 197.527 32.2258 197.56 32.6051 197.614C32.7459 197.636 32.8326 197.961 32.9843 197.993C33.8403 198.177 34.783 198.177 35.6498 198.751C36.1157 199.065 36.6033 200.051 37.1776 199.888C37.3618 199.834 37.676 199.282 37.9361 199.13C38.8354 198.589 40.9158 198.199 42.1294 198.372C44.3615 198.697 43.5488 198.286 45.1741 197.993C45.6509 197.906 47.3954 197.896 47.8396 197.993C47.9696 198.026 48.0563 198.296 48.2189 198.372C48.338 198.426 48.5222 198.318 48.5981 198.372C49.1399 198.697 51.1227 200.993 50.6893 201.415H50.7002Z" fill="white"/>
<path d="M59.4656 209.788C59.1188 210.167 57.4827 208.391 56.9951 208.272C56.3991 208.358 55.6298 208.152 55.0881 208.272C55.0447 208.272 54.4054 208.607 54.3296 208.651C53.6903 209.03 53.4411 210.08 52.4226 209.788C52.0975 209.69 51.2307 208.358 50.8948 208.272C50.6564 208.207 50.3638 208.347 50.1363 208.272C49.9738 208.217 49.8979 207.914 49.757 207.893C48.1859 207.611 48.2726 208.207 47.4708 208.651C47.2866 208.748 46.9724 208.575 46.8965 208.651C46.8207 208.726 46.994 209.041 46.8965 209.225C46.2681 210.329 44.036 209.539 42.8982 209.799C42.7682 209.831 42.6815 210.102 42.519 210.178C42.3998 210.232 42.2156 210.134 42.1398 210.178C41.1321 210.828 41.7497 212.279 41.5655 212.463C41.5222 212.506 40.4603 212.506 40.4278 212.463C40.0485 212.084 40.5795 209.539 41.3813 209.041C41.4571 208.997 41.6413 209.095 41.7605 209.041C41.9231 208.965 42.0097 208.694 42.1398 208.661C43.0716 208.456 44.7078 208.9 45.5638 208.661C45.8563 208.575 46.6473 207.405 47.0915 207.145C47.1674 207.102 47.8067 206.777 47.85 206.766C48.2509 206.68 50.1146 206.68 50.5155 206.766C50.6022 206.788 51.7833 207.383 52.0433 207.524C52.3034 207.665 52.6718 208.282 52.8018 208.282C52.8993 208.282 53.8528 207.329 54.3296 207.145C54.5355 207.059 54.8497 207.221 55.0881 207.145C55.4131 207.059 55.684 206.55 56.6158 206.766C56.7567 206.799 56.8434 207.102 56.9951 207.145C57.2226 207.221 57.5152 207.08 57.7536 207.145C58.1111 207.254 59.9857 209.257 59.4656 209.809V209.788Z" fill="white"/>
<path d="M24.0449 205.597C23.5898 206.019 22.8747 205.294 22.5171 205.023C22.2029 204.796 20.9026 203.723 20.8051 203.691C20.5667 203.626 20.2633 203.767 20.0466 203.691C19.8949 203.637 19.8191 203.355 19.6674 203.312C18.9631 203.095 18.4972 203.886 17.7604 203.691C17.5653 204.124 17.1102 204.005 17.0019 204.07C16.6226 204.297 15.745 205.662 15.2899 205.207C15.214 205.131 15.3874 204.817 15.2899 204.633C15.1924 204.449 14.1522 203.42 13.9571 203.301C13.8704 203.247 13.6971 203.355 13.5779 203.301C13.1228 203.095 12.9169 202.716 12.0501 202.922C11.9092 202.954 11.8226 203.258 11.6709 203.301C11.4433 203.377 11.1508 203.236 10.9124 203.301C10.6415 203.377 10.0672 204.341 9.77467 204.438C8.18187 204.969 8.77782 203.16 9.77467 202.532C9.86136 202.478 10.0564 202.586 10.1539 202.532C10.4031 202.391 11.1724 201.796 11.2916 201.774C11.7034 201.687 13.5562 201.687 13.9571 201.774C14.6073 201.926 15.6258 203.236 15.8642 203.29C16.4493 203.453 16.7093 202.619 17.0019 202.532C17.392 202.424 18.0854 202.164 18.1396 202.153C18.573 202.077 20.0249 202.066 20.4259 202.153C20.5667 202.186 20.6426 202.467 20.8051 202.532C21.9862 202.998 22.4196 203.258 23.2756 204.243C23.4923 204.482 24.4024 205.229 24.034 205.575L24.0449 205.597Z" fill="white"/>
<path d="M29.3755 193.813C29.2563 193.683 29.278 192.307 29.7547 192.101C29.6572 191.527 29.8956 190.693 29.7547 190.195C29.7005 190.011 28.5303 189.264 28.422 189.242C27.9452 189.134 26.4499 189.372 26.3307 189.242C26.2657 189.177 26.4174 188.874 26.3307 188.668C26.2766 188.538 25.9948 187.975 25.9515 187.91C25.8431 187.726 24.7054 186.6 24.6188 186.578C24.1962 186.459 22.5167 186.524 21.9532 186.578C21.2598 186.654 19.7428 187.704 20.2413 186.004C20.5121 185.105 22.0833 185.571 22.7117 185.43C22.8634 185.397 22.9718 184.91 23.4702 185.051C23.6219 185.094 23.7086 185.397 23.8494 185.43C24.1962 185.506 24.6838 185.343 24.9872 185.43C25.128 185.473 25.2039 185.733 25.3664 185.809C25.4856 185.863 25.6698 185.755 25.7456 185.809C26.5366 186.286 27.3601 188.008 27.6527 188.094C28.3245 188.278 29.1046 187.975 29.9389 188.473C30.1123 188.582 30.7841 189.242 30.8924 189.426C30.9466 189.513 30.8383 189.686 30.8924 189.805C30.9683 189.968 31.2392 190.054 31.2717 190.184C31.3367 190.488 31.3367 191.376 31.2717 191.701C31.25 191.841 30.9358 191.928 30.8924 192.08C30.8166 192.307 30.9575 192.6 30.8924 192.838C30.8166 193.098 29.6464 194.094 29.3647 193.791L29.3755 193.813Z" fill="white"/>
<path d="M28.9954 216.634C28.5837 217.045 27.3485 216.157 27.0884 215.681C26.9367 215.399 27.4135 214.955 26.5141 215.107C25.5281 213.894 23.5344 213.504 22.3208 214.348C21.584 214.154 21.129 214.944 20.4138 214.728C20.1104 214.641 18.9077 212.984 18.1276 213.211C17.5424 213.374 17.1957 215.312 16.5998 215.497C15.7763 215.746 15.3862 215.41 15.6462 214.543C15.6896 214.403 15.9496 214.327 16.0255 214.164C16.0797 214.056 15.9713 213.872 16.0255 213.785C16.1447 213.58 17.6183 212.107 17.7375 212.074C17.9867 212.009 18.9835 212.009 19.2653 212.074C19.6878 212.161 20.6522 213.179 20.7931 213.211C21.454 213.395 23.5778 212.258 24.217 212.453C24.3687 212.497 24.4554 212.8 24.5963 212.832C24.9322 212.908 25.4198 212.746 25.734 212.832C25.8749 212.876 25.9507 213.135 26.1132 213.211C26.2324 213.265 26.4166 213.157 26.4925 213.211C27.0342 213.536 29.4397 216.157 28.9629 216.634H28.9954Z" fill="white"/>
<path d="M61.361 217.012C61.4368 217.087 62.8021 217.001 63.4522 217.391C64.4166 217.965 64.6333 219.167 64.4057 220.239C64.3732 220.38 64.1023 220.456 64.0265 220.618C63.9832 220.716 64.0698 220.878 64.0265 220.997C63.9073 221.333 62.9213 221.225 62.8888 221.192C62.7371 221.04 63.0405 218.679 62.8888 218.528C62.8238 218.463 62.5204 218.614 62.3145 218.528C62.152 218.463 62.0761 218.192 61.9353 218.149C61.621 218.051 61.1226 218.235 60.7975 218.149C60.31 218.019 60.1366 216.762 59.6598 216.632C59.3998 216.568 58.0129 216.557 57.7528 216.632C57.5469 216.687 57.211 217.315 56.9943 217.391C56.5609 217.531 55.8999 216.871 56.0408 216.438C56.225 215.864 57.7311 215.636 58.132 215.105C59.4431 214.9 60.7 215.235 61.3718 216.438C61.4693 216.622 61.296 216.936 61.3718 217.012H61.361Z" fill="white"/>
<path d="M15.6676 194.951C15.6676 194.951 14.5624 194.994 14.5299 194.951C14.4107 194.832 14.6491 193.543 14.5299 193.435C14.0857 192.98 12.157 194.485 11.8644 194.193C11.7886 194.117 11.9619 193.803 11.8644 193.619C11.3985 192.785 10.3041 192.417 9.39395 192.666C9.18808 192.72 8.84135 193.37 8.63547 193.424C8.27791 193.532 7.05351 193.695 7.30272 192.85C7.75781 192.514 8.20206 191.778 8.63547 191.518C8.72216 191.463 8.89552 191.572 9.01471 191.518C9.17724 191.442 9.26393 191.171 9.39395 191.139C9.68651 191.074 10.6184 191.074 10.9217 191.139C11.3443 191.225 12.3087 192.243 12.4495 192.276C13.1213 192.471 13.7823 191.637 14.7358 191.897C14.8008 191.918 15.6676 192.785 15.6893 192.85C15.7543 193.099 15.7652 194.864 15.6893 194.94L15.6676 194.951Z" fill="white"/>
<path d="M103.631 176.691C103.631 176.691 102.526 176.734 102.493 176.691C102.396 176.604 102.71 175.618 102.114 175.359C102.482 174.655 101.344 173.052 100.781 172.889C100.543 172.824 100.25 172.965 100.023 172.889C99.8709 172.835 99.795 172.554 99.6433 172.51C99.2316 172.402 97.4112 173.702 96.5986 172.131C95.8618 172.326 95.3958 171.535 94.6915 171.752C94.5399 171.795 94.464 172.066 94.3123 172.131C94.204 172.174 94.0306 172.088 93.9331 172.131C93.543 172.304 92.1236 173.582 91.8418 173.268C91.3759 172.748 92.6328 171.308 93.1746 170.983C93.2613 170.929 93.4346 171.037 93.5538 170.983C93.7164 170.907 93.8031 170.637 93.9331 170.604C94.3015 170.517 95.8401 170.517 96.2193 170.604C96.3494 170.637 97.227 171.341 97.3571 171.362C98.2131 171.546 99.5025 171.2 100.402 171.362C100.543 171.384 100.629 171.687 100.781 171.741C101.009 171.817 101.301 171.676 101.54 171.741C101.626 171.763 102.764 172.9 102.872 173.073C102.926 173.16 102.818 173.333 102.872 173.452C102.948 173.604 103.197 173.68 103.252 173.831C103.306 173.983 103.62 174.904 103.631 174.969C103.685 175.261 103.696 176.615 103.631 176.68V176.691Z" fill="white"/>
<path d="M104.4 185.063C104.324 184.998 104.031 185.15 103.826 185.063C103.663 184.998 103.587 184.727 103.446 184.684C102.699 184.457 102.449 185.031 102.309 185.063C100.759 185.421 100.564 184.078 100.022 183.926C99.784 183.861 99.4914 184.002 99.2639 183.926C99.058 183.861 98.8738 183.33 98.1262 183.547C97.6711 183.677 96.7392 184.652 96.5984 184.684C96.2408 184.792 95.0164 184.955 95.2656 184.11C95.6015 183.861 95.8941 183.363 96.2191 183.157C96.3058 183.103 96.5008 183.211 96.5984 183.157C96.8476 183.016 97.6169 182.421 97.7361 182.399C98.1153 182.312 99.6323 182.312 100.022 182.399C100.445 182.486 101.42 183.504 101.55 183.536C102.233 183.72 103.468 183.374 104.216 183.536C104.346 183.569 104.432 183.839 104.595 183.915C104.714 183.969 104.898 183.872 104.974 183.915C105.299 184.121 106.014 185.301 105.928 185.626C105.863 185.854 105.299 186.298 104.974 186.2C104.357 186.016 104.454 185.107 104.4 185.063Z" fill="white"/>
<path d="M96.013 179.735C95.623 180.103 94.637 179.258 94.3011 179.356C94.1494 179.399 94.0735 179.691 93.9218 179.735C93.6943 179.8 93.4017 179.67 93.1633 179.735C93.0983 179.756 92.2965 180.536 92.2098 180.688C92.1557 180.774 92.264 180.948 92.2098 181.067C92.134 181.229 91.8631 181.316 91.8306 181.446C91.7222 181.922 91.9606 183.406 91.8306 183.536C91.7872 183.579 90.8771 183.482 90.6929 184.11C90.5303 184.652 91.473 186.189 91.0721 186.579C91.0288 186.623 89.9669 186.623 89.9344 186.579C89.8694 186.514 90.0211 186.211 89.9344 186.005C89.8694 185.843 89.5768 185.756 89.5552 185.626C89.4793 185.226 89.4685 183.677 89.5552 183.341C89.631 183.07 90.6279 182.464 90.6929 182.204C90.8771 181.532 90.5737 180.763 91.0721 179.919C91.1805 179.745 92.3182 178.608 92.4049 178.587C92.6432 178.522 92.9358 178.662 93.1633 178.587C93.3259 178.532 93.4017 178.229 93.5426 178.208C93.911 178.143 95.1354 178.121 95.4496 178.208C95.9264 178.338 96.2298 179.529 96.0239 179.724L96.013 179.735Z" fill="white"/>
<path d="M84.2128 178.976C84.0828 179.106 84.3429 180.741 84.2128 180.882C83.8228 181.283 82.9451 180.514 82.8801 180.503C81.5365 180.308 80.8214 180.287 80.4096 181.456C80.2904 181.792 79.3044 181.684 79.2719 181.651C79.131 181.51 79.2719 180.427 79.4669 180.135C79.9979 179.279 80.4421 179.55 80.9947 179.377C81.7315 179.139 83.0101 179.074 83.086 178.998C83.1618 178.922 82.9884 178.608 83.086 178.424C83.6386 177.449 85.6756 177.33 86.705 177.471C87.2034 177.536 87.8319 177.882 87.6585 178.424C87.3226 179.485 84.4729 178.749 84.2345 178.998L84.2128 178.976Z" fill="white"/>
<path d="M75.069 186.58C74.7873 186.861 73.8338 186.46 73.5412 186.006C73.487 185.919 73.5954 185.713 73.5412 185.626C73.162 185.042 72.501 184.901 71.8292 185.052C71.385 185.15 70.5398 186.114 70.3014 186.19C68.4594 186.785 69.8138 184.803 70.6807 184.283C70.7673 184.24 70.9407 184.338 71.0599 184.283C71.2224 184.208 71.3091 183.937 71.4391 183.904C71.7425 183.839 73.0644 183.829 73.3462 183.904C73.6929 184.002 75.5891 186.038 75.0582 186.569L75.069 186.58Z" fill="white"/>
<path d="M78.8824 174.406C78.319 174.98 77.333 173.691 77.1704 173.648C75.9244 173.323 75.7293 174.287 74.8842 174.406C73.6598 174.59 74.8083 173.442 74.6891 172.89C75.5668 172.706 76.5095 172.283 77.5497 172.511C77.6797 172.543 77.7664 172.814 77.9289 172.89C78.0481 172.944 78.2323 172.847 78.3082 172.89C78.7632 173.172 79.1641 174.125 78.8824 174.406Z" fill="white"/>
</g>
</g>
<defs>
<clipPath id="clip0_2046_3301">
<rect width="224" height="224" fill="white" transform="translate(0 56)"/>
</clipPath>
<clipPath id="clip1_2046_3301">
<rect width="224.076" height="123.021" fill="white" transform="translate(0 126)"/>
</clipPath>
</defs>
</svg>
