<svg width="224" height="280" viewBox="0 0 224 280" fill="none" xmlns="http://www.w3.org/2000/svg">
<g clip-path="url(#clip0_2046_3302)">
<path d="M0 229.852L2.75419 230.438L0 231.025V229.852Z" fill="#F4F4F4"/>
<path d="M0 177.995V177.217L0.28935 177.686L0 177.995Z" fill="#F4F4F4"/>
<path d="M216.156 169.027H224V189.693H216.938C217.699 191.922 217.227 194.524 217.324 196.912C217.956 212.268 219.21 227.57 219.681 242.925C219.713 243.928 220.153 244.824 220.099 246.05C220.003 248.534 218.342 251.318 215.78 251.915L102.655 252C100.287 251.083 99.0973 248.694 99.2366 246.231C97.2647 246.487 95.6679 245.453 95.0035 243.608L94.9285 224.2C94.8213 223.433 96.6003 222.441 97.0825 222.441H103.952V220.884H118.462L118.387 217.056C117.337 216.97 117.176 215.84 116.79 215.531C116.244 215.104 114.454 215.296 114.176 214.411C113.661 212.748 115.462 212.001 116.898 212.311V200.218H106.106C103.855 200.218 102.377 192.743 102.087 190.951C101.198 185.385 101.316 179.702 100.801 174.092C100.715 173.997 99.3866 175.489 99.2366 174.284C99.1187 173.389 100.512 173.378 100.748 172.674C101.112 171.576 100.673 169.059 100.801 167.662C101.069 164.762 102.291 163.109 105.088 162.181L210.058 162.011C213.755 162.384 215.888 165.54 216.134 169.038L216.156 169.027ZM120.038 199.045L120.059 177.388C119.534 173.239 120.563 168.281 120.059 164.133C120.016 163.749 119.888 162.789 119.448 162.789H106.899C106.513 162.789 104.445 163.493 103.973 163.781C102.923 164.421 102.119 165.647 101.98 166.873C101.348 172.834 102.302 191.442 104.423 196.827C104.745 197.638 105.409 198.192 105.517 199.056H120.027L120.038 199.045ZM120.831 174.871H165.358C166.237 174.871 167.909 172.312 167.909 171.555V163.365C167.909 163.365 167.363 162.779 167.32 162.779H120.831V174.871ZM100.426 246.231C99.976 249.089 102.055 251.307 104.916 251.318H213.616C218.963 250.88 219.081 247.329 218.91 242.904C218.052 219.455 216.777 194.982 214.966 171.565C214.805 169.454 215.405 168.036 214.259 166.031C212.962 163.749 211.012 163.013 208.493 162.8C196.201 161.744 182.473 163.6 170.031 162.779C169.634 162.683 168.681 163.066 168.681 163.386V172.749C168.681 173.858 166.087 176.065 164.951 176.065H120.82V199.077H128.857C131.515 196.774 132.844 188.243 136.391 187.454L165.358 187.358C169.131 187.187 169.334 190.728 170.138 193.532C171.96 199.856 173.01 206.382 173.793 212.908L173.771 222.483H204.957C205.428 222.483 207.218 223.475 207.111 224.243C206.746 230.055 207.614 236.453 207.132 242.19C207.068 243 206.971 244.002 206.511 244.696C206.339 244.952 204.689 246.274 204.571 246.274H100.415L100.426 246.231ZM223.218 188.52V170.392C223.218 170.392 222.671 169.806 222.628 169.806H216.156L216.938 188.52H223.218ZM172.614 222.441C173.064 212.908 171.96 203.438 169.367 194.279C169.013 193.01 168.177 189.235 167.127 188.702L136.006 188.584C133.755 189.896 131.194 200.207 128.868 200.207H120.831V206.84H124.742C124.721 205.912 124.689 204.782 125.932 204.889V209.367C124.849 210.029 124.667 208.408 124.742 207.629H120.831V215.616C120.831 216.352 119.32 216.981 119.255 217.248C119.02 218.197 119.438 219.807 119.255 220.884H133.38V222.441H172.614ZM117.691 200.218V215.232C117.691 215.776 119.62 216.32 119.984 215.179C120.541 213.441 119.802 209.101 119.78 207.117C119.78 206.126 120.391 200.581 120.038 200.229H117.68L117.691 200.218ZM116.898 213.483H115.333V214.262H116.898V213.483ZM132.598 222.057H104.745V232.582C105.731 232.571 106.213 231.771 107.296 231.771C108.689 231.771 109.9 233.168 110.886 233.275C111.786 233.371 113.297 231.867 114.379 231.793C115.74 231.707 117.155 233.328 118.28 233.328C119.309 233.328 120.724 231.857 121.838 231.793C123.199 231.707 124.614 233.328 125.739 233.328C126.768 233.328 128.161 231.867 129.297 231.793C130.433 231.718 131.451 232.72 132.608 232.571V222.046L132.598 222.057ZM103.963 223.614H96.3109C96.3109 223.614 95.7215 224.158 95.7215 224.2V242.915C95.7215 243.672 97.5112 245.453 98.2721 245.453H141.225V223.614H133.38V234.139C131.965 234.299 131.022 232.944 129.651 232.944C128.279 232.944 126.821 234.512 125.728 234.512C124.635 234.512 123.199 232.88 121.827 232.976C120.724 233.051 119.223 234.555 118.259 234.533C117.509 234.512 115.655 232.731 114.733 232.731C113.929 232.731 112.043 234.373 111.143 234.469C110.189 234.576 108.142 232.731 107.285 232.731C106.427 232.731 105.002 234.256 103.952 234.16V223.635L103.963 223.614ZM142.403 245.453H203.403C203.842 245.453 205.953 244.056 205.953 243.693V224.2C205.953 224.2 205.407 223.614 205.364 223.614H142.403V245.453Z" fill="#F4F4F4"/>
<path d="M34.5614 223.187C34.8722 223.56 36.9727 222.846 36.8548 225.32C35.3545 231.035 35.0437 237.092 33.6398 242.808C33.1361 244.866 32.5895 246.092 30.2104 245.047C30.2855 245.666 29.8997 246.796 29.2459 246.871L21.262 244.983C20.7798 244.503 21.2835 243.458 21.0263 243.106C20.4261 242.285 18.2399 243.01 18.5186 240.664L24.9378 222.067C26.0202 220.351 28.3993 221.843 28.6458 221.662L29.0745 220.127C29.2459 220.041 29.4281 220.073 29.621 220.073C30.1997 220.095 33.8327 220.841 34.1542 221.054C34.8722 221.523 34.3256 222.888 34.5721 223.176L34.5614 223.187ZM33.3504 222.441C32.7717 221.353 30.8963 221.364 29.8246 221.278C29.6425 222.398 30.0604 221.929 30.7356 222.099C31.5929 222.323 32.4502 222.537 33.3504 222.441ZM34.9151 229.468C35.8903 227.623 34.3042 226.557 32.9646 225.362C31.3786 223.944 29.6317 222.739 27.467 222.451C29.5782 225.16 32.3967 227.175 34.9151 229.468ZM34.5186 232.582C34.5721 231.75 34.6257 231.163 34.1542 230.417C33.1361 228.839 28.5708 225.096 26.8776 223.614C26.4382 223.23 26.2346 222.675 25.5058 222.835C25.5701 223.496 25.0664 223.965 25.463 224.595C25.9774 225.416 28.8816 228.05 29.8032 228.892C30.8749 229.873 32.043 230.843 33.1468 231.814C33.5862 232.198 33.7898 232.752 34.5186 232.592V232.582ZM35.6545 224.445L32.9539 224.008L35.5045 226.343L35.6545 224.445ZM33.7362 236.09C33.6934 235.599 34.122 235.162 34.122 234.714C34.122 234.085 29.5246 229.67 28.6458 228.871C27.4563 227.772 25.9131 226.738 24.7235 225.565C24.6271 226.365 23.9733 227.037 24.6914 227.73L33.7362 236.101V236.09ZM33.3397 239.214C33.3183 238.542 33.4576 237.807 33.2647 237.146C32.9539 236.09 28.0778 232.891 27.2526 231.419L23.534 228.689L23.4911 230.449C26.4275 232.944 29.0745 235.919 31.968 238.436C32.4074 238.82 32.611 239.374 33.3397 239.214ZM32.5574 242.328C32.6538 241.528 33.3076 240.856 32.5895 240.163L22.7624 231.409C22.6659 232.208 22.0122 232.88 22.7302 233.573L32.5574 242.328ZM32.1716 244.279C32.611 243.885 30.2104 241.699 29.8246 241.347C29.3424 240.899 28.7101 240.643 28.2386 240.195C26.0631 238.127 24.1341 235.77 21.5835 234.149C20.7583 236.196 22.1408 236.943 23.534 238.255C24.7021 239.353 28.978 243.458 29.9854 243.928C30.7677 244.29 31.3035 244.407 32.1716 244.29V244.279ZM27.8528 243.501L21.5835 237.455C21.1763 237.028 20.8977 237.273 20.5976 237.668C20.1582 238.244 19.1937 241.283 19.9867 241.773L27.8421 243.512L27.8528 243.501ZM29.0316 245.069L21.9693 243.512C22.0765 244.162 22.7302 244.226 23.2339 244.397C24.6485 244.898 27.0383 245.495 28.5279 245.772C29.2781 245.911 29.2674 245.346 29.0423 245.069H29.0316Z" fill="#F4F4F4"/>
<path d="M57.6659 207.629C58.5983 207.171 59.7664 206.925 60.6344 207.597L68.2861 226.152C68.3611 227.591 67.7717 228.316 66.2928 228.295C66.3464 229.074 67.0966 229.82 66.2928 230.438C65.907 230.737 59.1555 232.646 58.6411 232.603C57.6445 232.518 57.7516 231.537 57.2908 231.206C56.8943 230.918 54.8581 232.39 53.8293 230.364L49.4141 211.735L49.4784 210.018L52.179 209.186C52.0182 208.792 51.7074 208.312 51.8146 207.885C51.9968 207.149 58.4375 204.611 57.6766 207.64L57.6659 207.629ZM56.8836 207.245C55.8548 207.245 54.7081 207.491 53.7436 207.843C53.0899 208.088 52.7898 207.821 52.9613 208.792C54.183 208.376 56.1656 208.44 56.8836 207.235V207.245ZM60.4094 209.965C60.5273 209.197 60.2593 208.642 59.6378 208.205L56.8836 208.792L60.4094 209.954V209.965ZM61.5882 212.694C61.6525 212.129 61.6204 211.756 61.2346 211.297C60.8488 210.85 56.262 209.73 55.4047 209.645C54.0973 209.527 52.6719 210.146 51.3966 210.348L58.0517 212.108L61.5882 212.684V212.694ZM63.1636 215.819C63.2279 215.765 62.5956 214.635 62.4027 214.433C61.9097 213.931 50.7001 211.127 50.2178 211.532L51.2573 213.42L63.1636 215.819ZM64.3317 218.933C63.9673 218.303 64.0316 217.365 63.2814 217.056L50.9894 214.262L51.6431 216.224L64.321 218.943L64.3317 218.933ZM65.5105 222.057C65.8213 221.758 64.8246 220.074 64.1816 220.074L51.7932 217.386C51.7289 217.952 51.761 218.325 52.1468 218.783C53.1542 219.956 63.3457 221.257 65.5105 222.068V222.057ZM66.2071 223.315L52.5755 220.106C52.5755 220.628 52.4683 221.183 52.7577 221.673C53.3149 222.633 64.6317 224.403 66.4964 225.181C67.0001 224.925 66.4429 223.497 66.2178 223.315H66.2071ZM67.4717 226.344L53.3471 223.219C53.1006 225.053 53.765 225.043 55.2225 225.448C57.5695 226.088 62.692 227.41 64.9318 227.527C65.7248 227.57 67.761 227.559 67.4717 226.344ZM62.767 227.911L53.7436 226.354C54.3759 227.346 54.2902 230.343 55.5547 230.577C57.7195 229.809 59.9914 229.351 62.1776 228.69C62.7349 228.519 62.8742 228.956 62.7563 227.911H62.767ZM65.5105 229.074C63.6458 229.415 61.4918 229.895 59.7128 230.524C59.2091 230.694 58.5661 230.769 58.4482 231.409C60.5594 231.217 62.6384 230.577 64.6425 229.948C65.3069 229.745 65.682 230.129 65.4998 229.074H65.5105Z" fill="#F4F4F4"/>
<path d="M5.10092 178.379H1.96094V177.217C3.12906 177.281 5.12236 176.705 5.10092 178.379Z" fill="#F4F4F4"/>
<path d="M90.6205 178.379C90.3955 177.356 91.0278 177.569 91.7136 177.334C92.1316 177.185 94.1999 176.492 94.1463 177.398C94.1142 178.028 91.285 178.561 90.6205 178.369V178.379Z" fill="#F4F4F4"/>
<path d="M61.5893 182.282C58.9101 183.626 55.8451 181.013 60.239 181.493C60.8284 181.557 61.4392 181.579 61.5893 182.282Z" fill="#F4F4F4"/>
<path d="M9.80617 178.773C8.63806 178.709 6.64475 179.296 6.66619 177.611C7.8343 177.675 9.82761 177.089 9.80617 178.773Z" fill="#F4F4F4"/>
<path d="M71.0082 181.888C69.8723 182.122 68.4255 182.858 67.4824 181.696C67.4717 180.981 70.7725 180.629 71.0082 181.888Z" fill="#F4F4F4"/>
<path d="M52.1801 181.504C51.9443 182.762 48.6436 182.41 48.6543 181.695C49.5974 180.533 51.0441 181.269 52.1801 181.504Z" fill="#F4F4F4"/>
<path d="M14.5113 179.157C13.3431 179.093 11.3498 179.68 11.3713 177.995C12.5394 178.059 14.5327 177.472 14.5113 179.157Z" fill="#F4F4F4"/>
<path d="M19.2261 179.552C18.058 179.488 16.0647 180.074 16.0861 178.389C17.2542 178.453 19.2475 177.867 19.2261 179.552Z" fill="#F4F4F4"/>
<path d="M23.9301 179.169C24.2516 180.299 22.9334 180.011 22.1511 179.958C18.5717 179.712 21.6367 178.07 23.9301 179.169Z" fill="#F4F4F4"/>
<path d="M76.8929 180.33C77.4502 180.565 80.4187 179.456 80.4187 180.522C80.4187 181.013 76.4428 182.09 76.8929 180.33Z" fill="#F4F4F4"/>
<path d="M95.3251 176.822C94.5106 176.118 98.5615 174.05 98.4544 175.457C98.4222 175.831 95.7109 177.153 95.3251 176.822Z" fill="#F4F4F4"/>
<path d="M12.164 230.641C13.0856 231.483 9.40977 232.485 9.03468 231.217C8.8525 230.267 9.79557 230.662 10.4064 230.641C10.7922 230.63 12.1104 230.587 12.1747 230.641H12.164Z" fill="#F4F4F4"/>
<path d="M7.45938 230.641C7.78088 231.771 6.46273 231.483 5.68041 231.43C5.25175 231.398 3.94431 231.409 3.93359 230.833C3.93359 229.724 6.86996 230.737 7.45938 230.641Z" fill="#F4F4F4"/>
<path d="M75.3176 180.725C76.3143 181.631 72.6813 182.175 72.1776 181.887C71.7275 180.405 75.1354 180.554 75.3176 180.725Z" fill="#F4F4F4"/>
<path d="M39.2234 181.503C38.9019 180.373 40.22 180.661 41.0024 180.714C41.431 180.746 42.7385 180.736 42.7492 181.312C42.7492 182.421 39.8128 181.408 39.2234 181.503Z" fill="#F4F4F4"/>
<path d="M34.5183 181.109C34.1968 179.979 35.515 180.267 36.2973 180.32C36.7259 180.352 38.0334 180.341 38.0441 180.917C38.0441 182.026 35.1077 181.013 34.5183 181.109Z" fill="#F4F4F4"/>
<path d="M84.7365 179.168C84.8865 180.032 84.3614 180.085 83.7506 180.33C82.5074 180.831 81.1571 181.205 81.5965 179.563L84.7365 179.168Z" fill="#F4F4F4"/>
<path d="M28.6352 179.552C29.0853 181.311 25.1201 180.234 25.1094 179.744C25.1094 178.667 28.0779 179.787 28.6352 179.552Z" fill="#F4F4F4"/>
<path d="M89.4423 179.158C85.8307 180.128 84.7162 178.966 88.8743 178.081L89.4423 179.158Z" fill="#F4F4F4"/>
<path d="M29.8145 179.947C30.4253 179.947 33.3617 179.712 33.3402 180.534C33.3081 181.504 29.9966 180.885 29.8145 179.947Z" fill="#F4F4F4"/>
<path d="M101.605 206.456C102.494 207.458 99.1615 209.591 99.2579 208.205C99.2579 208.055 101.24 206.04 101.605 206.456Z" fill="#F4F4F4"/>
<path d="M47.4638 181.888C46.4885 182.186 45.5133 181.962 44.5274 181.888C43.9594 181.834 43.3164 181.642 43.938 181.12C45.0525 181.259 46.8851 180.587 47.4638 181.898V181.888Z" fill="#F4F4F4"/>
<path d="M16.8672 231.409C16.0099 231.153 13.4272 232.123 13.7272 230.63L16.2457 230.289L16.8672 231.409Z" fill="#F4F4F4"/>
<path d="M105.131 208.792C104.702 209.24 102.688 207.32 103.17 206.456C103.598 206.009 105.613 207.928 105.131 208.792Z" fill="#F4F4F4"/>
<path d="M105.131 202.948C105.613 203.812 103.598 205.742 103.17 205.284C102.688 204.42 104.702 202.49 105.131 202.948Z" fill="#F4F4F4"/>
<path d="M56.884 182.282C55.9087 182.25 54.9121 182.335 53.9369 182.282C53.2939 182.25 52.8438 181.941 53.3582 181.504C54.4727 181.642 56.3053 180.971 56.884 182.282Z" fill="#F4F4F4"/>
<path d="M66.2941 181.503C65.7154 182.815 63.8829 182.143 62.7683 182.282C62.2539 181.845 62.704 181.535 63.347 181.503C64.3222 181.45 65.3189 181.535 66.2941 181.503Z" fill="#F4F4F4"/>
<path d="M101.604 205.283C101.24 205.678 99.8893 204.228 99.6428 203.918C99.1498 203.311 99.6213 202.927 99.8357 202.948C100.564 203.769 101.915 203.844 101.604 205.283Z" fill="#F4F4F4"/>
<path d="M20.7903 231.025C20.2224 231.281 18.0469 231.75 18.0469 230.833C18.0469 230.119 20.5974 229.841 20.7903 231.025Z" fill="#F4F4F4"/>
<path d="M203.081 172.664C211.965 181.493 196.801 194.406 188.699 184.031C181.776 175.159 195.215 164.847 203.081 172.664ZM194.872 171.075C188.699 171.938 185.666 179.179 189.921 183.978C193.575 188.094 200.562 187.379 203.531 182.805C205.095 180.384 204.667 176.108 202.813 173.89C201.023 171.747 197.594 170.691 194.861 171.075H194.872Z" fill="#F4F4F4"/>
<path d="M189.609 207.106C185.333 202.873 186.341 195.654 191.817 192.988C198.847 189.575 206.831 194.8 205.47 202.659C204.302 209.399 194.41 211.862 189.609 207.106ZM195.268 192.902C189.952 193.574 186.223 198.917 188.613 203.992C192.449 212.139 206.456 208.93 204.291 198.543C203.541 194.918 198.74 192.455 195.268 192.892V192.902Z" fill="#F4F4F4"/>
<path d="M137.11 213.089C138.406 213.014 136.949 215.594 135.942 215.424C135.438 215.328 135.331 214.955 135.738 214.453C135.931 214.208 137.013 213.099 137.11 213.099V213.089Z" fill="#F4F4F4"/>
<path d="M131.816 218.933C131.494 217.493 132.855 217.419 133.584 216.598C133.798 216.576 134.27 216.96 133.777 217.568C133.531 217.877 132.18 219.327 131.816 218.933Z" fill="#F4F4F4"/>
<path d="M131.815 213.483C132.522 213.1 134.151 214.571 134.162 214.848C134.205 216.171 131.472 214.614 131.815 213.483Z" fill="#F4F4F4"/>
<path d="M137.698 218.933C137.301 219.317 135.994 217.898 135.737 217.568C135.244 216.96 135.715 216.576 135.929 216.598C136.079 216.608 138.083 218.549 137.698 218.933Z" fill="#F4F4F4"/>
<path d="M195.268 172.248C200.776 171.522 205.138 177.003 202.437 182.101C200.101 186.505 192.964 186.622 190.327 182.421C187.648 178.155 190.349 172.898 195.268 172.248ZM200.733 174.999C195.782 170.125 187.209 176.012 191.27 181.866C196.275 189.075 206.295 180.48 200.733 174.999Z" fill="#F4F4F4"/>
<path d="M191.176 196.059C196.33 191.239 205.086 195.803 202.943 202.884C201.624 207.234 195.548 208.716 192.033 206.072C188.861 203.694 188.218 198.842 191.176 196.059ZM191.958 204.771C198.077 210.487 206.672 200.975 199.653 196.155C193.78 192.113 186.857 200.004 191.958 204.771Z" fill="#F4F4F4"/>
</g>
<defs>
<clipPath id="clip0_2046_3302">
<rect width="224" height="90" fill="white" transform="translate(0 162)"/>
</clipPath>
</defs>
</svg>
