<svg width="592" height="262" viewBox="0 0 592 262" fill="none" xmlns="http://www.w3.org/2000/svg">
<path d="M600.545 210.811V225.823C600.545 226.128 599.28 230.503 599.007 231.147C596.454 237.158 589.984 240.202 583.777 240.813C553.971 243.77 519.506 238.599 489.198 240.857C480.994 240.159 474.055 235.958 472.451 227.558V110.886C473.357 106.184 476.466 101.591 480.852 99.5508C481.561 99.2235 486.34 97.6198 486.645 97.6198H516.298V79.1819C516.298 64.0934 534.267 53.3798 548.112 54.3181C556.742 34.9201 594.119 33.2182 607.32 46.6811C608.859 48.2412 612.055 54.0235 612.557 54.329C613.703 55.0272 622.616 55.2236 625.507 55.9873C635.108 58.5511 643.563 68.3047 644.414 78.2873L643.989 190.278C638.283 211.247 619.147 212.153 600.534 210.822L600.545 210.811ZM555.967 67.4646C557.396 68.2065 558.946 68.3701 560.538 68.4792C570.314 69.1884 592.646 69.7011 601.876 68.4792C604.375 68.1519 605.695 67.4209 605.673 64.6934C605.618 58.7802 599.934 51.1978 594.305 49.3649C590.694 48.1866 574.296 48.1648 570.008 48.6885C561.586 49.714 554.483 59.0639 555.967 67.4537V67.4646ZM600.545 201.374H620.751C621.045 201.374 625.529 199.53 626.26 199.148C630.875 196.737 634.377 191.577 634.944 186.372C632.642 152.082 637.999 113.81 634.977 79.9892C634.05 69.6575 626.249 64.8244 616.518 64.257L615.601 64.988C614.663 71.0431 612.044 75.7562 605.946 77.6763C590.65 76.6835 572.027 79.6838 557.124 77.8945C550.654 77.1199 546.17 71.2722 545.984 64.9771L545.046 64.2461C539.133 63.5043 526.63 70.2575 526.63 76.5853V97.5979H586.373C591.741 97.5979 600.556 106.38 600.556 111.748V201.374H600.545ZM485.096 108.061C482.903 108.715 481.725 112.174 481.877 114.29C484.376 149.66 478.692 189.285 481.877 224.143C482.325 229.085 483.448 230.132 488.325 230.58C518.906 233.362 553.665 228.365 584.693 230.591C586.984 230.831 588.577 229.761 589.777 227.939L590.279 113.417C590.519 111.137 589.45 109.544 587.628 108.344L485.085 108.061H485.096Z" fill="#FF9178"/>
<path d="M556.458 150.086C561.597 148.537 565.121 153.163 562.219 157.559L530.896 195.81C528.998 196.846 527.438 195.941 525.801 194.893C524.415 194.01 510.353 180.078 509.883 179.063C508.094 175.19 510.549 171.273 514.706 171.786C518.819 172.288 523.575 180.198 527.023 182.554C527.787 183.078 528.19 183.765 529.194 182.98C534.3 178.79 552.443 151.286 556.458 150.075V150.086Z" fill="#FF9178"/>
<path d="M319.493 -64.9061C329.53 -65.2552 338.651 -62.2332 346.921 -56.7563C349.55 -55.0108 355.311 -49.0321 356.631 -48.432C359.271 -47.2428 364.813 -48.2793 368.13 -47.8974C385.968 -45.8682 403.489 -28.3904 405.518 -10.5962C405.9 -7.26867 404.951 -2.53374 405.78 0.281036C406.042 1.17565 412.577 7.90712 414.039 10.0455C425.233 26.4323 425.396 45.012 414.388 61.5406C412.883 63.799 406.031 70.9341 405.769 71.8178C404.94 74.6326 405.878 79.3784 405.508 82.6951C403.478 100.489 385.957 117.978 368.119 119.996C364.792 120.378 360.035 119.44 357.209 120.258C356.314 120.52 349.572 127.033 347.412 128.495C330.981 139.656 312.369 139.82 295.797 128.844C293.538 127.35 286.381 120.509 285.498 120.247C282.672 119.418 277.926 120.356 274.588 119.985C256.75 117.956 239.218 100.478 237.199 82.6841C236.817 79.3566 237.767 74.6216 236.937 71.8069C236.676 70.9122 230.141 64.1808 228.679 62.0424C217.485 45.6556 217.321 27.076 228.329 10.5473C229.835 8.28896 236.687 1.15383 236.948 0.270126C237.778 -2.54465 236.839 -7.29049 237.21 -10.6071C239.239 -28.4013 256.761 -45.89 274.599 -47.9084C277.926 -48.2902 282.683 -47.3519 285.509 -48.1702C286.403 -48.432 293.146 -54.9453 295.306 -56.4072C302.441 -61.2622 310.765 -64.6006 319.493 -64.917V-64.9061ZM314.267 -54.6398C309.729 -53.9416 303.226 -50.6686 299.593 -47.8429C297.139 -45.9336 292.306 -39.464 291.269 -38.9949C288.356 -37.6748 280.872 -38.9185 277.108 -38.5476C262.827 -37.1511 249.211 -24.4737 246.975 -10.3016C246.276 -5.89401 247.466 3.12855 246.145 6.0306C245.633 7.15433 239.763 11.2783 238.007 13.3512C227.217 26.0613 227.369 46.6812 238.41 59.2277C240.112 61.1587 245.622 64.9336 246.145 66.09C247.466 68.9921 246.222 76.4655 246.593 80.2185C248 94.4669 260.699 108.05 274.904 110.286C279.323 110.985 288.367 109.795 291.269 111.116C292.404 111.628 296.528 117.476 298.601 119.233C311.344 129.99 332.007 129.848 344.575 118.829C346.506 117.138 350.292 111.639 351.449 111.116C354.351 109.795 361.846 111.039 365.61 110.668C379.891 109.272 393.507 96.5944 395.743 82.4223C396.441 78.0147 395.252 68.9921 396.572 66.09C397.085 64.9663 402.955 60.8423 404.711 58.7694C415.501 46.0593 415.348 25.4395 404.307 12.893C402.605 10.9619 397.096 7.18706 396.572 6.0306C395.252 3.12855 396.496 -4.3448 396.125 -8.09783C394.718 -22.3463 382.018 -35.9292 367.814 -38.1657C363.395 -38.864 354.351 -37.6748 351.449 -38.9949C350.314 -39.5077 346.19 -45.3554 344.117 -47.1119C336 -53.9634 324.686 -56.2654 314.256 -54.6398H314.267Z" fill="#FF9178"/>
<path d="M352.856 7.12167C356.773 6.70709 359.664 10.9947 357.667 14.3659C344.968 30.9382 334.047 49.0487 321.206 65.4901C319.101 68.1848 316.362 73.5635 312.544 72.8107C308.071 71.927 289.895 50.2925 285.05 46.1249C282.956 41.379 287.32 38.1387 291.924 40.1353C295.83 41.8372 311.016 60.5915 313.176 60.0678L349.376 9.53277C350.172 8.45268 351.514 7.26349 352.867 7.11075L352.856 7.12167Z" fill="#FF9178"/>
<path d="M83.1833 60.0024C149.407 58.344 192.305 130.394 158.833 187.802C157.153 190.693 149.134 200.348 149.658 202.367L201.109 254.004C204.884 256.884 200.335 262.797 196.789 261.804L142.905 209.087C140.93 208.574 130.696 216.877 127.762 218.557C66.7202 253.349 -8.07865 203.272 0.922082 134.037C6.26797 92.9069 41.5072 61.0388 83.1724 59.9914L83.1833 60.0024ZM75.4373 70.3014C22.6439 75.6582 -5.87484 136.449 19.5891 182.118C47.7586 232.62 122.372 232.751 150.847 182.412C182.017 127.295 137.897 63.9627 75.4373 70.3014Z" fill="#FF9178"/>
<path d="M50.8896 144.009C52.1007 142.798 55.1118 142.656 56.6828 143.376C60.3595 145.056 70.9422 158.716 75.5898 162.272C76.2335 162.763 76.6045 163.658 77.6409 163.462C78.7974 162.883 79.452 161.803 80.2702 160.876C91.933 147.577 102.297 125.32 114.266 113.319C115.389 112.185 117.19 110.374 118.892 110.526C124.456 113.123 124.248 115 121.532 119.702C113.393 133.754 96.177 156.752 85.7798 169.789C83.7614 172.321 81.5249 176.794 77.8046 176.401C74.6625 176.074 55.1773 153.424 50.6496 150.271C49.3186 148.886 49.6786 145.22 50.9005 143.998L50.8896 144.009Z" fill="#FF9178"/>
</svg>
