<svg xmlns="http://www.w3.org/2000/svg" xmlns:xlink="http://www.w3.org/1999/xlink" width="120" height="120" viewBox="0 0 120 120">
  <defs>
    <clipPath id="clip-path">
      <rect id="사각형_1106" data-name="사각형 1106" width="120" height="120" transform="translate(1749 1585)" fill="#fff" stroke="#707070" stroke-width="1"/>
    </clipPath>
  </defs>
  <g id="ic_degitalLabel_truth" transform="translate(-1749 -1585)" clip-path="url(#clip-path)">
    <path id="패스_21956" data-name="패스 21956" d="M47.4,11.359a12.878,12.878,0,0,0-.574,3.814,4.309,4.309,0,0,0,4.308,4.308H76.981a4.308,4.308,0,0,0,4.308-4.308,12.923,12.923,0,0,0-.574-3.814m-33.313,0A12.929,12.929,0,0,1,59.75,2.25h8.615a12.925,12.925,0,0,1,12.349,9.109m-33.313,0q-3.239.2-6.456.459A12.5,12.5,0,0,0,29.6,24.409v12.3M80.714,11.359q3.239.2,6.456.459a12.5,12.5,0,0,1,11.349,12.59V84.1A12.923,12.923,0,0,1,85.6,97.019H72.673M29.6,36.712H10.212A6.464,6.464,0,0,0,3.75,43.173v64.615a6.464,6.464,0,0,0,6.462,6.462h56a6.464,6.464,0,0,0,6.462-6.462V97.019M29.6,36.712H66.212a6.464,6.464,0,0,1,6.462,6.462V97.019M25.288,79.788,33.9,88.4,51.135,66.865" transform="translate(1757.865 1586.75)" fill="none" stroke="#f63" stroke-linecap="round" stroke-linejoin="round" stroke-width="6"/>
  </g>
</svg>
