<svg width="20" height="20" viewBox="0 0 20 20" fill="none" xmlns="http://www.w3.org/2000/svg">
<circle cx="10.5" cy="10" r="10" fill="#64659C"/>
<g clip-path="url(#clip0_2003_2123)">
<path d="M6.7398 12.6406C6.0798 12.6406 5.5498 13.1706 5.5498 13.8306C5.5498 14.4906 6.0798 15.0206 6.7398 15.0206C7.3998 15.0206 7.9298 14.4906 7.9298 13.8306C7.9298 13.1706 7.3998 12.6406 6.7398 12.6406Z" fill="#F4F4F4"/>
<path d="M15.8199 12.6406C15.1699 12.6406 14.6299 13.1706 14.6299 13.8306C14.6299 14.4906 15.1599 15.0206 15.8199 15.0206C16.4799 15.0206 17.0099 14.4906 17.0099 13.8306C17.0099 13.1706 16.4799 12.6406 15.8199 12.6406Z" fill="#F4F4F4"/>
<path d="M18.49 9.4L16.73 6.98C16.73 6.98 16.65 6.91 16.6 6.91H15.39H14.44V5.16C14.44 5.07 14.37 5 14.27 5H3.66C3.57 5 3.5 5.07 3.5 5.16V13.83C3.5 13.92 3.57 13.99 3.66 13.99H5.24C5.24 13.94 5.22 13.88 5.22 13.83C5.22 13.77 5.23 13.72 5.24 13.66C5.32 12.9 5.95 12.31 6.73 12.31C7.51 12.31 8.14 12.9 8.23 13.66C8.23 13.71 8.24 13.77 8.24 13.83C8.24 13.88 8.24 13.94 8.23 13.99H14.26C14.26 13.99 14.29 13.98 14.31 13.97C14.31 13.92 14.3 13.88 14.3 13.83C14.3 13.61 14.35 13.41 14.43 13.22C14.66 12.69 15.2 12.31 15.82 12.31C16.65 12.31 17.33 12.99 17.33 13.83C17.33 13.96 17.31 14.06 17.29 14.17H18.36C18.45 14.17 18.53 14.1 18.53 14.01V9.7V9.5C18.53 9.5 18.52 9.43 18.5 9.4H18.49ZM15.55 9.53V7.24H16.52L18.19 9.53H15.56H15.55Z" fill="#F4F4F4"/>
</g>
<defs>
<clipPath id="clip0_2003_2123">
<rect width="15.02" height="10.02" fill="white" transform="translate(3.5 5)"/>
</clipPath>
</defs>
</svg>