<svg width="20" height="20" viewBox="0 0 20 20" fill="none" xmlns="http://www.w3.org/2000/svg">
<circle cx="10.5" cy="10" r="10" fill="#B2998A"/>
<path d="M15.9095 7.13984C15.9095 7.13984 15.8295 7.08984 15.7895 7.08984H5.43953C5.43953 7.08984 5.34953 7.10984 5.31953 7.13984C5.28953 7.16984 5.26953 7.21984 5.26953 7.26984L5.99953 16.6498C5.99953 16.7398 6.06953 16.7998 6.15953 16.7998H15.0395C15.1295 16.7998 15.1995 16.7298 15.2095 16.6498L15.9395 7.26984C15.9395 7.26984 15.9295 7.17984 15.8995 7.13984H15.9095ZM7.70953 15.2498V8.48984C7.70953 8.39984 7.77953 8.32984 7.87953 8.32984C7.96953 8.32984 8.03953 8.39984 8.03953 8.48984V15.2498C8.03953 15.3398 7.96953 15.4198 7.87953 15.4198C7.78953 15.4198 7.70953 15.3498 7.70953 15.2498ZM9.53953 15.2498V8.48984C9.53953 8.39984 9.60953 8.32984 9.69953 8.32984C9.78953 8.32984 9.86953 8.39984 9.86953 8.48984V15.2498C9.86953 15.3398 9.79953 15.4198 9.69953 15.4198C9.60953 15.4198 9.53953 15.3498 9.53953 15.2498ZM11.3595 15.2498V8.48984C11.3595 8.39984 11.4295 8.32984 11.5295 8.32984C11.6195 8.32984 11.6895 8.39984 11.6895 8.48984V15.2498C11.6895 15.3398 11.6195 15.4198 11.5295 15.4198C11.4395 15.4198 11.3595 15.3498 11.3595 15.2498ZM13.5195 15.2498C13.5195 15.3398 13.4495 15.4198 13.3495 15.4198C13.2595 15.4198 13.1895 15.3498 13.1895 15.2498V8.48984C13.1895 8.39984 13.2595 8.32984 13.3495 8.32984C13.4395 8.32984 13.5195 8.39984 13.5195 8.48984V15.2498Z" fill="#F4F4F4"/>
<path d="M16.56 4.48H12.96V3.73C12.96 3.33 12.63 3 12.23 3H8.99C8.59 3 8.26 3.33 8.26 3.73V4.48H4.67C4.58 4.48 4.5 4.55 4.5 4.65V6.39C4.5 6.48 4.57 6.55 4.67 6.55H16.57C16.66 6.55 16.73 6.48 16.73 6.39V4.65C16.73 4.56 16.66 4.48 16.57 4.48H16.56ZM8.59 3.73C8.59 3.51 8.77 3.32 9 3.32H12.24C12.46 3.32 12.65 3.5 12.65 3.73V4.48H8.6V3.73H8.59Z" fill="#F4F4F4"/>
</svg>