<svg width="20" height="20" viewBox="0 0 20 20" fill="none" xmlns="http://www.w3.org/2000/svg">
<circle cx="10.5" cy="10" r="10" fill="#E07A61"/>
<path d="M15.34 12.8633H14.7627V15.7819H15.34V12.8633Z" fill="#F4F4F4"/>
<g clip-path="url(#clip0_2003_2103)">
<path d="M16.602 11.7715H13.0419H4.5V15.3743H17.5V11.7715H16.602Z" fill="#F4F4F4"/>
<path d="M14.6772 7.75278C15.0787 7.75278 15.4041 7.4273 15.4041 7.0258C15.4041 6.62431 15.0787 6.29883 14.6772 6.29883C14.2757 6.29883 13.9502 6.62431 13.9502 7.0258C13.9502 7.4273 14.2757 7.75278 14.6772 7.75278Z" fill="#F4F4F4"/>
<path d="M16.6022 9.62336V6.35198C16.6022 5.65707 16.0783 5.10115 15.4048 5.02632C15.4048 5.10115 15.3407 5.1653 15.2551 5.1653H13.3415C13.256 5.1653 13.1918 5.10115 13.1918 5.01562H6.58491C5.91139 5.01562 5.35547 5.56086 5.35547 6.24507V8.86431C5.35547 9.17435 5.60136 9.42024 5.91139 9.42024H6.76665C6.76665 9.33471 6.8308 9.27056 6.91632 9.27056C7.00185 9.27056 7.066 9.33471 7.066 9.42024H7.94264C8.25267 9.42024 8.49856 9.17435 8.49856 8.86431V8.2977H13.0208V9.62336H16.5808H16.6022ZM14.6778 8.0625C14.1112 8.0625 13.6515 7.6028 13.6515 7.03619C13.6515 6.46957 14.1112 6.00987 14.6778 6.00987C15.2445 6.00987 15.7042 6.46957 15.7042 7.03619C15.7042 7.6028 15.2445 8.0625 14.6778 8.0625Z" fill="#F4F4F4"/>
<path d="M16.602 9.92188H13.042V11.7714H16.602V9.92188Z" fill="#F4F4F4"/>
<path d="M6.77734 9.41992V10.6387C6.77734 10.7242 6.84149 10.7883 6.92701 10.7883C7.01254 10.7883 7.07669 10.7242 7.07669 10.6387V9.41992H6.77734Z" fill="#F4F4F4"/>
<path d="M6.92701 9.27148C6.84149 9.27148 6.77734 9.33563 6.77734 9.42116H7.07669C7.07669 9.33563 7.01254 9.27148 6.92701 9.27148Z" fill="#F4F4F4"/>
<path d="M14.6772 7.76254C14.2709 7.76254 13.9502 7.43113 13.9502 7.03557C13.9502 6.64001 14.2816 6.30859 14.6772 6.30859C15.0727 6.30859 15.4041 6.64001 15.4041 7.03557C15.4041 7.43113 15.0727 7.76254 14.6772 7.76254Z" fill="#F4F4F4"/>
<path d="M15.4045 5.0258C15.4045 5.0258 15.4045 5.0258 15.4045 5.01511V4.29883H15.1051V4.85475H13.5015V4.29883H13.2021V5.01511H15.2655C15.2655 5.01511 15.3617 5.01511 15.4151 5.0258H15.4045Z" fill="#F4F4F4"/>
<path d="M13.3518 5.1653H15.2655C15.3403 5.1653 15.4045 5.10115 15.4151 5.02632C15.3617 5.02632 15.3189 5.01562 15.2655 5.01562H13.2021C13.2021 5.10115 13.2663 5.1653 13.3518 5.1653Z" fill="#F4F4F4"/>
<path d="M15.4153 4.14967V4.29934H15.7574C15.8429 4.29934 15.9071 4.2352 15.9071 4.14967C15.9071 4.06414 15.8429 4 15.7574 4H15.2656C15.3512 4 15.4153 4.06414 15.4153 4.14967Z" fill="#F4F4F4"/>
<path d="M13.3524 4H12.8606C12.7751 4 12.7109 4.06414 12.7109 4.14967C12.7109 4.2352 12.7751 4.29934 12.8606 4.29934H13.2027V4.14967C13.2027 4.06414 13.2669 4 13.3524 4Z" fill="#F4F4F4"/>
<path d="M15.1051 4.29934H15.4044V4.14967C15.4044 4.06414 15.3403 4 15.2547 4H13.3411C13.2556 4 13.1914 4.06414 13.1914 4.14967V4.29934H15.1051Z" fill="#F4F4F4"/>
</g>
<defs>
<clipPath id="clip0_2003_2103">
<rect width="13" height="11.375" fill="white" transform="translate(4.5 4)"/>
</clipPath>
</defs>
</svg>