<svg width="20" height="20" viewBox="0 0 20 20" fill="none" xmlns="http://www.w3.org/2000/svg">
    <g clip-path="url(#clip0_2003_2097)">
    <circle cx="10.5" cy="10" r="10" fill="#80B399"/>
    <path d="M16.2297 8.77675C16.4522 8.36876 16.582 7.90514 16.582 7.40442C16.582 6.27318 15.933 5.29957 14.9872 4.83595C14.607 4.6505 14.1805 4.5485 13.7261 4.5485H13.7076C13.2347 3.63053 12.2703 3 11.1669 3C11.0649 3 10.9629 3 10.8702 3.01854C10.7682 3.00927 10.6755 3 10.5735 3C9.47004 3 8.50571 3.63053 8.03281 4.5485H8.01427C7.55991 4.5485 7.13338 4.6505 6.75321 4.83595C5.80742 5.29957 5.15835 6.27318 5.15835 7.40442C5.15835 7.90514 5.28816 8.36876 5.5107 8.77675C4.88944 9.30528 4.5 10.0842 4.5 10.9558C4.5 12.3281 5.46434 13.4779 6.76248 13.7468C6.9572 13.7839 7.15193 13.8117 7.35592 13.8117H8.51498C8.98787 13.8117 9.43295 13.6633 9.80385 13.4223C9.28459 13.1626 8.75606 12.5599 8.66334 11.2154C8.66334 11.2154 9.43295 11.2432 10.0635 11.7161C10.1469 11.3267 10.4807 10.8816 10.8795 10.3809C11.2782 10.8816 11.6027 11.3359 11.6954 11.7161C12.326 11.2432 13.0956 11.2154 13.0956 11.2154C13.0029 12.5599 12.4651 13.1534 11.9551 13.4223C12.326 13.6633 12.771 13.8117 13.2439 13.8117H14.403C14.607 13.8117 14.811 13.7932 14.9964 13.7468C16.2853 13.4686 17.2589 12.3281 17.2589 10.9558C17.2589 10.0842 16.8695 9.29601 16.2482 8.77675H16.2297Z" fill="#F4F4F4"/>
    <path d="M11.1208 13.4688H10.6201V16.0001H11.1208V13.4688Z" fill="#F4F4F4"/>
    </g>
    <defs>
    <clipPath id="clip0_2003_2097">
    <rect width="20" height="20" fill="white" transform="translate(0.5)"/>
    </clipPath>
    </defs>
</svg>     