<svg width="20" height="17" viewBox="0 0 20 17" fill="none" xmlns="http://www.w3.org/2000/svg">
<path d="M8.75 3.5H16.875M8.75 3.5C8.75 3.83152 8.6183 4.14946 8.38388 4.38388C8.14946 4.6183 7.83152 4.75 7.5 4.75C7.16848 4.75 6.85054 4.6183 6.61612 4.38388C6.3817 4.14946 6.25 3.83152 6.25 3.5M8.75 3.5C8.75 3.16848 8.6183 2.85054 8.38388 2.61612C8.14946 2.3817 7.83152 2.25 7.5 2.25C7.16848 2.25 6.85054 2.3817 6.61612 2.61612C6.3817 2.85054 6.25 3.16848 6.25 3.5M6.25 3.5H3.125M8.75 13.5H16.875M8.75 13.5C8.75 13.8315 8.6183 14.1495 8.38388 14.3839C8.14946 14.6183 7.83152 14.75 7.5 14.75C7.16848 14.75 6.85054 14.6183 6.61612 14.3839C6.3817 14.1495 6.25 13.8315 6.25 13.5M8.75 13.5C8.75 13.1685 8.6183 12.8505 8.38388 12.6161C8.14946 12.3817 7.83152 12.25 7.5 12.25C7.16848 12.25 6.85054 12.3817 6.61612 12.6161C6.3817 12.8505 6.25 13.1685 6.25 13.5M6.25 13.5H3.125M13.75 8.5H16.875M13.75 8.5C13.75 8.83152 13.6183 9.14946 13.3839 9.38388C13.1495 9.6183 12.8315 9.75 12.5 9.75C12.1685 9.75 11.8505 9.6183 11.6161 9.38388C11.3817 9.14946 11.25 8.83152 11.25 8.5M13.75 8.5C13.75 8.16848 13.6183 7.85054 13.3839 7.61612C13.1495 7.3817 12.8315 7.25 12.5 7.25C12.1685 7.25 11.8505 7.3817 11.6161 7.61612C11.3817 7.85054 11.25 8.16848 11.25 8.5M11.25 8.5H3.125" stroke="black" stroke-width="1.5" stroke-linecap="round" stroke-linejoin="round"/>
</svg>
