<svg width="24" height="24" viewBox="0 0 24 24" fill="none" xmlns="http://www.w3.org/2000/svg">
<path d="M11.4802 3.49921C11.5225 3.39605 11.5945 3.30779 11.6871 3.24567C11.7797 3.18356 11.8887 3.15039 12.0002 3.15039C12.1117 3.15039 12.2206 3.18356 12.3132 3.24567C12.4058 3.30779 12.4779 3.39605 12.5202 3.49921L14.6452 8.61021C14.6849 8.70585 14.7503 8.78866 14.8341 8.84953C14.9179 8.9104 15.0169 8.94697 15.1202 8.95521L20.6382 9.39721C21.1372 9.43721 21.3392 10.0602 20.9592 10.3852L16.7552 13.9872C16.6766 14.0544 16.6181 14.1419 16.586 14.2402C16.5539 14.3384 16.5494 14.4436 16.5732 14.5442L17.8582 19.9292C17.884 20.0373 17.8772 20.1505 17.8387 20.2547C17.8002 20.3589 17.7317 20.4494 17.6418 20.5146C17.5519 20.5799 17.4447 20.6171 17.3337 20.6214C17.2227 20.6258 17.1129 20.5972 17.0182 20.5392L12.2932 17.6542C12.2049 17.6003 12.1036 17.5718 12.0002 17.5718C11.8968 17.5718 11.7954 17.6003 11.7072 17.6542L6.98216 20.5402C6.88742 20.5982 6.77762 20.6268 6.66662 20.6224C6.55562 20.6181 6.44841 20.5809 6.35853 20.5156C6.26865 20.4504 6.20013 20.3599 6.16162 20.2557C6.12311 20.1515 6.11634 20.0383 6.14216 19.9302L7.42716 14.5442C7.451 14.4436 7.44661 14.3384 7.4145 14.2401C7.38239 14.1418 7.3238 14.0543 7.24516 13.9872L3.04116 10.3852C2.95651 10.313 2.89517 10.2174 2.86492 10.1103C2.83468 10.0033 2.83688 9.88966 2.87125 9.78386C2.90563 9.67807 2.97062 9.58485 3.05802 9.51602C3.14541 9.44719 3.25126 9.40584 3.36216 9.39721L8.88016 8.95521C8.98341 8.94697 9.08239 8.9104 9.16619 8.84953C9.25 8.78866 9.31539 8.70585 9.35516 8.61021L11.4802 3.49921Z" fill="#D9D9D9"/>
</svg>
