<svg xmlns="http://www.w3.org/2000/svg" xmlns:xlink="http://www.w3.org/1999/xlink" width="710.035" height="447.665" viewBox="0 0 710.035 447.665">
  <defs>
    <clipPath id="clip-path">
      <rect id="사각형_1071" data-name="사각형 1071" width="106.184" height="132.513" fill="none"/>
    </clipPath>
    <clipPath id="clip-path-2">
      <rect id="사각형_1071-2" data-name="사각형 1071" width="51.241" height="63.946" fill="none"/>
    </clipPath>
    <clipPath id="clip-path-3">
      <rect id="사각형_1071-3" data-name="사각형 1071" width="69.233" height="86.4" fill="none"/>
    </clipPath>
    <clipPath id="clip-path-4">
      <rect id="사각형_1088" data-name="사각형 1088" width="710.035" height="386.72" fill="none"/>
    </clipPath>
  </defs>
  <g id="img_digitalLabel_journey" transform="translate(-239.965 -1736)">
    <g id="그룹_4644" data-name="그룹 4644" transform="translate(510.382 2051.152)">
      <g id="그룹_4641" data-name="그룹 4641" clip-path="url(#clip-path)">
        <path id="패스_21779" data-name="패스 21779" d="M106.183,52.7c.053,12.864-4.312,24.138-12.048,34.3-10.4,13.661-20.814,27.3-31.637,40.63-5.289,6.512-13.358,6.493-18.613-.007-8.3-10.263-16.494-20.608-24.4-31.169-4.017-5.363-8.521-10.4-11.8-16.284C-2.478,61.962-2.73,43.567,7.94,25.628,24.457-2.143,61.812-8.393,86.88,12.051a53.145,53.145,0,0,1,19.3,40.651m-72.806.041a19.822,19.822,0,1,0,19.87-19.81,19.793,19.793,0,0,0-19.87,19.81" transform="translate(0 0)" fill="#ff6632"/>
      </g>
    </g>
    <g id="그룹_4642" data-name="그룹 4642" transform="translate(521.153 1736)">
      <g id="그룹_4641-2" data-name="그룹 4641" clip-path="url(#clip-path-2)">
        <path id="패스_21779-2" data-name="패스 21779" d="M51.24,25.433a26.542,26.542,0,0,1-5.814,16.554c-5.017,6.592-10.044,13.176-15.267,19.607-2.552,3.143-6.446,3.133-8.982,0-4-4.952-7.959-9.945-11.777-15.041A72.18,72.18,0,0,1,3.7,38.69c-4.9-8.79-5.022-17.666.127-26.323A25.533,25.533,0,0,1,51.24,25.433m-35.134.02a9.566,9.566,0,1,0,9.589-9.56,9.551,9.551,0,0,0-9.589,9.56" transform="translate(0 0)" fill="#ff6632"/>
      </g>
    </g>
    <g id="그룹_4643" data-name="그룹 4643" transform="translate(753.636 1882.618)">
      <g id="그룹_4641-3" data-name="그룹 4641" clip-path="url(#clip-path-3)">
        <path id="패스_21779-3" data-name="패스 21779" d="M69.233,34.363c.034,8.388-2.812,15.738-7.856,22.367-6.779,8.907-13.571,17.8-20.628,26.491-3.448,4.246-8.71,4.234-12.136,0C23.2,76.525,17.859,69.78,12.7,62.894c-2.619-3.5-5.556-6.78-7.7-10.617C-1.616,40.4-1.78,28.406,5.177,16.71A34.5,34.5,0,0,1,69.233,34.363m-47.471.027A12.925,12.925,0,1,0,34.717,21.474,12.905,12.905,0,0,0,21.762,34.39" transform="translate(0 0)" fill="#ff6632"/>
      </g>
    </g>
    <g id="그룹_4671" data-name="그룹 4671" transform="translate(239.965 1792.946)">
      <g id="그룹_4670" data-name="그룹 4670" clip-path="url(#clip-path-4)">
        <path id="패스_21869" data-name="패스 21869" d="M313.951,1.53S1.681-2.607,1.681,86.393c0,0-18.252,76.255,312.27,76.255,0,0,394.2-16.822,394.2,107.659,0,0,6.147,115.187-394.2,115.187" transform="translate(0.189 -0.137)" fill="none" stroke="#ff6632" stroke-linecap="round" stroke-linejoin="round" stroke-width="3" stroke-dasharray="7 10"/>
      </g>
    </g>
  </g>
</svg>
